<svg width="386" height="211" viewBox="0 0 386 211" fill="none" xmlns="http://www.w3.org/2000/svg">
<g opacity="0.5">
<path d="M42.5259 77.7724V51.5654H30.3437L17.2128 77.7724H1.03638L16.5638 46.7733C9.07467 42.6467 5.33012 36.2406 5.33012 27.5548C5.33012 20.4332 7.66006 14.9255 12.3199 11.0319C16.9798 7.13829 23.487 5.15821 31.8415 5.09165H57.554V77.7724H42.5259ZM20.3083 28.653C20.3083 32.713 21.2902 35.6582 23.254 37.4885C25.2511 39.3188 28.2301 40.234 32.191 40.234H42.5259V17.2218H32.191C24.2692 17.2218 20.3083 21.0322 20.3083 28.653Z" fill="white"/>
<path d="M121.261 26.7561C128.184 26.7561 133.71 29.0523 137.837 33.6448C141.964 38.2373 144.028 44.477 144.028 52.3641V53.063C144.028 60.8502 141.731 67.09 137.138 71.7823C132.545 76.4746 126.37 78.8207 118.615 78.8207C110.826 78.8207 104.619 76.2915 99.9922 71.2332C95.3989 66.1415 93.1023 59.2362 93.1023 50.5171V48.1211C93.1688 35.9743 95.2158 26.4732 99.2433 19.6178C103.304 12.7291 109.395 8.38624 117.517 6.58919C121.777 5.65739 124.523 4.74222 125.755 3.8437C126.986 2.91189 127.602 1.63066 127.602 0H139.285C139.285 5.22476 137.87 9.15166 135.041 11.7807C132.245 14.4097 127.253 16.4397 120.063 17.8707C115.803 18.7359 112.441 20.4165 109.978 22.9124C107.515 25.4083 105.85 28.9192 104.985 33.4451C109.578 28.9858 115.004 26.7561 121.261 26.7561ZM118.515 38.437C115.087 38.437 112.391 39.5851 110.427 41.8813C108.496 44.1775 107.531 47.9048 107.531 53.063C107.531 57.6554 108.48 61.1663 110.377 63.5957C112.274 65.9918 115.02 67.1898 118.615 67.1898C122.11 67.1898 124.806 66.0084 126.703 63.6456C128.601 61.2828 129.566 57.8052 129.599 53.2127V52.0147C129.599 47.5886 128.617 44.2275 126.653 41.9312C124.723 39.6017 122.01 38.437 118.515 38.437Z" fill="white"/>
<path d="M172.836 57.3559L182.822 23.761H198.299L176.581 86.1587L175.382 89.004C172.154 96.0591 166.828 99.5867 159.406 99.5867C157.309 99.5867 155.178 99.2705 153.015 98.6382V87.7061L155.212 87.7561C157.941 87.7561 159.971 87.3401 161.303 86.5081C162.668 85.6761 163.733 84.2951 164.498 82.3649L166.196 77.9222L147.273 23.761H162.801L172.836 57.3559Z" fill="white"/>
<path d="M201.944 66.1415C205.206 62.6805 207.419 59.2528 208.584 55.8584C209.749 52.4639 210.398 47.6552 210.531 41.432L210.931 23.761H250.673V66.1415H258.461V93.9958H244.032V77.7724H212.029V93.9958H197.3V66.1415H201.944ZM218.969 66.1415H236.294V35.6915H225.06L224.96 42.1808C224.661 52.0979 222.664 60.0848 218.969 66.1415Z" fill="white"/>
<path d="M285.971 57.3559L295.957 23.761H311.434L289.716 86.1587L288.518 89.004C285.289 96.0591 279.963 99.5867 272.541 99.5867C270.444 99.5867 268.314 99.2705 266.15 98.6382V87.7061L268.347 87.7561C271.076 87.7561 273.107 87.3401 274.438 86.5081C275.803 85.6761 276.868 84.2951 277.633 82.3649L279.331 77.9222L260.409 23.761H275.936L285.971 57.3559Z" fill="white"/>
</g>
<g opacity="0.6">
<path d="M37.626 99.5864V139.119H27.0688V108.136H17.7536L17.0961 120.339C16.6821 126.843 15.4035 131.58 13.2604 134.552C11.1173 137.523 7.92702 139.046 3.68954 139.119H0.10959L0 130.533L1.31508 130.423C3.21465 130.277 4.60279 129.157 5.47951 127.062C6.35623 124.967 6.90418 121.399 7.12336 116.357L7.85396 99.5864H37.626Z" fill="white"/>
<path d="M60.5303 124.175L67.8363 99.5864H79.1606L63.2701 145.257L62.3933 147.34C60.0311 152.503 56.1345 155.085 50.7037 155.085C49.1695 155.085 47.6108 154.854 46.0279 154.391V146.39L47.6352 146.426C49.6322 146.426 51.1177 146.122 52.0919 145.513C53.0904 144.904 53.8697 143.893 54.4298 142.48L55.6718 139.228L41.8269 99.5864H53.1878L60.5303 124.175Z" fill="white"/>
<path d="M116.64 139.119H106.083V126.696C104.111 127.062 102.272 127.244 100.567 127.244C94.6007 127.244 90.1075 125.978 87.0877 123.445C84.0679 120.912 82.5336 117.209 82.4849 112.338V99.5864H93.0421V112.338C93.0664 114.627 93.6265 116.271 94.7225 117.27C95.8184 118.244 97.7666 118.732 100.567 118.732C102.321 118.732 104.159 118.524 106.083 118.11V99.5864H116.64V139.119Z" fill="white"/>
<path d="M135.307 99.5864V130.606H146.157V99.5864H156.751V130.606H167.6V99.5864H178.157V139.119H124.75V99.5864H135.307Z" fill="white"/>
<path d="M210.45 99.5864H221.007V139.119H210.45V114.713L197.226 139.119H186.632V99.5864H197.226V123.956L210.45 99.5864Z" fill="white"/>
<path d="M253.153 126.66L263.491 99.5864H276.715V139.119H266.158V114.859L256.697 139.119H249.61L240.331 115.261V139.119H229.774V99.5864H242.888L253.153 126.66Z" fill="white"/>
</g>
<g opacity="0.5">
<path d="M143.108 186.422C145.46 183.922 147.056 181.446 147.895 178.994C148.735 176.542 149.203 173.068 149.299 168.572L149.587 155.806H178.238V186.422H183.853V206.545H173.451V194.825H150.379V206.545H139.761V186.422H143.108ZM155.382 186.422H167.872V164.425H159.773L159.701 169.113C159.486 176.277 158.046 182.047 155.382 186.422Z" fill="white"/>
<path d="M223.555 175.676C223.555 181.686 222.187 186.507 219.452 190.137C216.74 193.743 213.069 195.546 208.437 195.546C204.502 195.546 201.323 194.176 198.899 191.435V209.826H188.497V155.806H198.143L198.503 159.629C201.023 156.6 204.31 155.085 208.365 155.085C213.165 155.085 216.896 156.864 219.56 160.422C222.223 163.98 223.555 168.885 223.555 175.135V175.676ZM213.153 174.919C213.153 171.289 212.505 168.488 211.209 166.516C209.937 164.545 208.078 163.559 205.63 163.559C202.366 163.559 200.123 164.81 198.899 167.31V183.285C200.171 185.858 202.438 187.144 205.702 187.144C210.669 187.144 213.153 183.069 213.153 174.919Z" fill="white"/>
<path d="M244.144 180.076L251.342 155.806H262.501L246.843 200.883L245.979 202.939C243.652 208.035 239.812 210.584 234.461 210.584C232.949 210.584 231.414 210.355 229.854 209.899V202.001L231.438 202.037C233.405 202.037 234.869 201.737 235.829 201.136C236.813 200.535 237.581 199.537 238.133 198.143L239.356 194.933L225.715 155.806H236.909L244.144 180.076Z" fill="white"/>
<path d="M293.132 164.245H277.006V194.825H266.604V155.806H293.132V164.245Z" fill="white"/>
<path d="M295.147 174.955C295.147 171.084 295.891 167.634 297.379 164.605C298.867 161.576 301.002 159.232 303.786 157.573C306.593 155.914 309.845 155.085 313.54 155.085C318.795 155.085 323.079 156.696 326.39 159.917C329.726 163.139 331.585 167.514 331.969 173.044L332.041 175.712C332.041 181.698 330.373 186.507 327.038 190.137C323.703 193.743 319.227 195.546 313.612 195.546C307.997 195.546 303.51 193.743 300.15 190.137C296.815 186.531 295.147 181.626 295.147 175.424V174.955ZM305.549 175.712C305.549 179.415 306.245 182.251 307.637 184.223C309.029 186.17 311.021 187.144 313.612 187.144C316.132 187.144 318.099 186.182 319.515 184.259C320.931 182.311 321.639 179.21 321.639 174.955C321.639 171.325 320.931 168.512 319.515 166.516C318.099 164.521 316.108 163.523 313.54 163.523C310.997 163.523 309.029 164.521 307.637 166.516C306.245 168.488 305.549 171.553 305.549 175.712Z" fill="white"/>
<path d="M362.168 182.528L372.355 155.806H385.384V194.825H374.982V170.88L365.66 194.825H358.677L349.534 171.277V194.825H339.132V155.806H352.054L362.168 182.528Z" fill="white"/>
</g>
</svg>
