<svg width="772" height="404" viewBox="0 0 772 404" fill="none" xmlns="http://www.w3.org/2000/svg">
<g opacity="0.5">
<path d="M82.0658 149.943V99.4165H58.5567L33.217 149.943H2L31.9645 90.1774C17.5121 82.2216 10.286 69.8707 10.286 53.1248C10.286 39.3945 14.7823 28.7759 23.7748 21.2692C32.7674 13.7624 45.3248 9.94486 61.4472 9.81654H111.067V149.943H82.0658ZM39.1906 55.2421C39.1906 63.0697 41.0855 68.7479 44.8752 72.2767C48.7291 75.8055 54.4779 77.5699 62.1216 77.5699H82.0658V33.203H62.1216C46.8343 33.203 39.1906 40.5494 39.1906 55.2421Z" fill="white"/>
<path d="M234.008 51.585C247.368 51.585 258.031 56.012 265.995 64.8662C273.96 73.7203 277.943 85.7504 277.943 100.956V102.304C277.943 117.317 273.511 129.347 264.647 138.394C255.783 147.441 243.867 151.964 228.901 151.964C213.871 151.964 201.891 147.088 192.963 137.335C184.099 127.519 179.667 114.206 179.667 97.3955V92.7759C179.796 69.3574 183.746 51.0396 191.518 37.8226C199.354 24.5414 211.109 16.1684 226.782 12.7038C235.003 10.9073 240.302 9.14286 242.679 7.41053C245.056 5.61404 246.244 3.14386 246.244 0H268.79C268.79 10.0732 266.06 17.6441 260.6 22.7128C255.204 27.7815 245.57 31.6952 231.695 34.4541C223.474 36.1223 216.986 39.3624 212.233 44.1744C207.48 48.9865 204.268 55.7554 202.598 64.4812C211.462 55.8837 221.932 51.585 234.008 51.585ZM228.709 74.1053C222.093 74.1053 216.89 76.3188 213.1 80.7459C209.375 85.1729 207.512 92.3589 207.512 102.304C207.512 111.158 209.342 117.927 213.004 122.611C216.665 127.23 221.964 129.54 228.901 129.54C235.646 129.54 240.848 127.262 244.51 122.707C248.171 118.151 250.034 111.447 250.098 102.592V100.283C250.098 91.7494 248.203 85.2692 244.413 80.8421C240.688 76.3509 235.453 74.1053 228.709 74.1053Z" fill="white"/>
<path d="M333.536 110.58L352.806 45.8105H382.674L340.762 166.111L338.45 171.597C332.219 185.199 321.942 192 307.618 192C303.571 192 299.461 191.39 295.285 190.171V169.095L299.525 169.191C304.792 169.191 308.71 168.389 311.279 166.785C313.913 165.181 315.968 162.518 317.446 158.797L320.722 150.232L284.205 45.8105H314.17L333.536 110.58Z" fill="white"/>
<path d="M389.707 127.519C396.002 120.846 400.273 114.238 402.522 107.693C404.77 101.149 406.022 91.8777 406.279 79.8797L407.05 45.8105H483.744V127.519H498.774V181.221H470.929V149.943H409.17V181.221H380.747V127.519H389.707ZM422.562 127.519H455.995V68.812H434.317L434.124 81.3233C433.546 100.443 429.692 115.842 422.562 127.519Z" fill="white"/>
<path d="M551.862 110.58L571.132 45.8105H601L559.088 166.111L556.776 171.597C550.545 185.199 540.268 192 525.944 192C521.898 192 517.787 191.39 513.612 190.171V169.095L517.851 169.191C523.118 169.191 527.036 168.389 529.606 166.785C532.239 165.181 534.295 162.518 535.772 158.797L539.048 150.232L502.532 45.8105H532.496L551.862 110.58Z" fill="white"/>
</g>
<g opacity="0.6">
<path d="M72.6099 192V268.217H52.2368V208.483H34.2606L32.9917 232.011C32.1927 244.549 29.7254 253.683 25.5897 259.412C21.454 265.141 15.2974 268.076 7.12 268.217H0.211485L0 251.664L2.53782 251.452C6.20356 251.171 8.88238 249.01 10.5743 244.972C12.2661 240.933 13.3236 234.053 13.7465 224.332L15.1564 192H72.6099Z" fill="white"/>
<path d="M116.81 239.407L130.909 192H152.763L122.097 280.051L120.406 284.066C115.847 294.022 108.327 299 97.8471 299C94.8863 299 91.8785 298.554 88.8238 297.662V282.235L91.9255 282.305C95.7793 282.305 98.6461 281.718 100.526 280.544C102.453 279.37 103.957 277.422 105.038 274.698L107.434 268.429L80.7168 192H102.641L116.81 239.407Z" fill="white"/>
<path d="M225.091 268.217H204.718V244.267C200.911 244.972 197.363 245.324 194.073 245.324C182.559 245.324 173.888 242.882 168.06 237.998C162.233 233.114 159.272 225.976 159.178 216.584V192H179.551V216.584C179.598 220.998 180.679 224.168 182.794 226.093C184.909 227.972 188.668 228.911 194.073 228.911C197.457 228.911 201.005 228.512 204.718 227.714V192H225.091V268.217Z" fill="white"/>
<path d="M261.114 192V251.804H282.051V192H302.494V251.804H323.431V192H343.804V268.217H240.741V192H261.114Z" fill="white"/>
<path d="M406.122 192H426.495V268.217H406.122V221.163L380.603 268.217H360.159V192H380.603V238.984L406.122 192Z" fill="white"/>
<path d="M488.531 244.197L508.481 192H534V268.217H513.627V221.444L495.369 268.217H481.693L463.787 222.219V268.217H443.414V192H468.722L488.531 244.197Z" fill="white"/>
</g>
<g opacity="0.5">
<path d="M304.46 357.418C308.998 352.597 312.077 347.823 313.698 343.096C315.319 338.368 316.222 331.67 316.407 323.003L316.963 298.391H372.254V357.418H383.089V396.213H363.015V373.617H318.491V396.213H298V357.418H304.46ZM328.146 357.418H352.249V315.007H336.62L336.481 324.045C336.064 337.858 333.286 348.982 328.146 357.418Z" fill="white"/>
<path d="M459.705 336.699C459.705 348.287 457.065 357.58 451.786 364.579C446.553 371.532 439.468 375.008 430.531 375.008C422.937 375.008 416.801 372.366 412.124 367.082V402.54H392.05V298.391H410.665L411.36 305.76C416.222 299.92 422.566 297 430.392 297C439.654 297 446.854 300.43 451.994 307.29C457.135 314.15 459.705 323.605 459.705 335.656V336.699ZM439.63 335.239C439.63 328.24 438.38 322.84 435.88 319.04C433.425 315.239 429.836 313.339 425.113 313.339C418.815 313.339 414.486 315.749 412.124 320.569V351.369C414.578 356.329 418.954 358.808 425.252 358.808C434.838 358.808 439.63 350.952 439.63 335.239Z" fill="white"/>
<path d="M499.436 345.181L513.328 298.391H534.861L504.646 385.298L502.979 389.261C498.487 399.087 491.078 404 480.751 404C477.834 404 474.87 403.56 471.86 402.679V387.453L474.916 387.522C478.714 387.522 481.538 386.943 483.391 385.784C485.289 384.626 486.771 382.702 487.836 380.014L490.198 373.826L463.872 298.391H485.475L499.436 345.181Z" fill="white"/>
<path d="M593.972 314.66H562.854V373.617H542.78V298.391H593.972V314.66Z" fill="white"/>
<path d="M597.862 335.309C597.862 327.846 599.298 321.195 602.169 315.355C605.04 309.515 609.161 304.995 614.533 301.797C619.951 298.599 626.225 297 633.356 297C643.498 297 651.764 300.105 658.154 306.316C664.591 312.527 668.179 320.963 668.92 331.624L669.059 336.769C669.059 348.31 665.841 357.58 659.404 364.579C652.967 371.532 644.331 375.008 633.495 375.008C622.659 375.008 614 371.532 607.517 364.579C601.08 357.626 597.862 348.171 597.862 336.212V335.309ZM617.936 336.769C617.936 343.907 619.279 349.376 621.965 353.177C624.651 356.931 628.494 358.808 633.495 358.808C638.358 358.808 642.155 356.954 644.887 353.246C647.619 349.492 648.985 343.513 648.985 335.309C648.985 328.31 647.619 322.887 644.887 319.04C642.155 315.193 638.311 313.269 633.356 313.269C628.448 313.269 624.651 315.193 621.965 319.04C619.279 322.84 617.936 328.75 617.936 336.769Z" fill="white"/>
<path d="M727.198 349.909L746.855 298.391H772V373.617H751.926V327.452L733.936 373.617H720.46L702.817 328.217V373.617H682.743V298.391H707.679L727.198 349.909Z" fill="white"/>
</g>
</svg>
