<svg width="571" height="300" viewBox="0 0 571 300" fill="none" xmlns="http://www.w3.org/2000/svg">
<g opacity="0.5">
<path d="M58.9116 111.292V73.7897H41.4625L22.6546 111.292H-0.515503L21.725 66.9322C10.998 61.0271 5.63459 51.86 5.63459 39.4307C5.63459 29.2397 8.97185 21.3583 15.6464 15.7866C22.3209 10.2148 31.6414 7.38136 43.6078 7.28611H80.4369V111.292H58.9116ZM27.0884 41.0022C27.0884 46.8121 28.4948 51.0266 31.3077 53.6458C34.1682 56.265 38.4351 57.5746 44.1084 57.5746H58.9116V24.6442H44.1084C32.7617 24.6442 27.0884 30.0969 27.0884 41.0022Z" fill="white"/>
<path d="M171.687 38.2878C181.604 38.2878 189.518 41.5737 195.429 48.1455C201.341 54.7173 204.297 63.6463 204.297 74.9327V75.9327C204.297 87.0762 201.007 96.0052 194.428 102.72C187.849 109.435 179.005 112.792 167.897 112.792C156.741 112.792 147.85 109.173 141.223 101.934C134.644 94.648 131.354 84.7665 131.354 72.2897V68.8609C131.449 51.479 134.381 37.883 140.15 28.073C145.966 18.2153 154.691 12.0007 166.324 9.42909C172.426 8.09568 176.359 6.78608 178.123 5.5003C179.887 4.16689 180.769 2.33346 180.769 0H197.503C197.503 7.4766 195.477 13.096 191.425 16.8581C187.42 20.6202 180.269 23.5251 169.971 25.5728C163.868 26.811 159.053 29.2159 155.525 32.7875C151.997 36.3591 149.614 41.3832 148.374 47.8598C154.953 41.4785 162.724 38.2878 171.687 38.2878ZM167.754 55.003C162.843 55.003 158.982 56.646 156.169 59.9318C153.404 63.2177 152.021 68.5514 152.021 75.9327C152.021 82.5045 153.38 87.5286 156.097 91.005C158.815 94.4337 162.748 96.1481 167.897 96.1481C172.903 96.1481 176.765 94.4575 179.482 91.0764C182.199 87.6953 183.582 82.7188 183.63 76.147V74.4326C183.63 68.099 182.223 63.2892 179.41 60.0033C176.645 56.6698 172.76 55.003 167.754 55.003Z" fill="white"/>
<path d="M245.56 82.0759L259.862 34.0019H282.031L250.923 123.292L249.207 127.364C244.582 137.46 236.954 142.508 226.323 142.508C223.319 142.508 220.268 142.055 217.169 141.151V125.507L220.316 125.578C224.225 125.578 227.133 124.983 229.04 123.792C230.995 122.602 232.521 120.626 233.617 117.864L236.049 111.506L208.945 34.0019H231.186L245.56 82.0759Z" fill="white"/>
<path d="M287.252 94.648C291.924 89.6954 295.094 84.7903 296.763 79.9329C298.431 75.0755 299.361 68.1942 299.552 59.289L300.124 34.0019H357.048V94.648H368.204V134.507H347.537V111.292H301.697V134.507H280.601V94.648H287.252ZM311.638 94.648H336.452V51.0742H320.362L320.219 60.3604C319.79 74.5517 316.929 85.9809 311.638 94.648Z" fill="white"/>
<path d="M407.608 82.0759L421.91 34.0019H444.079L412.971 123.292L411.255 127.364C406.63 137.46 399.002 142.508 388.371 142.508C385.367 142.508 382.316 142.055 379.217 141.151V125.507L382.364 125.578C386.273 125.578 389.181 124.983 391.088 123.792C393.043 122.602 394.568 120.626 395.665 117.864L398.096 111.506L370.993 34.0019H393.234L407.608 82.0759Z" fill="white"/>
</g>
<g opacity="0.6">
<path d="M51.8931 142.508V199.078H36.7716V154.742H23.4292L22.4874 172.205C21.8944 181.511 20.063 188.291 16.9934 192.543C13.9238 196.795 9.35418 198.974 3.28466 199.078H-1.84303L-2 186.792L-0.116358 186.635C2.60446 186.426 4.59275 184.822 5.84851 181.825C7.10427 178.827 7.88912 173.721 8.20306 166.506L9.24953 142.508H51.8931Z" fill="white"/>
<path d="M84.6999 177.694L95.1646 142.508H111.385L88.6241 207.862L87.3684 210.842C83.9848 218.232 78.4036 221.926 70.6249 221.926C68.4273 221.926 66.1948 221.595 63.9275 220.933V209.483L66.2297 209.535C69.0901 209.535 71.2179 209.099 72.6132 208.228C74.0433 207.357 75.1596 205.91 75.9619 203.888L77.7409 199.235L57.9103 142.508H74.1829L84.6999 177.694Z" fill="white"/>
<path d="M165.069 199.078H149.947V181.302C147.122 181.825 144.488 182.086 142.046 182.086C133.5 182.086 127.064 180.274 122.739 176.649C118.414 173.024 116.216 167.726 116.146 160.755V142.508H131.268V160.755C131.303 164.031 132.105 166.384 133.675 167.813C135.244 169.207 138.035 169.904 142.046 169.904C144.558 169.904 147.191 169.608 149.947 169.015V142.508H165.069V199.078Z" fill="white"/>
<path d="M191.806 142.508V186.896H207.346V142.508H222.52V186.896H238.06V142.508H253.181V199.078H176.684V142.508H191.806Z" fill="white"/>
<path d="M299.435 142.508H314.557V199.078H299.435V164.153L280.494 199.078H265.32V142.508H280.494V177.381L299.435 142.508Z" fill="white"/>
<path d="M360.601 181.25L375.409 142.508H394.35V199.078H379.228V164.362L365.677 199.078H355.526L342.236 164.937V199.078H327.114V142.508H345.898L360.601 181.25Z" fill="white"/>
</g>
<g opacity="0.5">
<path d="M223.979 265.286C227.347 261.708 229.633 258.164 230.836 254.655C232.039 251.146 232.709 246.175 232.846 239.742L233.259 221.474H274.297V265.286H282.34V294.081H267.44V277.309H234.393V294.081H219.184V265.286H223.979ZM241.559 265.286H259.449V233.807H247.849L247.746 240.516C247.436 250.768 245.374 259.024 241.559 265.286Z" fill="white"/>
<path d="M339.206 249.908C339.206 258.508 337.247 265.406 333.328 270.601C329.444 275.761 324.186 278.341 317.552 278.341C311.915 278.341 307.361 276.381 303.89 272.459V298.777H288.99V221.474H302.807L303.323 226.944C306.932 222.609 311.641 220.442 317.449 220.442C324.323 220.442 329.668 222.988 333.483 228.079C337.298 233.171 339.206 240.189 339.206 249.134V249.908ZM324.306 248.824C324.306 243.629 323.378 239.621 321.522 236.8C319.7 233.979 317.037 232.569 313.531 232.569C308.857 232.569 305.643 234.358 303.89 237.936V260.796C305.712 264.477 308.96 266.318 313.634 266.318C320.749 266.318 324.306 260.487 324.306 248.824Z" fill="white"/>
<path d="M368.695 256.203L379.007 221.474H394.989L372.562 285.979L371.325 288.92C367.991 296.214 362.492 299.86 354.827 299.86C352.662 299.86 350.462 299.533 348.228 298.88V287.579L350.496 287.63C353.315 287.63 355.411 287.2 356.786 286.34C358.195 285.48 359.295 284.052 360.086 282.057L361.839 277.464L342.299 221.474H358.333L368.695 256.203Z" fill="white"/>
<path d="M438.863 233.549H415.766V277.309H400.866V221.474H438.863V233.549Z" fill="white"/>
<path d="M441.75 248.876C441.75 243.337 442.815 238.4 444.946 234.065C447.077 229.731 450.136 226.376 454.123 224.003C458.145 221.629 462.802 220.442 468.095 220.442C475.622 220.442 481.757 222.747 486.5 227.357C491.278 231.967 493.941 238.228 494.491 246.141L494.595 249.959C494.595 258.526 492.206 265.406 487.428 270.601C482.651 275.761 476.241 278.341 468.198 278.341C460.155 278.341 453.728 275.761 448.916 270.601C444.139 265.44 441.75 258.422 441.75 249.546V248.876ZM456.65 249.959C456.65 255.257 457.646 259.317 459.64 262.138C461.633 264.924 464.486 266.318 468.198 266.318C471.807 266.318 474.625 264.942 476.653 262.189C478.681 259.403 479.695 254.965 479.695 248.876C479.695 243.681 478.681 239.656 476.653 236.8C474.625 233.945 471.773 232.517 468.095 232.517C464.452 232.517 461.633 233.945 459.64 236.8C457.646 239.621 456.65 244.008 456.65 249.959Z" fill="white"/>
<path d="M537.747 259.712L552.337 221.474H571V277.309H556.1V243.044L542.748 277.309H532.746L519.651 243.612V277.309H504.751V221.474H523.259L537.747 259.712Z" fill="white"/>
</g>
</svg>
