<svg width="421" height="230" viewBox="0 0 421 230" fill="none" xmlns="http://www.w3.org/2000/svg">
<g opacity="0.5">
<path d="M44.6767 85.3635V56.5985H31.3053L16.8928 85.3635H-0.862549L16.1804 51.3386C7.96033 46.8093 3.85029 39.7779 3.85029 30.2443C3.85029 22.4276 6.40765 16.3823 11.5224 12.1087C16.6371 7.83503 23.7794 5.66168 32.9493 5.58863H61.1716V85.3635H44.6767ZM20.2904 31.4497C20.2904 35.906 21.3682 39.1386 23.5237 41.1476C25.7157 43.1566 28.9854 44.1611 33.333 44.1611H44.6767V18.9027H33.333C24.6379 18.9027 20.2904 23.085 20.2904 31.4497Z" fill="white"/>
<path d="M131.097 29.3677C138.696 29.3677 144.761 31.888 149.291 36.9288C153.821 41.9695 156.086 48.8183 156.086 57.4752V58.2422C156.086 66.7896 153.565 73.6384 148.524 78.7887C143.482 83.939 136.705 86.5141 128.193 86.5141C119.644 86.5141 112.83 83.7381 107.752 78.186C102.71 72.5973 100.19 65.018 100.19 55.4479V52.818C100.263 39.4856 102.509 29.0572 106.93 21.5326C111.387 13.9716 118.073 9.20479 126.987 7.23234C131.663 6.20958 134.677 5.20509 136.029 4.21886C137.381 3.19611 138.057 1.78982 138.057 0H150.88C150.88 5.73473 149.327 10.0449 146.222 12.9305C143.153 15.8162 137.673 18.0443 129.782 19.615C125.105 20.5647 121.416 22.4093 118.712 25.1488C116.009 27.8883 114.182 31.7419 113.232 36.7096C118.274 31.815 124.229 29.3677 131.097 29.3677ZM128.083 42.1886C124.32 42.1886 121.361 43.4488 119.205 45.9692C117.086 48.4895 116.027 52.5806 116.027 58.2422C116.027 63.283 117.068 67.1366 119.151 69.803C121.233 72.433 124.247 73.7479 128.193 73.7479C132.029 73.7479 134.988 72.4512 137.07 69.8578C139.153 67.2644 140.212 63.4473 140.249 58.4066V57.0916C140.249 52.2336 139.171 48.5443 137.015 46.024C134.897 43.4671 131.919 42.1886 128.083 42.1886Z" fill="white"/>
<path d="M187.706 62.9542L198.666 26.0803H215.654L191.816 94.5683L190.501 97.6914C186.957 105.435 181.112 109.307 172.965 109.307C170.663 109.307 168.325 108.96 165.95 108.266V96.2668L168.361 96.3216C171.357 96.3216 173.586 95.865 175.047 94.9518C176.545 94.0387 177.714 92.5228 178.554 90.4042L180.417 85.5279L159.648 26.0803H176.691L187.706 62.9542Z" fill="white"/>
<path d="M219.655 72.5973C223.235 68.7985 225.664 65.0363 226.943 61.3105C228.222 57.5848 228.934 52.3066 229.08 45.4761L229.519 26.0803H273.14V72.5973H281.689V103.17H265.851V85.3635H230.724V103.17H214.558V72.5973H219.655ZM238.342 72.5973H257.357V39.1752H245.027L244.918 46.2979C244.589 57.183 242.397 65.9494 238.342 72.5973Z" fill="white"/>
<path d="M311.884 62.9542L322.844 26.0803H339.832L315.994 94.5683L314.679 97.6914C311.135 105.435 305.289 109.307 297.142 109.307C294.841 109.307 292.503 108.96 290.128 108.266V96.2668L292.539 96.3216C295.535 96.3216 297.764 95.865 299.225 94.9518C300.723 94.0387 301.892 92.5228 302.732 90.4042L304.595 85.5279L283.826 26.0803H300.869L311.884 62.9542Z" fill="white"/>
</g>
<g opacity="0.6">
<path d="M39.2985 109.307V152.698H27.7109V118.691H17.4865L16.7648 132.085C16.3103 139.223 14.907 144.423 12.5547 147.685C10.2024 150.947 6.70075 152.617 2.04966 152.698H-1.87971L-2 143.274L-0.556557 143.153C1.52842 142.993 3.05205 141.763 4.01434 139.464C4.97664 137.165 5.57807 133.248 5.81865 127.714L6.62056 109.307H39.2985Z" fill="white"/>
<path d="M64.4385 136.296L72.4576 109.307H84.8872L67.4456 159.435L66.4833 161.721C63.8905 167.389 59.6136 170.222 53.6527 170.222C51.9687 170.222 50.258 169.969 48.5205 169.461V160.678L50.2847 160.718C52.4766 160.718 54.1072 160.384 55.1764 159.716C56.2723 159.047 57.1277 157.938 57.7425 156.387L59.1057 152.818L43.9095 109.307H56.3792L64.4385 136.296Z" fill="white"/>
<path d="M126.025 152.698H114.438V139.063C112.273 139.464 110.254 139.664 108.383 139.664C101.834 139.664 96.9025 138.274 93.588 135.494C90.2734 132.713 88.5894 128.649 88.5359 123.302V109.307H100.124V123.302C100.15 125.816 100.765 127.62 101.968 128.716C103.171 129.786 105.309 130.32 108.383 130.32C110.308 130.32 112.326 130.093 114.438 129.639V109.307H126.025V152.698Z" fill="white"/>
<path d="M146.514 109.307V143.354H158.423V109.307H170.05V143.354H181.959V109.307H193.546V152.698H134.927V109.307H146.514Z" fill="white"/>
<path d="M228.991 109.307H240.579V152.698H228.991V125.909L214.476 152.698H202.849V109.307H214.476V136.055L228.991 109.307Z" fill="white"/>
<path d="M275.863 139.023L287.21 109.307H301.724V152.698H290.137V126.07L279.752 152.698H271.973L261.789 126.511V152.698H250.202V109.307H264.596L275.863 139.023Z" fill="white"/>
</g>
<g opacity="0.5">
<path d="M155.076 203.48C157.657 200.736 159.409 198.018 160.331 195.326C161.252 192.635 161.766 188.822 161.871 183.887L162.187 169.876H193.635V203.48H199.798V225.567H188.381V212.703H163.057V225.567H151.402V203.48H155.076ZM168.548 203.48H182.257V179.336H173.368L173.289 184.481C173.052 192.345 171.472 198.678 168.548 203.48Z" fill="white"/>
<path d="M243.375 191.685C243.375 198.282 241.874 203.573 238.871 207.557C235.895 211.515 231.865 213.494 226.782 213.494C222.462 213.494 218.973 211.99 216.312 208.982V229.169H204.895V169.876H215.483L215.878 174.071C218.643 170.746 222.252 169.084 226.703 169.084C231.97 169.084 236.066 171.037 238.99 174.942C241.913 178.847 243.375 184.23 243.375 191.091V191.685ZM231.957 190.854C231.957 186.869 231.246 183.795 229.824 181.631C228.428 179.468 226.387 178.386 223.7 178.386C220.118 178.386 217.656 179.758 216.312 182.502V200.037C217.708 202.86 220.197 204.272 223.779 204.272C229.231 204.272 231.957 199.799 231.957 190.854Z" fill="white"/>
<path d="M265.973 196.514L273.875 169.876H286.122L268.936 219.352L267.988 221.609C265.433 227.203 261.219 230 255.346 230C253.686 230 252.001 229.749 250.289 229.248V220.579L252.027 220.619C254.187 220.619 255.793 220.289 256.847 219.629C257.927 218.97 258.77 217.875 259.375 216.344L260.719 212.821L245.745 169.876H258.032L265.973 196.514Z" fill="white"/>
<path d="M319.743 179.138H302.043V212.703H290.626V169.876H319.743V179.138Z" fill="white"/>
<path d="M321.955 190.893C321.955 186.645 322.772 182.858 324.405 179.533C326.037 176.209 328.382 173.636 331.437 171.815C334.518 169.994 338.087 169.084 342.143 169.084C347.911 169.084 352.613 170.852 356.247 174.388C359.908 177.924 361.95 182.726 362.371 188.796L362.45 191.725C362.45 198.295 360.62 203.573 356.959 207.557C353.298 211.515 348.385 213.494 342.222 213.494C336.059 213.494 331.134 211.515 327.447 207.557C323.786 203.599 321.955 198.216 321.955 191.408V190.893ZM333.373 191.725C333.373 195.788 334.136 198.902 335.664 201.066C337.192 203.203 339.378 204.272 342.222 204.272C344.988 204.272 347.148 203.216 348.702 201.105C350.255 198.968 351.032 195.564 351.032 190.893C351.032 186.909 350.255 183.821 348.702 181.631C347.148 179.441 344.962 178.346 342.143 178.346C339.351 178.346 337.192 179.441 335.664 181.631C334.136 183.795 333.373 187.16 333.373 191.725Z" fill="white"/>
<path d="M395.518 199.205L406.698 169.876H421V212.703H409.582V186.421L399.35 212.703H391.686L381.651 186.856V212.703H370.233V169.876H384.416L395.518 199.205Z" fill="white"/>
</g>
</svg>
