<svg width="218" height="118" viewBox="0 0 218 118" fill="none" xmlns="http://www.w3.org/2000/svg">
<g opacity="0.5">
<path d="M24.9276 43.5795V28.8945H18.0681L10.6744 43.5795H1.56592L10.309 26.2093C6.09207 23.8969 3.98361 20.3073 3.98361 15.4402C3.98361 11.4496 5.29554 8.36347 7.9194 6.18169C10.5433 3.99992 14.2073 2.89038 18.9115 2.85309H33.3895V43.5795H24.9276ZM12.4174 16.0556C12.4174 18.3306 12.9703 19.9809 14.0761 21.0066C15.2006 22.0322 16.878 22.545 19.1083 22.545H24.9276V9.65015H19.1083C14.6477 9.65015 12.4174 11.7853 12.4174 16.0556Z" fill="white"/>
<path d="M69.2614 14.9927C73.1597 14.9927 76.2709 16.2794 78.5948 18.8528C80.9188 21.4261 82.0808 24.9226 82.0808 29.3421V29.7337C82.0808 34.0972 80.7876 37.5936 78.2013 40.223C75.6149 42.8523 72.1383 44.1669 67.7714 44.1669C63.3858 44.1669 59.8905 42.7497 57.2854 39.9153C54.699 37.0622 53.4058 33.1928 53.4058 28.3071V26.9645C53.4433 20.1581 54.5959 14.8342 56.8637 10.9928C59.1502 7.13272 62.58 4.6992 67.153 3.69223C69.5519 3.1701 71.0981 2.65729 71.7916 2.1538C72.485 1.63167 72.8317 0.913734 72.8317 0H79.4101C79.4101 2.92768 78.6136 5.1281 77.0205 6.60126C75.4462 8.07443 72.6349 9.21193 68.5867 10.0138C66.1878 10.4986 64.2948 11.4403 62.9079 12.8389C61.521 14.2375 60.5839 16.2048 60.0967 18.7409C62.683 16.2421 65.738 14.9927 69.2614 14.9927ZM67.7152 21.538C65.7848 21.538 64.2667 22.1814 63.1609 23.4681C62.0739 24.7547 61.5304 26.8433 61.5304 29.7337C61.5304 32.307 62.0646 34.2744 63.1328 35.6356C64.2011 36.9783 65.7473 37.6496 67.7714 37.6496C69.7393 37.6496 71.2574 36.9876 72.3257 35.6636C73.394 34.3396 73.9375 32.3909 73.9562 29.8176V29.1463C73.9562 26.6661 73.4034 24.7827 72.2976 23.496C71.2106 22.1907 69.6831 21.538 67.7152 21.538Z" fill="white"/>
<path d="M98.3019 32.1392L103.924 13.3144H112.639L100.41 48.2787L99.7356 49.8731C97.9177 53.8264 94.919 55.8031 90.7396 55.8031C89.5588 55.8031 88.3593 55.6259 87.1411 55.2716V49.1459L88.3781 49.1738C89.9149 49.1738 91.0582 48.9407 91.8078 48.4745C92.5763 48.0083 93.176 47.2345 93.6071 46.1529L94.5629 43.6634L83.9082 13.3144H92.6512L98.3019 32.1392Z" fill="white"/>
<path d="M114.692 37.0622C116.528 35.1228 117.775 33.2021 118.431 31.3001C119.087 29.398 119.452 26.7034 119.527 23.2163L119.752 13.3144H142.13V37.0622H146.515V52.6703H138.391V43.5795H120.37V52.6703H112.077V37.0622H114.692ZM124.278 37.0622H134.033V19.9996H127.708L127.652 23.6359C127.483 29.1929 126.358 33.6683 124.278 37.0622Z" fill="white"/>
<path d="M162.005 32.1392L167.628 13.3144H176.343L164.114 48.2787L163.439 49.8731C161.621 53.8264 158.622 55.8031 154.443 55.8031C153.262 55.8031 152.063 55.6259 150.845 55.2716V49.1459L152.082 49.1738C153.618 49.1738 154.762 48.9407 155.511 48.4745C156.28 48.0083 156.879 47.2345 157.311 46.1529L158.266 43.6634L147.612 13.3144H156.355L162.005 32.1392Z" fill="white"/>
</g>
<g opacity="0.6">
<path d="M22.1686 55.8027V77.9546H16.2241V60.5934H10.979L10.6088 67.4314C10.3757 71.0756 9.65574 73.7303 8.44902 75.3955C7.24229 77.0606 5.44592 77.9136 3.0599 77.9546H1.04413L0.982422 73.1434L1.72291 73.082C2.79251 73.0001 3.57413 72.3723 4.06779 71.1985C4.56145 70.0247 4.86999 68.0252 4.9934 65.1999L5.40479 55.8027H22.1686Z" fill="white"/>
<path d="M35.0655 69.5811L39.1793 55.8027H45.5557L36.6082 81.3941L36.1145 82.561C34.7844 85.4545 32.5903 86.9013 29.5324 86.9013C28.6685 86.9013 27.7909 86.7716 26.8995 86.5123V82.0287L27.8046 82.0492C28.929 82.0492 29.7655 81.8786 30.314 81.5374C30.8762 81.1962 31.315 80.6297 31.6304 79.8381L32.3298 78.016L24.5341 55.8027H30.9311L35.0655 69.5811Z" fill="white"/>
<path d="M66.6597 77.9546H60.7152V70.9937C59.6044 71.1985 58.5691 71.3008 57.6092 71.3008C54.2496 71.3008 51.7196 70.5911 50.0192 69.1716C48.3188 67.7522 47.4549 65.6776 47.4275 62.9478V55.8027H53.372V62.9478C53.3857 64.2308 53.7011 65.1521 54.3182 65.7117C54.9353 66.2576 56.0323 66.5306 57.6092 66.5306C58.5966 66.5306 59.6319 66.4146 60.7152 66.1826V55.8027H66.6597V77.9546Z" fill="white"/>
<path d="M77.1705 55.8027V73.1844H83.2795V55.8027H89.2446V73.1844H95.3536V55.8027H101.298V77.9546H71.226V55.8027H77.1705Z" fill="white"/>
<path d="M119.481 55.8027H125.426V77.9546H119.481V64.2786L112.035 77.9546H106.07V55.8027H112.035V69.4583L119.481 55.8027Z" fill="white"/>
<path d="M143.527 70.9733L149.348 55.8027H156.794V77.9546H150.849V64.3605L145.522 77.9546H141.531L136.307 64.5857V77.9546H130.362V55.8027H137.747L143.527 70.9733Z" fill="white"/>
</g>
<g opacity="0.5">
<path d="M81.5631 104.461C82.8872 103.06 83.7857 101.673 84.2586 100.299C84.7315 98.9245 84.995 96.9779 85.0491 94.4588L85.2112 87.3055H101.344V104.461H104.506V115.737H98.6484V109.169H85.6571V115.737H79.6782V104.461H81.5631ZM88.4742 104.461H95.507V92.135H90.9469L90.9063 94.7619C90.7847 98.7763 89.974 102.009 88.4742 104.461Z" fill="white"/>
<path d="M126.861 98.4396C126.861 101.807 126.09 104.508 124.55 106.543C123.023 108.563 120.956 109.574 118.348 109.574C116.132 109.574 114.342 108.806 112.977 107.27V117.576H107.12V87.3055H112.552L112.755 89.4474C114.173 87.7501 116.024 86.9014 118.308 86.9014C121.01 86.9014 123.111 87.8982 124.611 89.892C126.111 91.8858 126.861 94.6339 126.861 98.1365V98.4396ZM121.003 98.0152C121.003 95.981 120.639 94.4116 119.909 93.307C119.193 92.2023 118.146 91.65 116.767 91.65C114.93 91.65 113.667 92.3505 112.977 93.7515V102.703C113.694 104.145 114.97 104.865 116.808 104.865C119.605 104.865 121.003 102.582 121.003 98.0152Z" fill="white"/>
<path d="M138.453 100.905L142.507 87.3055H148.79L139.974 112.564L139.487 113.716C138.177 116.572 136.015 118 133.002 118C132.15 118 131.286 117.872 130.407 117.616V113.191L131.299 113.211C132.407 113.211 133.231 113.042 133.772 112.706C134.326 112.369 134.758 111.81 135.069 111.029L135.758 109.23L128.077 87.3055H134.38L138.453 100.905Z" fill="white"/>
<path d="M166.037 92.0339H156.958V109.169H151.1V87.3055H166.037V92.0339Z" fill="white"/>
<path d="M167.172 98.0354C167.172 95.8665 167.591 93.9334 168.429 92.236C169.267 90.5386 170.469 89.2252 172.036 88.2957C173.617 87.3661 175.448 86.9014 177.529 86.9014C180.488 86.9014 182.9 87.8039 184.764 89.6091C186.642 91.4143 187.69 93.866 187.906 96.9645L187.946 98.4598C187.946 101.814 187.007 104.508 185.129 106.543C183.251 108.563 180.731 109.574 177.569 109.574C174.408 109.574 171.881 108.563 169.989 106.543C168.111 104.522 167.172 101.774 167.172 98.2981V98.0354ZM173.03 98.4598C173.03 100.534 173.421 102.124 174.205 103.229C174.989 104.32 176.11 104.865 177.569 104.865C178.988 104.865 180.096 104.327 180.893 103.249C181.69 102.158 182.089 100.42 182.089 98.0354C182.089 96.0013 181.69 94.4251 180.893 93.307C180.096 92.1889 178.975 91.6298 177.529 91.6298C176.097 91.6298 174.989 92.1889 174.205 93.307C173.421 94.4116 173.03 96.1292 173.03 98.4598Z" fill="white"/>
<path d="M204.91 102.279L210.646 87.3055H217.983V109.169H212.125V95.752L206.876 109.169H202.944L197.796 95.9743V109.169H191.939V87.3055H199.215L204.91 102.279Z" fill="white"/>
</g>
</svg>
