<svg width="51" height="40" viewBox="0 0 51 40" fill="none" xmlns="http://www.w3.org/2000/svg">
<path fill-rule="evenodd" clip-rule="evenodd" d="M7.93685 7.58422L0.533447 7.58421V15.5368H7.93685V22.9213H15.9096V15.5368H23.3127V7.58422L15.9096 7.58422V0.199707H7.93685V7.58422ZM10.0702 2.33304V9.71755L2.66678 9.71755V13.4034H10.0702V20.788H13.7763V13.4034H21.1794V9.71755L13.7763 9.71755V2.33304H10.0702Z" fill="#FFC41E"/>
<path d="M23.8641 20.4438L33.9064 23.9188V38.0947C33.9064 38.3701 33.7935 38.6342 33.5925 38.8289C33.3916 39.0236 33.119 39.133 32.8348 39.133H28.5484C28.2642 39.133 27.9916 39.0236 27.7906 38.8289C27.5897 38.6342 27.4768 38.3701 27.4768 38.0947V30.8267H16.7607V38.0947C16.7607 38.3701 16.6478 38.6342 16.4469 38.8289C16.2459 39.0236 15.9733 39.133 15.6891 39.133H11.4027C11.1185 39.133 10.8459 39.0236 10.645 38.8289C10.444 38.6342 10.3311 38.3701 10.3311 38.0947V24.2134C7.84229 23.3536 6.04468 21.0706 6.04468 18.3672C6.04468 17.8164 6.27048 17.2883 6.67241 16.8988C7.07434 16.5094 7.61947 16.2906 8.18789 16.2906C8.7563 16.2906 9.30144 16.5094 9.70337 16.8988C10.1053 17.2883 10.3311 17.8164 10.3311 18.3672C10.3322 18.9176 10.5583 19.4452 10.96 19.8344C11.3617 20.2236 11.9062 20.4427 12.4743 20.4438H23.8641ZM40.336 13.1757V15.2523C40.336 16.3538 39.8844 17.4102 39.0806 18.189C38.2767 18.9679 37.1864 19.4055 36.0496 19.4055H33.9064V21.7144L25.3336 18.7481V9.02257C25.3336 8.09784 26.4869 7.6345 27.1627 8.28863L28.9897 10.0609H32.5816C33.3123 10.0609 34.1723 10.5748 34.4985 11.2088L34.978 12.1374H39.2644C39.5486 12.1374 39.8212 12.2468 40.0222 12.4416C40.2231 12.6363 40.336 12.9004 40.336 13.1757ZM32.8348 13.1757C32.8348 12.9704 32.7719 12.7696 32.6542 12.5989C32.5365 12.4281 32.3691 12.2951 32.1733 12.2165C31.9775 12.1379 31.762 12.1173 31.5541 12.1574C31.3463 12.1975 31.1553 12.2963 31.0055 12.4416C30.8556 12.5868 30.7535 12.7718 30.7122 12.9732C30.6708 13.1746 30.6921 13.3833 30.7732 13.5731C30.8543 13.7628 30.9916 13.925 31.1678 14.039C31.3441 14.1531 31.5513 14.214 31.7632 14.214C32.0474 14.214 32.32 14.1046 32.5209 13.9099C32.7219 13.7152 32.8348 13.4511 32.8348 13.1757Z" fill="#242424"/>
<path d="M50.1336 32.7198C50.1336 36.2929 47.1913 39.1331 43.4896 39.1331H37.7948C34.0932 39.1331 31.1509 36.2929 31.1509 32.7198V29.9712H50.1336V32.7198Z" fill="#FFC41E"/>
</svg>
