<svg width="47" height="39" viewBox="0 0 47 39" fill="none" xmlns="http://www.w3.org/2000/svg">
<path fill-rule="evenodd" clip-rule="evenodd" d="M7.55279 7.92421H0.689453V15.5435H7.55279V22.6186H14.9441V15.5435H21.8074V7.92421H14.9441V0.849206H7.55279V7.92421ZM9.00107 2.34127V9.41628H2.13773V14.0514H9.00107V21.1265H13.4958V14.0514H20.3591V9.41628H13.4958V2.34127H9.00107Z" fill="#FFC41E"/>
<path d="M22.3187 20.2448L31.6286 23.5742V37.156C31.6286 37.4198 31.5239 37.6729 31.3376 37.8594C31.1513 38.046 30.8986 38.1508 30.6351 38.1508H26.6613C26.3978 38.1508 26.1451 38.046 25.9588 37.8594C25.7725 37.6729 25.6678 37.4198 25.6678 37.156V30.1926H15.7333V37.156C15.7333 37.4198 15.6287 37.6729 15.4424 37.8594C15.2561 38.046 15.0034 38.1508 14.7399 38.1508H10.7661C10.5026 38.1508 10.2499 38.046 10.0636 37.8594C9.8773 37.6729 9.77263 37.4198 9.77263 37.156V23.8565C7.46534 23.0327 5.79883 20.8454 5.79883 18.2552C5.79883 17.7276 6.00816 17.2215 6.38078 16.8484C6.75339 16.4753 7.25877 16.2657 7.78573 16.2657C8.31269 16.2657 8.81807 16.4753 9.19068 16.8484C9.5633 17.2215 9.77263 17.7276 9.77263 18.2552C9.77362 18.7826 9.98327 19.2881 10.3557 19.661C10.7281 20.0339 11.2329 20.2438 11.7595 20.2448H22.3187ZM37.5893 13.2814V15.2709C37.5893 16.3262 37.1706 17.3383 36.4254 18.0846C35.6801 18.8308 34.6694 19.25 33.6155 19.25H31.6286V21.4622L23.6809 18.6202V9.30225C23.6809 8.41628 24.7501 7.97236 25.3766 8.59907L27.0705 10.297H30.4004C31.0778 10.297 31.8751 10.7894 32.1774 11.3969L32.622 12.2866H36.5958C36.8593 12.2866 37.112 12.3914 37.2983 12.5779C37.4846 12.7645 37.5893 13.0175 37.5893 13.2814ZM30.6351 13.2814C30.6351 13.0846 30.5768 12.8923 30.4677 12.7287C30.3585 12.5651 30.2034 12.4376 30.0218 12.3623C29.8403 12.287 29.6405 12.2673 29.4478 12.3057C29.2551 12.3441 29.0781 12.4388 28.9392 12.5779C28.8002 12.7171 28.7056 12.8943 28.6673 13.0873C28.629 13.2803 28.6486 13.4803 28.7238 13.662C28.799 13.8438 28.9263 13.9992 29.0897 14.1085C29.2531 14.2178 29.4452 14.2761 29.6416 14.2761C29.9051 14.2761 30.1578 14.1713 30.3441 13.9848C30.5304 13.7982 30.6351 13.5452 30.6351 13.2814Z" fill="#242424"/>
<path d="M46.672 32.0062C46.672 35.4296 43.9443 38.1508 40.5126 38.1508H35.2331C31.8015 38.1508 29.0737 35.4296 29.0737 32.0062V29.3728H46.672V32.0062Z" fill="#FFC41E"/>
</svg>
