<svg width="62" height="61" viewBox="0 0 62 61" fill="none" xmlns="http://www.w3.org/2000/svg">
<path d="M23.6358 15.1605L35.3304 19.2024V35.6904C35.3304 36.0107 35.1989 36.3178 34.9649 36.5443C34.7309 36.7708 34.4134 36.898 34.0825 36.898H29.0908C28.7598 36.898 28.4424 36.7708 28.2083 36.5443C27.9743 36.3178 27.8428 36.0107 27.8428 35.6904V27.2369H15.3636V35.6904C15.3636 36.0107 15.2321 36.3178 14.998 36.5443C14.764 36.7708 14.4466 36.898 14.1156 36.898H9.12392C8.79294 36.898 8.47553 36.7708 8.2415 36.5443C8.00747 36.3178 7.87599 36.0107 7.87599 35.6904V19.545C4.97768 18.5449 2.88428 15.8897 2.88428 12.7453C2.88428 12.1047 3.14723 11.4904 3.6153 11.0374C4.08336 10.5845 4.71819 10.33 5.38013 10.33C6.04207 10.33 6.67691 10.5845 7.14497 11.0374C7.61303 11.4904 7.87599 12.1047 7.87599 12.7453C7.87722 13.3855 8.14058 13.9991 8.60837 14.4518C9.07617 14.9045 9.71028 15.1593 10.3718 15.1605H23.6358ZM42.818 6.70709V9.12236C42.818 10.4035 42.292 11.6322 41.3559 12.5381C40.4198 13.444 39.1501 13.9529 37.8263 13.9529H35.3304V16.6384L25.347 13.1883V1.87654C25.347 0.80099 26.6901 0.262083 27.477 1.02289L29.6047 3.08418H33.7876C34.6386 3.08418 35.64 3.68196 36.0199 4.41937L36.5783 5.49945H41.57C41.901 5.49945 42.2184 5.62668 42.4525 5.85316C42.6865 6.07964 42.818 6.3868 42.818 6.70709ZM34.0825 6.70709C34.0825 6.46824 34.0093 6.23476 33.8722 6.03616C33.735 5.83757 33.5401 5.68278 33.3121 5.59138C33.0841 5.49997 32.8332 5.47606 32.5911 5.52266C32.349 5.56925 32.1266 5.68427 31.9521 5.85316C31.7776 6.02205 31.6587 6.23723 31.6106 6.47149C31.5624 6.70575 31.5872 6.94856 31.6816 7.16923C31.7761 7.3899 31.936 7.5785 32.1412 7.7112C32.3465 7.8439 32.5877 7.91472 32.8345 7.91472C33.1655 7.91472 33.4829 7.78749 33.717 7.56102C33.951 7.33454 34.0825 7.02737 34.0825 6.70709Z" fill="#242424"/>
<path d="M12.9424 22.323C10.4012 22.323 8.05404 23.5836 6.64079 25.6841L1.3511 33.5291C0.728569 34.4541 0.397511 35.542 0.400057 36.6543V49.1569C0.39655 49.9947 0.675469 50.8095 1.19245 51.4719C1.70944 52.1343 2.4348 52.6061 3.25318 52.8124L8.18718 54.0523C8.54203 55.7484 9.47403 57.2718 10.8268 58.3669C12.1796 59.462 13.8708 60.0622 15.6167 60.0667C19.1394 60.0667 22.08 57.6493 22.9283 54.4052H40.6405C41.4888 57.6493 44.4295 60.0667 47.9521 60.0667C51.4748 60.0667 54.4154 57.6493 55.2637 54.4052H57.4625C59.5434 54.4052 61.2667 52.6954 61.2667 50.6308V43.7313C61.2649 42.0491 60.6965 40.4158 59.652 39.0909C58.6074 37.7659 57.1466 36.8253 55.5015 36.4184L45.2169 33.8235L37.7874 25.0368C37.0767 24.1883 36.1865 23.5053 35.1799 23.0363C34.1734 22.5673 33.0752 22.3238 31.9632 22.323H12.9424ZM12.9424 26.0974H21.323V33.6461H5.86854L9.79254 27.8072V27.7487C10.1372 27.2351 10.6056 26.8151 11.1553 26.5267C11.7051 26.2383 12.3187 26.0908 12.9405 26.0974H12.9424ZM25.1271 26.0974H31.9632C33.0911 26.0974 34.1544 26.5918 34.8753 27.4543L40.106 33.6461H25.1271V26.0974ZM4.20422 37.4205H43.9102L54.6094 40.0739C55.4304 40.276 56.1587 40.747 56.6764 41.4107C57.1942 42.0744 57.4711 42.892 57.4625 43.7313V50.6308H55.2637C54.4154 47.3867 51.4748 44.9692 47.9521 44.9692C44.4295 44.9692 41.4888 47.3867 40.6405 50.6308H22.9283C22.08 47.3867 19.1394 44.9692 15.6167 44.9692C12.2443 44.9692 9.41212 47.181 8.42494 50.2175L4.20422 49.1588V37.4205ZM15.6167 48.7436C17.7413 48.7436 19.4209 50.41 19.4209 52.518C19.4209 54.626 17.7413 56.2924 15.6167 56.2924C13.4921 56.2924 11.8125 54.626 11.8125 52.518C11.8125 50.41 13.4921 48.7436 15.6167 48.7436ZM47.9521 48.7436C50.0767 48.7436 51.7563 50.41 51.7563 52.518C51.7563 54.626 50.0767 56.2924 47.9521 56.2924C45.8275 56.2924 44.1479 54.626 44.1479 52.518C44.1479 50.41 45.8275 48.7436 47.9521 48.7436Z" fill="#FFC41E"/>
</svg>
