<svg width="90" height="66" viewBox="0 0 90 66" fill="none" xmlns="http://www.w3.org/2000/svg">
<path fill-rule="evenodd" clip-rule="evenodd" d="M35.474 5.97542C35.474 4.63479 36.0036 3.34908 36.9464 2.40112C37.8892 1.45315 39.1679 0.920593 40.5011 0.920593L70.6639 0.920593C71.9972 0.920593 73.2759 1.45315 74.2187 2.40112C75.1614 3.34908 75.6911 4.63479 75.6911 5.97542V18.6125H35.474V5.97542ZM64.38 8.50283C64.0467 8.50283 63.727 8.63597 63.4913 8.87296C63.2556 9.10995 63.1232 9.43138 63.1232 9.76653V12.2939C63.1232 12.6291 63.2556 12.9505 63.4913 13.1875C63.727 13.4245 64.0467 13.5577 64.38 13.5577L69.4072 13.5577C69.7405 13.5577 70.0601 13.4245 70.2958 13.1875C70.5315 12.9505 70.6639 12.6291 70.6639 12.2939V9.76653C70.6639 9.43138 70.5315 9.10995 70.2958 8.87296C70.0601 8.63597 69.7405 8.50283 69.4072 8.50283H64.38Z" fill="#FFC41E"/>
<path d="M35.4736 23.6674V26.1948C35.4736 27.5354 36.0033 28.8211 36.946 29.7691C37.8888 30.717 39.1675 31.2496 40.5008 31.2496H70.6636C71.9969 31.2496 73.2755 30.717 74.2183 29.7691C75.1611 28.8211 75.6907 27.5354 75.6907 26.1948V23.6674H35.4736Z" fill="#FFC41E"/>
<path fill-rule="evenodd" clip-rule="evenodd" d="M3.98846 28.037V60.9841H10.8806V28.037H3.98846ZM1.95398 24.6243C1.2049 24.6243 0.597656 25.2354 0.597656 25.9893V63.0317C0.597656 63.7856 1.2049 64.3968 1.95398 64.3968H12.9151C13.6642 64.3968 14.2715 63.7856 14.2715 63.0317V25.9893C14.2715 25.2354 13.6642 24.6243 12.9151 24.6243H1.95398Z" fill="#242424"/>
<path fill-rule="evenodd" clip-rule="evenodd" d="M16.887 31.3777H20.2778V56.0847C22.5301 56.1769 24.2079 56.4469 25.8598 56.7432C26.0602 56.7791 26.2598 56.8153 26.4596 56.8516C28.2601 57.1784 30.0807 57.5088 32.7642 57.6778L32.9702 57.6907L33.1672 57.7531C43.6718 61.0794 49.7767 62.0774 54.4457 61.6216C59.0588 61.1714 62.4369 59.2951 67.5948 56.2817C71.2398 54.1522 77.2708 49.4647 81.5427 45.9374C84.3692 43.113 85.3677 41.5741 85.6372 40.7531C85.6954 40.5756 85.706 40.4683 85.7069 40.4152C85.7077 40.3674 85.7011 40.3442 85.6956 40.3284C85.6781 40.2787 85.6179 40.1594 85.3488 39.8878C84.8205 39.3547 84.3769 39.1317 84.0125 39.0434C83.6457 38.9544 83.2182 38.9678 82.6688 39.1359C81.4723 39.5021 80.0765 40.4661 78.2177 41.8729C77.9788 42.0537 77.7342 42.2405 77.4836 42.4318C74.0625 45.0436 69.5492 48.4893 63.7466 48.9075C59.2935 49.2285 53.3659 49.0189 48.1676 48.7379C46.073 48.6247 44.1129 48.5014 42.4 48.3936C39.7804 48.2287 37.7392 48.1002 36.68 48.1002V44.6875C37.8365 44.6875 40.0785 44.8281 42.8294 45.0007C44.5216 45.1069 46.4064 45.2251 48.3495 45.3302C53.5514 45.6113 59.2867 45.8075 63.5044 45.5035C68.2635 45.1605 72.0131 42.3111 75.5673 39.6102C75.772 39.4546 75.9761 39.2995 76.1798 39.1454C77.9405 37.8128 79.8124 36.4431 81.6824 35.8708C82.6663 35.5697 83.7217 35.4625 84.8066 35.7256C85.8937 35.9891 86.8703 36.5905 87.7496 37.4779C88.124 37.8556 88.6185 38.412 88.8919 39.1893C89.1837 40.0186 89.1594 40.9016 88.8568 41.8235C88.3049 43.5052 86.7366 45.5635 83.8729 48.4179L83.8168 48.4739L83.7557 48.5243C79.4908 52.0487 73.2261 56.9377 69.2971 59.2332C64.195 62.214 60.219 64.4868 54.773 65.0184C49.4164 65.5412 42.8065 64.3716 32.3453 61.0703C29.5698 60.8846 27.6278 60.5318 25.8602 60.2106C25.6598 60.1742 25.4618 60.1382 25.265 60.1029C23.3232 59.7547 21.4595 59.4638 18.5824 59.4638H16.887V31.3777Z" fill="#242424"/>
<path fill-rule="evenodd" clip-rule="evenodd" d="M19.8322 32.882C18.9508 32.9672 18.1262 33.0469 17.3727 33.1011L17.1312 29.697C17.7112 29.6554 18.4649 29.5834 19.3136 29.5024C20.7922 29.3612 22.5592 29.1924 24.1985 29.1084C25.5375 29.0398 26.9046 29.018 28.1631 29.102C29.3995 29.1846 30.644 29.3756 31.6807 29.7941C34.0172 30.7372 35.6383 32.2341 36.8756 33.4528C37.0318 33.6066 37.1782 33.7523 37.3172 33.8906C37.7544 34.3256 38.1188 34.6882 38.4868 35.0059C38.9602 35.4146 39.2983 35.6192 39.568 35.7101C41.9464 36.5125 45.1878 36.8724 48.3591 37.0549C49.8738 37.142 51.333 37.1872 52.6355 37.2276L52.7693 37.2317C54.0811 37.2724 55.2745 37.3102 56.1381 37.3895C56.4751 37.4204 56.8445 37.4493 57.238 37.4802C59.2298 37.6363 61.8372 37.8406 63.9826 38.5936C65.3074 39.0586 66.6351 39.7852 67.5968 40.9851C68.5909 42.2254 69.0614 43.8058 68.9366 45.6954C68.842 47.1279 67.7471 47.8999 66.9192 48.2756C66.0528 48.6688 64.955 48.8899 63.8092 49.0245C61.4856 49.2976 58.3996 49.2725 55.1631 49.1334C52.3251 49.0115 49.292 48.7976 46.4466 48.5969C46.0282 48.5674 45.6139 48.5381 45.2049 48.5095C41.9859 48.2844 39.1232 48.1002 37.0821 48.1002V44.6875C39.2638 44.6875 42.2512 44.8821 45.4399 45.105C45.8522 45.1339 46.2684 45.1632 46.6874 45.1928C49.5376 45.3938 52.5197 45.6041 55.3078 45.7239C58.5246 45.8621 61.3798 45.8742 63.416 45.6349C64.45 45.5134 65.1367 45.3409 65.5256 45.1645C65.5398 45.158 65.5531 45.1519 65.5655 45.1459C65.5736 44.1807 65.3083 43.5653 64.9576 43.1278C64.5369 42.6029 63.8537 42.1627 62.866 41.816C61.179 41.2238 59.1256 41.0584 57.1278 40.8974C56.6911 40.8622 56.2572 40.8272 55.8303 40.7881C55.0918 40.7203 54.0172 40.6847 52.6649 40.6428L52.5195 40.6383C51.2243 40.5982 49.7258 40.5518 48.1655 40.462C44.9651 40.2778 41.3311 39.9043 38.4904 38.9459C37.6164 38.651 36.8879 38.1218 36.2791 37.5961C35.8109 37.192 35.3294 36.7125 34.8739 36.2589C34.7483 36.1338 34.6247 36.0108 34.5039 35.8918C33.3286 34.7341 32.1036 33.6417 30.4185 32.9615C29.8674 32.7391 29.0349 32.5805 27.9385 32.5073C26.8643 32.4355 25.6428 32.4515 24.371 32.5167C22.7542 32.5996 21.2226 32.7476 19.8322 32.882ZM65.7306 45.0511C65.7312 45.0512 65.7266 45.0555 65.7149 45.0637C65.7241 45.055 65.73 45.051 65.7306 45.0511Z" fill="#242424"/>
</svg>
