<svg width="69" height="50" viewBox="0 0 69 50" fill="none" xmlns="http://www.w3.org/2000/svg">
<path fill-rule="evenodd" clip-rule="evenodd" d="M27.0784 4.66934C27.0784 3.64314 27.4855 2.65897 28.2103 1.93334C28.9351 1.2077 29.9181 0.800049 30.9431 0.800049L54.1315 0.800049C55.1565 0.800049 56.1395 1.2077 56.8643 1.93334C57.5891 2.65897 57.9963 3.64314 57.9963 4.66934V14.3426H27.0784V4.66934ZM49.3006 6.60398C49.0444 6.60398 48.7986 6.7059 48.6174 6.8873C48.4362 7.06871 48.3344 7.31475 48.3344 7.5713V9.50595C48.3344 9.7625 48.4362 10.0085 48.6174 10.1899C48.7986 10.3714 49.0444 10.4733 49.3006 10.4733H53.1653C53.4216 10.4733 53.6673 10.3714 53.8485 10.1899C54.0297 10.0085 54.1315 9.7625 54.1315 9.50595V7.5713C54.1315 7.31475 54.0297 7.06871 53.8485 6.8873C53.6673 6.7059 53.4216 6.60398 53.1653 6.60398H49.3006Z" fill="#FFC41E"/>
<path d="M27.0784 18.2119V20.1466C27.0784 21.1728 27.4855 22.1569 28.2103 22.8826C28.9351 23.6082 29.9181 24.0158 30.9431 24.0158H54.1315C55.1565 24.0158 56.1395 23.6082 56.8643 22.8826C57.5891 22.1569 57.9963 21.1728 57.9963 20.1466V18.2119H27.0784Z" fill="#FFC41E"/>
<path fill-rule="evenodd" clip-rule="evenodd" d="M3.20006 21.7981V46.2666H7.84547V21.7981H3.20006ZM1.73339 18.8647C0.923373 18.8647 0.266724 19.5214 0.266724 20.3314V47.7333C0.266724 48.5433 0.923373 49.2 1.73339 49.2H9.31214C10.1222 49.2 10.7788 48.5433 10.7788 47.7333V20.3314C10.7788 19.5214 10.1222 18.8647 9.31214 18.8647H1.73339Z" fill="#242424"/>
<path fill-rule="evenodd" clip-rule="evenodd" d="M12.6261 24.0156H15.5594V42.7018C17.2227 42.7783 18.4803 42.9798 19.7157 43.1996C19.87 43.2271 20.0235 43.2547 20.177 43.2824C21.5607 43.5315 22.9521 43.782 25.0055 43.9103L25.1835 43.9214L25.3536 43.9749C33.4259 46.5108 38.0929 47.2631 41.6481 46.9188C45.1548 46.5792 47.7233 45.1669 51.6912 42.867C54.4789 41.2512 59.1022 37.6872 62.3864 34.9971C64.5552 32.8462 65.2947 31.6983 65.488 31.114C65.5298 30.9878 65.5343 30.9218 65.533 30.8958C65.5301 30.8892 65.5204 30.87 65.4956 30.836C65.4595 30.7864 65.4023 30.72 65.3063 30.6239C64.9173 30.2344 64.6018 30.0822 64.3561 30.0231C64.1083 29.9635 63.8094 29.9693 63.4078 30.0912C62.5201 30.3607 61.4699 31.0767 60.0363 32.1532C59.8518 32.2917 59.6625 32.4351 59.4684 32.5821C56.843 34.5714 53.3364 37.2281 48.8254 37.5507C45.3908 37.7964 40.8246 37.6359 36.8286 37.4216C35.2108 37.3348 33.7003 37.2405 32.3827 37.1582C30.3753 37.0328 28.8155 36.9354 28.0058 36.9354V34.0021C28.8996 34.0021 30.6328 34.1099 32.7536 34.2419C34.0534 34.3228 35.4988 34.4127 36.9856 34.4925C40.9849 34.7069 45.385 34.8559 48.6162 34.6249C52.2255 34.3668 55.0719 32.2213 57.8128 30.1554C57.9671 30.0391 58.1211 29.923 58.2749 29.8075C59.6239 28.7946 61.0858 27.7307 62.5556 27.2844C63.3327 27.0484 64.1739 26.9623 65.0421 27.1711C65.9123 27.3804 66.6886 27.857 67.3817 28.5509C67.6745 28.8441 68.0759 29.2896 68.2987 29.9179C68.5375 30.5911 68.5151 31.3033 68.2729 32.0353C67.8348 33.3596 66.6018 34.9539 64.4007 37.1307L64.3521 37.1787L64.2992 37.222C61.0209 39.9097 56.1955 43.6466 53.1622 45.4048C49.2424 47.6769 46.1572 49.4292 41.9308 49.8384C37.7819 50.2402 32.6788 49.341 24.6434 46.8263C22.5106 46.6837 21.0146 46.414 19.6593 46.1697C19.5052 46.1419 19.353 46.1145 19.2019 46.0876C17.7138 45.8228 16.2914 45.6026 14.0928 45.6026H12.6261V24.0156ZM65.5308 30.8824C65.5313 30.8821 65.5325 30.886 65.533 30.8951C65.5305 30.8873 65.5303 30.8827 65.5308 30.8824Z" fill="#242424"/>
<path fill-rule="evenodd" clip-rule="evenodd" d="M14.5746 25.3349C13.9903 25.39 13.4492 25.441 12.9688 25.478L12.7435 22.5533C13.1375 22.523 13.6284 22.4769 14.1815 22.425C15.3773 22.3127 16.8636 22.1731 18.2878 22.1066C19.3489 22.0571 20.4352 22.0437 21.4321 22.1109C22.4073 22.1766 23.4008 22.325 24.2227 22.6542C26.0502 23.3861 27.3155 24.547 28.2697 25.4796C28.3918 25.5988 28.5055 25.711 28.613 25.8172C28.9477 26.1476 29.2223 26.4187 29.5005 26.6569C29.8578 26.963 30.099 27.1035 30.2775 27.1633C32.0839 27.7679 34.5571 28.0417 36.9937 28.1808C38.156 28.2472 39.276 28.2816 40.2777 28.3124L40.38 28.3155C41.3865 28.3465 42.3096 28.3754 42.9794 28.4364C43.2346 28.4596 43.5157 28.4814 43.816 28.5048C45.3459 28.6235 47.3772 28.7811 49.0486 29.3632C50.083 29.7234 51.1348 30.2912 51.9004 31.2389C52.6943 32.2215 53.0653 33.4697 52.9669 34.9471C52.888 36.133 51.9744 36.7601 51.3195 37.055C50.6306 37.3651 49.7671 37.536 48.8809 37.6394C47.0809 37.8492 44.6975 37.8295 42.2085 37.7234C40.0242 37.6302 37.69 37.4669 35.5027 37.3138C35.1811 37.2913 34.8627 37.269 34.5485 37.2472C32.0724 37.0755 29.8775 36.9355 28.3151 36.9355V34.0021C29.999 34.0021 32.3016 34.151 34.7515 34.3209C35.0686 34.343 35.3887 34.3653 35.711 34.3879C37.9023 34.5412 40.1924 34.7014 42.3334 34.7927C44.8055 34.8981 46.9895 34.9067 48.5412 34.7258C49.271 34.6407 49.7605 34.5239 50.0485 34.4085C50.0349 33.7693 49.8489 33.3672 49.6187 33.0822C49.3215 32.7144 48.8274 32.3922 48.084 32.1334C46.8086 31.6892 45.256 31.5649 43.7209 31.442C43.3832 31.4149 43.0464 31.388 42.7136 31.3577C42.1518 31.3065 41.3313 31.2795 40.2898 31.2474L40.1775 31.244C39.1821 31.2134 38.0282 31.178 36.8265 31.1094C34.3648 30.9688 31.5523 30.6833 29.3464 29.9449C28.6456 29.7104 28.0669 29.2912 27.5922 28.8847C27.2274 28.5722 26.8514 28.2007 26.5008 27.8543C26.4049 27.7596 26.3109 27.6667 26.2196 27.5775C25.3191 26.6975 24.3964 25.8836 23.1321 25.3773C22.7334 25.2176 22.0989 25.0958 21.2349 25.0376C20.3926 24.9809 19.4286 24.9899 18.4245 25.0368C17.0631 25.1003 15.7339 25.2256 14.5746 25.3349ZM50.2415 34.3133C50.2419 34.3133 50.2385 34.316 50.2304 34.3212C50.2372 34.3158 50.2412 34.3132 50.2415 34.3133Z" fill="#242424"/>
</svg>
