<svg width="57" height="42" viewBox="0 0 57 42" fill="none" xmlns="http://www.w3.org/2000/svg">
<path fill-rule="evenodd" clip-rule="evenodd" d="M22.6531 4.03108C22.6531 3.18929 22.9852 2.38198 23.5765 1.78675C24.1677 1.19151 24.9696 0.857117 25.8057 0.857117L44.7213 0.857117C45.5575 0.857117 46.3593 1.19151 46.9506 1.78675C47.5418 2.38198 47.874 3.18929 47.874 4.03108V11.966H22.6531V4.03108ZM40.7806 5.61805C40.5715 5.61805 40.3711 5.70165 40.2233 5.85046C40.0755 5.99927 39.9924 6.2011 39.9924 6.41154V7.99852C39.9924 8.20897 40.0755 8.4108 40.2233 8.55961C40.3711 8.70841 40.5715 8.79201 40.7806 8.79201H43.9332C44.1422 8.79201 44.3427 8.70841 44.4905 8.55961C44.6383 8.4108 44.7213 8.20897 44.7213 7.99852V6.41154C44.7213 6.2011 44.6383 5.99927 44.4905 5.85046C44.3427 5.70165 44.1422 5.61805 43.9332 5.61805H40.7806Z" fill="#FFC41E"/>
<path d="M22.6528 15.14V16.7269C22.6528 17.5687 22.985 18.376 23.5762 18.9713C24.1674 19.5665 24.9693 19.9009 25.8054 19.9009H44.7211C45.5572 19.9009 46.3591 19.5665 46.9503 18.9713C47.5416 18.376 47.8737 17.5687 47.8737 16.7269V15.14H22.6528Z" fill="#FFC41E"/>
<path fill-rule="evenodd" clip-rule="evenodd" d="M2.90793 17.8836V38.5714H7.23015V17.8836H2.90793ZM1.63207 15.7408C1.16231 15.7408 0.781494 16.1245 0.781494 16.5979V39.8571C0.781494 40.3305 1.16231 40.7142 1.63207 40.7142H8.50601C8.97577 40.7142 9.35659 40.3305 9.35659 39.8571V16.5979C9.35659 16.1245 8.97577 15.7408 8.50601 15.7408H1.63207Z" fill="#242424"/>
<path fill-rule="evenodd" clip-rule="evenodd" d="M10.9968 19.9813H13.1233V35.495C14.5357 35.5529 15.5879 35.7225 16.6238 35.9085C16.7496 35.931 16.8747 35.9538 17 35.9766C18.1291 36.1818 19.2708 36.3892 20.9537 36.4953L21.0829 36.5035L21.2064 36.5426C27.7941 38.6312 31.6226 39.2579 34.5506 38.9717C37.4436 38.689 39.5621 37.5109 42.7967 35.6187C45.0825 34.2816 48.8646 31.3383 51.5436 29.1235C53.3162 27.35 53.9424 26.3837 54.1114 25.8682C54.1479 25.7568 54.1546 25.6894 54.1551 25.6561C54.1556 25.626 54.1515 25.6114 54.148 25.6015C54.137 25.5703 54.0993 25.4954 53.9305 25.3249C53.5992 24.9902 53.321 24.8501 53.0925 24.7947C52.8625 24.7388 52.5944 24.7472 52.2499 24.8528C51.4995 25.0827 50.6242 25.688 49.4585 26.5713C49.3087 26.6849 49.1552 26.8022 48.9981 26.9223C46.8527 28.5622 44.0223 30.7258 40.3834 30.9884C37.5907 31.19 33.8734 31.0584 30.6135 30.882C29.2999 30.8109 28.0707 30.7334 26.9966 30.6657C25.3537 30.5622 24.0737 30.4815 23.4094 30.4815V28.3386C24.1347 28.3386 25.5407 28.427 27.2658 28.5353C28.327 28.602 29.509 28.6762 30.7276 28.7422C33.9898 28.9187 37.5865 29.0419 40.2315 28.851C43.216 28.6356 45.5674 26.8465 47.7963 25.1506C47.9247 25.0529 48.0528 24.9555 48.1805 24.8587C49.2846 24.022 50.4585 23.1619 51.6312 22.8026C52.2483 22.6135 52.9102 22.5462 53.5905 22.7114C54.2723 22.8769 54.8847 23.2545 55.4361 23.8117C55.6709 24.0489 55.981 24.3982 56.1525 24.8863C56.3355 25.407 56.3202 25.9615 56.1305 26.5403C55.7844 27.5963 54.8008 28.8887 53.0049 30.681L52.9697 30.7161L52.9315 30.7478C50.2568 32.9608 46.3282 36.0306 43.8642 37.472C40.6646 39.3436 38.1711 40.7708 34.7559 41.1045C31.3966 41.4328 27.2514 40.6984 20.691 38.6256C18.9505 38.5089 17.7326 38.2874 16.6241 38.0857C16.4985 38.0629 16.3742 38.0403 16.2508 38.0181C15.0331 37.7994 13.8644 37.6168 12.06 37.6168H10.9968V19.9813Z" fill="#242424"/>
<path fill-rule="evenodd" clip-rule="evenodd" d="M12.8437 20.9259C12.291 20.9794 11.7739 21.0295 11.3013 21.0635L11.1499 18.926C11.5136 18.8999 11.9863 18.8547 12.5185 18.8038C13.4458 18.7152 14.5539 18.6092 15.5819 18.5564C16.4217 18.5134 17.279 18.4997 18.0682 18.5524C18.8436 18.6043 19.624 18.7242 20.2741 18.987C21.7394 19.5792 22.7561 20.5191 23.532 21.2843C23.6299 21.3809 23.7217 21.4724 23.8089 21.5592C24.0831 21.8324 24.3116 22.06 24.5424 22.2595C24.8393 22.5162 25.0513 22.6446 25.2204 22.7017C26.712 23.2055 28.7447 23.4315 30.7335 23.5461C31.6834 23.6008 32.5984 23.6292 33.4153 23.6545L33.4992 23.6571C34.3218 23.6826 35.0702 23.7064 35.6118 23.7562C35.8232 23.7756 36.0549 23.7938 36.3016 23.8131C37.5507 23.9111 39.1858 24.0394 40.5313 24.5123C41.3621 24.8042 42.1947 25.2605 42.7978 26.0139C43.4212 26.7927 43.7163 27.785 43.638 28.9715C43.5787 29.871 42.8921 30.3558 42.3729 30.5917C41.8295 30.8385 41.1411 30.9774 40.4225 31.0619C38.9654 31.2334 37.03 31.2176 35.0004 31.1303C33.2206 31.0537 31.3186 30.9194 29.5341 30.7934C29.2717 30.7749 29.0119 30.7565 28.7554 30.7385C26.7367 30.5972 24.9415 30.4815 23.6615 30.4815V28.3387C25.0297 28.3387 26.9031 28.4608 28.9028 28.6008C29.1613 28.6189 29.4224 28.6374 29.6852 28.6559C31.4725 28.7821 33.3427 28.9142 35.0911 28.9894C37.1085 29.0762 38.899 29.0838 40.1759 28.9335C40.8244 28.8572 41.255 28.749 41.4989 28.6382C41.5078 28.6341 41.5161 28.6302 41.524 28.6265C41.529 28.0204 41.3627 27.6341 41.1427 27.3593C40.8789 27.0297 40.4505 26.7533 39.831 26.5356C38.7731 26.1638 37.4853 26.0599 36.2325 25.9588C35.9587 25.9367 35.6865 25.9148 35.4188 25.8902C34.9557 25.8476 34.2818 25.8253 33.4338 25.799L33.3426 25.7961C32.5303 25.771 31.5906 25.7418 30.6121 25.6854C28.605 25.5698 26.3261 25.3352 24.5446 24.7335C23.9965 24.5483 23.5397 24.216 23.1579 23.886C22.8643 23.6322 22.5623 23.3311 22.2766 23.0463C22.1979 22.9678 22.1204 22.8905 22.0446 22.8158C21.3076 22.0889 20.5394 21.4029 19.4826 20.9758C19.137 20.8362 18.6149 20.7366 17.9274 20.6906C17.2537 20.6455 16.4877 20.6556 15.6901 20.6965C14.6762 20.7486 13.7157 20.8415 12.8437 20.9259ZM41.6275 28.567C41.6278 28.567 41.6249 28.5697 41.6176 28.5749C41.6234 28.5694 41.6271 28.5669 41.6275 28.567Z" fill="#242424"/>
</svg>
