<svg width="51" height="37" viewBox="0 0 51 37" fill="none" xmlns="http://www.w3.org/2000/svg">
<path fill-rule="evenodd" clip-rule="evenodd" d="M19.9658 3.21393C19.9658 2.4676 20.2619 1.75184 20.7891 1.22411C21.3162 0.696379 22.0311 0.399902 22.7765 0.399902L39.6408 0.399902C40.3863 0.399902 41.1012 0.696379 41.6283 1.22411C42.1554 1.75184 42.4516 2.4676 42.4516 3.21393V10.249H19.9658V3.21393ZM36.1274 4.62094C35.9411 4.62094 35.7624 4.69506 35.6306 4.827C35.4988 4.95893 35.4248 5.13787 35.4248 5.32445V6.73146C35.4248 6.91805 35.4988 7.09699 35.6306 7.22892C35.7624 7.36085 35.9411 7.43497 36.1274 7.43497H38.9382C39.1245 7.43497 39.3033 7.36085 39.435 7.22892C39.5668 7.09699 39.6408 6.91805 39.6408 6.73146V5.32445C39.6408 5.13787 39.5668 4.95893 39.435 4.827C39.3033 4.69506 39.1245 4.62094 38.9382 4.62094H36.1274Z" fill="#FFC41E"/>
<path d="M19.9658 13.063V14.47C19.9658 15.2163 20.2619 15.9321 20.7891 16.4598C21.3162 16.9876 22.0311 17.284 22.7765 17.284H39.6408C40.3863 17.284 41.1012 16.9876 41.6283 16.4598C42.1554 15.9321 42.4516 15.2163 42.4516 14.47V13.063H19.9658Z" fill="#FFC41E"/>
<path fill-rule="evenodd" clip-rule="evenodd" d="M2.59989 15.6714V33.4667H5.97837V15.6714H2.59989ZM1.53322 13.5381C0.944116 13.5381 0.466553 14.0156 0.466553 14.6048V34.5334C0.466553 35.1225 0.944116 35.6001 1.53322 35.6001H7.04504C7.63414 35.6001 8.1117 35.1225 8.1117 34.5334V14.6048C8.1117 14.0156 7.63414 13.5381 7.04504 13.5381H1.53322Z" fill="#242424"/>
<path fill-rule="evenodd" clip-rule="evenodd" d="M9.45508 17.2839H11.5884V30.8739C12.7981 30.9295 13.7127 31.0761 14.6112 31.2359C14.7234 31.2559 14.835 31.276 14.9467 31.2961C15.953 31.4773 16.9649 31.6595 18.4582 31.7528L18.5877 31.7609L18.7115 31.7997C24.5822 33.6441 27.9764 34.1912 30.562 33.9408C33.1123 33.6938 34.9803 32.6667 37.866 30.994C39.8935 29.8189 43.2559 27.2269 45.6444 25.2705C47.2217 23.7062 47.7595 22.8714 47.9001 22.4464C47.9305 22.3546 47.9338 22.3066 47.9328 22.2877C47.9307 22.2829 47.9237 22.269 47.9056 22.2442C47.8793 22.2081 47.8378 22.1598 47.768 22.0899C47.485 21.8067 47.2556 21.696 47.0769 21.653C46.8967 21.6097 46.6793 21.6138 46.3872 21.7025C45.7416 21.8986 44.9779 22.4192 43.9352 23.2022C43.801 23.3029 43.6634 23.4072 43.5222 23.5141C41.6128 24.9608 39.0626 26.893 35.7819 27.1277C33.284 27.3063 29.9631 27.1896 27.0569 27.0337C25.8803 26.9706 24.7818 26.902 23.8235 26.8422C22.3636 26.751 21.2292 26.6801 20.6403 26.6801V24.5468C21.2903 24.5468 22.5509 24.6252 24.0933 24.7212C25.0386 24.7801 26.0898 24.8455 27.1711 24.9035C30.0797 25.0594 33.2797 25.1678 35.6297 24.9998C38.2547 24.812 40.3248 23.2517 42.3181 21.7492C42.4304 21.6646 42.5424 21.5802 42.6542 21.4962C43.6353 20.7596 44.6985 19.9858 45.7674 19.6612C46.3326 19.4896 46.9444 19.427 47.5758 19.5788C48.2087 19.7311 48.7733 20.0777 49.2773 20.5823C49.4903 20.7955 49.7822 21.1196 49.9443 21.5765C50.1179 22.0661 50.1016 22.5841 49.9255 23.1164C49.6069 24.0795 48.7101 25.2391 47.1093 26.8221L47.074 26.8571L47.0355 26.8886C44.6513 28.8433 41.1419 31.561 38.9359 32.8397C36.0851 34.4921 33.8413 35.7665 30.7676 36.0642C27.7502 36.3564 24.0388 35.7024 18.195 33.8735C16.6438 33.7698 15.5558 33.5737 14.5701 33.396C14.4581 33.3758 14.3474 33.3558 14.2375 33.3363C13.1552 33.1437 12.1208 32.9835 10.5217 32.9835H9.45508V17.2839ZM47.9312 22.278C47.9316 22.2777 47.9324 22.2805 47.9328 22.2872C47.931 22.2815 47.9308 22.2782 47.9312 22.278Z" fill="#242424"/>
<path fill-rule="evenodd" clip-rule="evenodd" d="M10.8724 18.2434C10.4475 18.2835 10.054 18.3206 9.70458 18.3475L9.54077 16.2204C9.82729 16.1984 10.1843 16.1648 10.5866 16.1271C11.4563 16.0454 12.5372 15.9439 13.5729 15.8956C14.3447 15.8595 15.1347 15.8498 15.8597 15.8987C16.5689 15.9464 17.2915 16.0544 17.8892 16.2938C19.2183 16.826 20.1386 17.6704 20.8326 18.3486C20.9213 18.4353 21.004 18.5169 21.0822 18.5941C21.3256 18.8344 21.5254 19.0316 21.7276 19.2048C21.9875 19.4274 22.1629 19.5297 22.2927 19.5731C23.6065 20.0128 25.4052 20.212 27.1773 20.3131C28.0226 20.3614 28.8371 20.3864 29.5656 20.4088L29.64 20.4111C30.372 20.4336 31.0434 20.4547 31.5305 20.499C31.7161 20.5159 31.9205 20.5318 32.1389 20.5487C33.2516 20.6351 34.7289 20.7497 35.9445 21.173C36.6968 21.435 37.4617 21.848 38.0185 22.5372C38.5959 23.2518 38.8657 24.1596 38.7942 25.2341C38.7367 26.0965 38.0724 26.5526 37.596 26.7671C37.095 26.9926 36.467 27.1169 35.8225 27.1921C34.5134 27.3447 32.78 27.3303 30.9698 27.2532C29.3813 27.1855 27.6837 27.0667 26.0929 26.9553C25.859 26.939 25.6275 26.9228 25.3989 26.9069C23.5981 26.782 22.0019 26.6802 20.8655 26.6802V24.5468C22.0902 24.5468 23.7648 24.6551 25.5466 24.7787C25.7772 24.7947 26.01 24.811 26.2444 24.8274C27.838 24.9389 29.5036 25.0554 31.0607 25.1218C32.8586 25.1984 34.447 25.2047 35.5754 25.0731C36.1062 25.0112 36.4622 24.9263 36.6717 24.8424C36.6618 24.3775 36.5265 24.085 36.3591 23.8778C36.1429 23.6103 35.7836 23.376 35.2429 23.1877C34.3154 22.8647 33.1862 22.7743 32.0698 22.6849C31.8242 22.6652 31.5792 22.6456 31.3372 22.6236C30.9286 22.5864 30.3319 22.5667 29.5744 22.5434L29.4927 22.5409C28.7688 22.5187 27.9296 22.4929 27.0557 22.443C25.2653 22.3408 23.2199 22.1331 21.6156 21.5961C21.1059 21.4255 20.685 21.1207 20.3398 20.825C20.0745 20.5978 19.8011 20.3276 19.546 20.0757C19.4763 20.0068 19.408 19.9393 19.3415 19.8743C18.6867 19.2344 18.0156 18.6424 17.0961 18.2742C16.8061 18.1581 16.3447 18.0695 15.7163 18.0272C15.1037 17.9859 14.4026 17.9925 13.6724 18.0266C12.6823 18.0728 11.7156 18.1639 10.8724 18.2434ZM36.8121 24.7731C36.8123 24.7732 36.8099 24.7751 36.804 24.7788C36.8089 24.7749 36.8118 24.7731 36.8121 24.7731Z" fill="#242424"/>
</svg>
