<svg width="48" height="36" viewBox="0 0 48 36" fill="none" xmlns="http://www.w3.org/2000/svg">
<path fill-rule="evenodd" clip-rule="evenodd" d="M18.948 3.54493C18.948 2.82785 19.2308 2.14014 19.7341 1.63309C20.2375 1.12604 20.9201 0.841187 21.632 0.841187L37.7358 0.841187C38.4477 0.841187 39.1304 1.12604 39.6337 1.63309C40.137 2.14014 40.4198 2.82785 40.4198 3.54493V10.3043H18.948V3.54493ZM34.3809 4.8968C34.2029 4.8968 34.0322 4.96802 33.9064 5.09478C33.7806 5.22154 33.7099 5.39347 33.7099 5.57274V6.92461C33.7099 7.10388 33.7806 7.2758 33.9064 7.40257C34.0322 7.52933 34.2029 7.60054 34.3809 7.60054L37.0648 7.60054C37.2428 7.60054 37.4135 7.52933 37.5393 7.40257C37.6651 7.2758 37.7358 7.10388 37.7358 6.92461V5.57274C37.7358 5.39347 37.6651 5.22154 37.5393 5.09478C37.4135 4.96802 37.2428 4.8968 37.0648 4.8968L34.3809 4.8968Z" fill="#FFC41E"/>
<path d="M18.9478 13.0081V14.3599C18.9478 15.077 19.2305 15.7647 19.7339 16.2718C20.2372 16.7788 20.9199 17.0637 21.6317 17.0637H37.7356C38.4474 17.0637 39.1301 16.7788 39.6335 16.2718C40.1368 15.7647 40.4196 15.077 40.4196 14.3599V13.0081H18.9478Z" fill="#FFC41E"/>
<path fill-rule="evenodd" clip-rule="evenodd" d="M2.13798 15.3453V32.9682H5.81771V15.3453H2.13798ZM1.05177 13.5199C0.651844 13.5199 0.327637 13.8468 0.327637 14.2501V34.0634C0.327637 34.4667 0.651844 34.7936 1.05177 34.7936H6.90392C7.30385 34.7936 7.62805 34.4667 7.62805 34.0634V14.2501C7.62805 13.8468 7.30385 13.5199 6.90392 13.5199H1.05177Z" fill="#242424"/>
<path fill-rule="evenodd" clip-rule="evenodd" d="M9.02441 17.1322H10.8348V30.3476C12.0373 30.3969 12.933 30.5413 13.815 30.6998C13.922 30.719 14.0285 30.7384 14.1352 30.7578C15.0965 30.9326 16.0685 31.1093 17.5012 31.1997L17.6112 31.2066L17.7164 31.24C23.3248 33.0192 26.5842 33.553 29.077 33.3092C31.5399 33.0683 33.3435 32.0648 36.0973 30.4529C38.0433 29.3139 41.2632 26.8067 43.544 24.92C45.0531 23.4092 45.5862 22.5861 45.73 22.147C45.7611 22.052 45.7668 21.9946 45.7673 21.9662C45.7677 21.9407 45.7642 21.9282 45.7612 21.9198C45.7519 21.8932 45.7198 21.8294 45.5761 21.6841C45.294 21.399 45.0572 21.2797 44.8626 21.2324C44.6668 21.1849 44.4385 21.192 44.1452 21.2819C43.5064 21.4778 42.7612 21.9934 41.7688 22.7459C41.6413 22.8426 41.5106 22.9425 41.3769 23.0448C39.5503 24.4419 37.1407 26.2849 34.0427 26.5086C31.6652 26.6803 28.5004 26.5682 25.7251 26.4179C24.6068 26.3574 23.5603 26.2914 22.6458 26.2337C21.2472 26.1455 20.1574 26.0768 19.5919 26.0768V24.2514C20.2093 24.2514 21.4064 24.3266 22.8751 24.4189C23.7785 24.4757 24.7848 24.539 25.8222 24.5952C28.5995 24.7455 31.6616 24.8505 33.9134 24.6879C36.4542 24.5044 38.4562 22.9803 40.3537 21.5356C40.463 21.4524 40.572 21.3694 40.6807 21.287C41.6208 20.5742 42.6202 19.8416 43.6186 19.5355C44.1439 19.3744 44.7074 19.3171 45.2866 19.4578C45.867 19.5988 46.3884 19.9205 46.8579 20.3951C47.0577 20.5971 47.3217 20.8948 47.4677 21.3105C47.6235 21.7541 47.6105 22.2264 47.449 22.7195C47.1543 23.619 46.317 24.72 44.7881 26.2467L44.7581 26.2767L44.7255 26.3037C42.4485 28.1888 39.1038 30.8038 37.0061 32.0316C34.2821 33.626 32.1593 34.8417 29.2517 35.1261C26.3918 35.4057 22.8628 34.7801 17.2776 33.0143C15.7958 32.915 14.7589 32.7262 13.8152 32.5545C13.7082 32.535 13.6025 32.5157 13.4974 32.4969C12.4607 32.3106 11.4657 32.155 9.92959 32.155H9.02441V17.1322Z" fill="#242424"/>
<path fill-rule="evenodd" clip-rule="evenodd" d="M10.5968 17.9368C10.1263 17.9823 9.68601 18.025 9.28369 18.0539L9.15479 16.2332C9.46444 16.2109 9.86683 16.1724 10.3199 16.129C11.1094 16.0535 12.0528 15.9633 12.928 15.9183C13.6429 15.8816 14.3728 15.87 15.0447 15.9149C15.7048 15.9591 16.3692 16.0612 16.9227 16.2851C18.1702 16.7896 19.0357 17.5902 19.6963 18.2421C19.7797 18.3244 19.8578 18.4023 19.9321 18.4763C20.1655 18.7089 20.36 18.9029 20.5565 19.0728C20.8092 19.2914 20.9898 19.4008 21.1338 19.4495C22.4036 19.8787 24.1341 20.0711 25.8273 20.1688C26.636 20.2154 27.415 20.2396 28.1104 20.2611L28.1819 20.2633C28.8822 20.2851 29.5194 20.3054 29.9805 20.3477C30.1604 20.3643 30.3577 20.3798 30.5677 20.3962C31.6311 20.4797 33.0232 20.589 34.1687 20.9918C34.8759 21.2405 35.5848 21.6292 36.0983 22.271C36.629 22.9344 36.8802 23.7797 36.8136 24.7904C36.7631 25.5567 36.1785 25.9696 35.7365 26.1706C35.2739 26.3808 34.6878 26.4991 34.0761 26.5711C32.8355 26.7172 31.1879 26.7038 29.46 26.6294C27.9447 26.5642 26.3254 26.4497 24.8062 26.3424C24.5828 26.3266 24.3616 26.311 24.1432 26.2957C22.4246 26.1753 20.8963 26.0767 19.8065 26.0767V24.2513C20.9714 24.2513 22.5663 24.3554 24.2687 24.4747C24.4889 24.4901 24.7111 24.5058 24.9348 24.5216C26.4565 24.6291 28.0486 24.7416 29.5372 24.8057C31.2547 24.8796 32.779 24.8861 33.8661 24.7581C34.4182 24.6931 34.7848 24.6008 34.9925 24.5065C35 24.503 35.0071 24.4997 35.0138 24.4965C35.0181 23.9802 34.8765 23.6511 34.6892 23.4171C34.4646 23.1363 34.0999 22.9008 33.5725 22.7154C32.6718 22.3987 31.5755 22.3102 30.5089 22.2241C30.2758 22.2052 30.0441 22.1865 29.8161 22.1656C29.4219 22.1294 28.8481 22.1103 28.1262 22.0879L28.0485 22.0855C27.357 22.064 26.557 22.0392 25.7239 21.9912C24.0152 21.8927 22.0751 21.6929 20.5584 21.1802C20.0918 21.0225 19.7028 20.7394 19.3778 20.4583C19.1278 20.2421 18.8707 19.9856 18.6276 19.743C18.5605 19.6761 18.4945 19.6103 18.43 19.5466C17.8025 18.9274 17.1485 18.3431 16.2488 17.9793C15.9546 17.8603 15.5102 17.7755 14.9248 17.7363C14.3513 17.6979 13.6991 17.7065 13.0201 17.7414C12.1569 17.7857 11.3392 17.8649 10.5968 17.9368ZM35.1019 24.4458C35.1022 24.4459 35.0998 24.4482 35.0935 24.4525C35.0984 24.4479 35.1016 24.4457 35.1019 24.4458Z" fill="#242424"/>
</svg>
