<svg width="42" height="42" viewBox="0 0 42 42" fill="none" xmlns="http://www.w3.org/2000/svg">
<path d="M17.0104 16.2498C17.5996 14.5184 16.673 12.6365 14.9413 12.0472C13.2096 11.4579 11.3281 12.3842 10.7389 14.1156C10.1493 15.8483 11.0751 17.7292 12.8072 18.3186C14.5392 18.908 16.4208 17.9824 17.0104 16.2498Z" fill="white"/>
<path d="M30.37 17.9808C28.6386 17.3916 26.7568 18.3178 26.1677 20.0492C25.578 21.7819 26.5047 23.6624 28.2361 24.2516C29.9678 24.8409 31.8492 23.9159 32.4388 22.1833C33.028 20.4519 32.1021 18.5702 30.37 17.9808Z" fill="white"/>
<path d="M25.2676 23.6359C25.1411 23.2931 24.9384 22.8772 24.6951 22.4305C24.1667 20.8839 22.958 19.5882 21.2913 19.021C19.8079 18.5162 18.2606 18.6906 16.9776 19.3707C16.2837 19.6544 15.6529 19.9471 15.2227 20.218L14.9357 20.3966C13.5974 21.228 11.9317 22.2622 11.1118 24.7C10.3507 26.964 11.5656 29.4313 13.8203 30.1985C14.4455 30.4128 15.1118 30.4797 15.7671 30.3941C16.4225 30.3085 17.0492 30.0726 17.5984 29.7049C17.8092 30.3314 18.1621 30.9008 18.6293 31.3685C19.0966 31.8361 19.6657 32.1895 20.292 32.4009C22.5457 33.1678 25.0131 31.9539 25.7913 29.6954C26.6285 27.2635 25.9391 25.4278 25.386 23.9528L25.2676 23.6359Z" fill="white"/>
<path d="M22.19 17.0955C24.0977 17.7447 26.1706 16.7244 26.8198 14.8167C27.4689 12.909 26.4487 10.8361 24.5409 10.1869C22.6332 9.53775 20.5604 10.558 19.9112 12.4658C19.262 14.3735 20.2823 16.4463 22.19 17.0955Z" fill="white"/>
</svg>
