<svg width="55" height="52" viewBox="0 0 55 52" fill="none" xmlns="http://www.w3.org/2000/svg">
<path fill-rule="evenodd" clip-rule="evenodd" d="M27.2239 1.97743C27.5361 1.58916 28.1057 1.52609 28.4961 1.83656L54.2017 22.2773C54.5921 22.5878 54.6556 23.1542 54.3433 23.5425C54.0311 23.9308 53.4615 23.9938 53.0711 23.6834L27.3655 3.24261C26.9751 2.93214 26.9117 2.36569 27.2239 1.97743Z" fill="#242424"/>
<path fill-rule="evenodd" clip-rule="evenodd" d="M28.638 1.97743C28.9502 2.36569 28.8868 2.93214 28.4964 3.24261L2.79081 23.6834C2.40038 23.9938 1.83077 23.9308 1.51857 23.5425C1.20636 23.1542 1.26978 22.5878 1.66022 22.2773L27.3658 1.83656C27.7562 1.52609 28.3258 1.58916 28.638 1.97743Z" fill="#242424"/>
<path fill-rule="evenodd" clip-rule="evenodd" d="M9.93691 16.97C10.4368 16.97 10.8421 17.373 10.8421 17.8701V51.0864C10.8421 51.5835 10.4368 51.9865 9.93691 51.9865C9.437 51.9865 9.03174 51.5835 9.03174 51.0864V17.8701C9.03174 17.373 9.437 16.97 9.93691 16.97Z" fill="#242424"/>
<path fill-rule="evenodd" clip-rule="evenodd" d="M45.9247 16.97C46.4246 16.97 46.8299 17.373 46.8299 17.8701V51.0864C46.8299 51.5835 46.4246 51.9865 45.9247 51.9865C45.4248 51.9865 45.0195 51.5835 45.0195 51.0864V17.8701C45.0195 17.373 45.4248 16.97 45.9247 16.97Z" fill="#242424"/>
<path fill-rule="evenodd" clip-rule="evenodd" d="M9.03174 51.0864C9.03174 50.5893 9.437 50.1863 9.93691 50.1863H45.9247C46.4246 50.1863 46.8299 50.5893 46.8299 51.0864C46.8299 51.5836 46.4246 51.9866 45.9247 51.9866H9.93691C9.437 51.9866 9.03174 51.5836 9.03174 51.0864Z" fill="#242424"/>
<path d="M28.1159 29.2189L34.8212 31.5462V41.0402C34.8212 41.2246 34.7458 41.4014 34.6116 41.5319C34.4774 41.6623 34.2954 41.7355 34.1057 41.7355H31.2436C31.0538 41.7355 30.8718 41.6623 30.7377 41.5319C30.6035 41.4014 30.5281 41.2246 30.5281 41.0402V36.1726H23.3729V41.0402C23.3729 41.2246 23.2975 41.4014 23.1634 41.5319C23.0292 41.6623 22.8472 41.7355 22.6574 41.7355H19.7954C19.6056 41.7355 19.4236 41.6623 19.2894 41.5319C19.1552 41.4014 19.0798 41.2246 19.0798 41.0402V31.7435C17.4181 31.1677 16.2178 29.6388 16.2178 27.8282C16.2178 27.4594 16.3685 27.1056 16.6369 26.8448C16.9053 26.584 17.2693 26.4375 17.6488 26.4375C18.0283 26.4375 18.3923 26.584 18.6607 26.8448C18.9291 27.1056 19.0798 27.4594 19.0798 27.8282C19.0805 28.1968 19.2315 28.5502 19.4998 28.8108C19.768 29.0715 20.1316 29.2182 20.5109 29.2189H28.1159ZM39.1143 24.3514V25.7421C39.1143 26.4798 38.8127 27.1873 38.276 27.7089C37.7393 28.2305 37.0113 28.5236 36.2522 28.5236H34.8212V30.0699L29.0971 28.0833V21.5699C29.0971 20.9506 29.8671 20.6403 30.3184 21.0784L31.5383 22.2653H33.9366C34.4245 22.2653 34.9987 22.6095 35.2165 23.0341L35.5367 23.656H38.3988C38.5885 23.656 38.7705 23.7293 38.9047 23.8597C39.0389 23.9901 39.1143 24.1669 39.1143 24.3514ZM34.1057 24.3514C34.1057 24.2138 34.0637 24.0794 33.9851 23.965C33.9065 23.8507 33.7947 23.7616 33.664 23.7089C33.5332 23.6563 33.3894 23.6425 33.2506 23.6694C33.1118 23.6962 32.9843 23.7624 32.8842 23.8597C32.7841 23.9569 32.716 24.0808 32.6884 24.2157C32.6608 24.3506 32.6749 24.4904 32.7291 24.6175C32.7833 24.7445 32.875 24.8531 32.9926 24.9295C33.1103 25.0059 33.2486 25.0467 33.3902 25.0467C33.5799 25.0467 33.7619 24.9735 33.8961 24.8431C34.0303 24.7127 34.1057 24.5358 34.1057 24.3514Z" fill="#242424"/>
<path d="M23.1477 4.2753C22.7925 3.43867 22.2802 2.68053 21.6397 2.04331C20.9986 1.40419 20.2428 0.896293 19.4134 0.547233C18.5533 0.183843 17.6307 -0.00216132 16.6994 1.89473e-05C15.3928 1.89473e-05 14.1179 0.36393 13.0101 1.05132C12.745 1.21575 12.4933 1.39636 12.2547 1.59314C12.0162 1.39636 11.7644 1.21575 11.4994 1.05132C10.3915 0.36393 9.11671 1.89473e-05 7.81008 1.89473e-05C6.8692 1.89473e-05 5.95748 0.183322 5.09611 0.547233C4.2639 0.897666 3.51384 1.40175 2.86981 2.04331C2.22841 2.67981 1.71605 3.43813 1.36175 4.2753C0.993351 5.14599 0.805176 6.07059 0.805176 7.02215C0.805176 7.9198 0.9854 8.85519 1.3432 9.80675C1.64269 10.602 2.07205 11.4268 2.62067 12.2598C3.48999 13.5779 4.6853 14.9527 6.16951 16.3464C8.62904 18.6565 11.0647 20.2523 11.1681 20.317L11.7962 20.7268C12.0745 20.9074 12.4323 20.9074 12.7106 20.7268L13.3387 20.317C13.4421 20.2496 15.8751 18.6565 18.3373 16.3464C19.8215 14.9527 21.0168 13.5779 21.8861 12.2598C22.4348 11.4268 22.8668 10.602 23.1636 9.80675C23.5214 8.85519 23.7016 7.9198 23.7016 7.02215C23.7043 6.07059 23.5161 5.14599 23.1477 4.2753Z" fill="#FFC41E"/>
</svg>
