<svg width="101" height="98" viewBox="0 0 101 98" fill="none" xmlns="http://www.w3.org/2000/svg">
<path fill-rule="evenodd" clip-rule="evenodd" d="M49.4825 3.72688C50.0673 2.99515 51.1342 2.87629 51.8655 3.46141L100.012 41.9844C100.744 42.5695 100.862 43.637 100.278 44.3688C99.693 45.1005 98.6261 45.2194 97.8948 44.6342L49.7479 6.11126C49.0166 5.52614 48.8978 4.45862 49.4825 3.72688Z" fill="#242424"/>
<path fill-rule="evenodd" clip-rule="evenodd" d="M52.1311 3.72688C52.7159 4.45862 52.5971 5.52614 51.8658 6.11126L3.71887 44.6342C2.98758 45.2194 1.9207 45.1005 1.33594 44.3688C0.751174 43.637 0.86996 42.5695 1.60125 41.9844L49.7482 3.46141C50.4795 2.87629 51.5463 2.99515 52.1311 3.72688Z" fill="#242424"/>
<path fill-rule="evenodd" clip-rule="evenodd" d="M17.104 31.9822C18.0403 31.9822 18.7994 32.7417 18.7994 33.6786V96.2785C18.7994 97.2154 18.0403 97.9749 17.104 97.9749C16.1676 97.9749 15.4086 97.2154 15.4086 96.2785V33.6786C15.4086 32.7417 16.1676 31.9822 17.104 31.9822Z" fill="#242424"/>
<path fill-rule="evenodd" clip-rule="evenodd" d="M84.5097 31.9822C85.4461 31.9822 86.2051 32.7417 86.2051 33.6786V96.2785C86.2051 97.2154 85.4461 97.9749 84.5097 97.9749C83.5734 97.9749 82.8143 97.2154 82.8143 96.2785V33.6786C82.8143 32.7417 83.5734 31.9822 84.5097 31.9822Z" fill="#242424"/>
<path fill-rule="evenodd" clip-rule="evenodd" d="M15.4086 96.2782C15.4086 95.3413 16.1676 94.5818 17.104 94.5818H84.5097C85.446 94.5818 86.2051 95.3413 86.2051 96.2782C86.2051 97.2151 85.446 97.9747 84.5097 97.9747H17.104C16.1676 97.9747 15.4086 97.2151 15.4086 96.2782Z" fill="#242424"/>
<path d="M51.1533 55.0662L63.7124 59.4523V77.3447C63.7124 77.6922 63.5712 78.0256 63.3199 78.2713C63.0685 78.5171 62.7277 78.6552 62.3722 78.6552H57.0115C56.6561 78.6552 56.3152 78.5171 56.0639 78.2713C55.8126 78.0256 55.6714 77.6922 55.6714 77.3447V68.1712H42.2696V77.3447C42.2696 77.6922 42.1284 78.0256 41.8771 78.2713C41.6258 78.5171 41.2849 78.6552 40.9295 78.6552H35.5688C35.2133 78.6552 34.8725 78.5171 34.6211 78.2713C34.3698 78.0256 34.2286 77.6922 34.2286 77.3447V59.8241C31.1161 58.7389 28.8679 55.8574 28.8679 52.4452C28.8679 51.7501 29.1503 51.0834 29.653 50.5919C30.1556 50.1004 30.8374 49.8242 31.5483 49.8242C32.2591 49.8242 32.9409 50.1004 33.4436 50.5919C33.9462 51.0834 34.2286 51.7501 34.2286 52.4452C34.2299 53.1399 34.5128 53.8058 35.0151 54.2971C35.5175 54.7883 36.1985 55.0649 36.909 55.0662H51.1533ZM71.7534 45.8927V48.5137C71.7534 49.904 71.1887 51.2373 70.1833 52.2204C69.178 53.2034 67.8145 53.7557 66.3928 53.7557H63.7124V56.6699L52.991 52.926V40.6507C52.991 39.4836 54.4334 38.8988 55.2785 39.7244L57.5635 41.9612H62.0556C62.9695 41.9612 64.0449 42.6099 64.4529 43.4101L65.0526 44.5822H70.4133C70.7687 44.5822 71.1096 44.7203 71.3609 44.9661C71.6122 45.2118 71.7534 45.5452 71.7534 45.8927ZM62.3722 45.8927C62.3722 45.6335 62.2936 45.3802 62.1464 45.1646C61.9991 44.9491 61.7898 44.7812 61.5449 44.682C61.3 44.5828 61.0306 44.5568 60.7706 44.6074C60.5106 44.658 60.2718 44.7828 60.0844 44.9661C59.897 45.1493 59.7694 45.3828 59.7176 45.6371C59.6659 45.8913 59.6925 46.1548 59.7939 46.3942C59.8953 46.6337 60.0671 46.8384 60.2875 46.9824C60.5079 47.1264 60.767 47.2032 61.0321 47.2032C61.3875 47.2032 61.7284 47.0651 61.9797 46.8194C62.231 46.5736 62.3722 46.2403 62.3722 45.8927Z" fill="#242424"/>
<path d="M41.8479 8.05729C41.1825 6.48058 40.2231 5.05177 39.0233 3.85086C37.8227 2.64636 36.407 1.68917 34.8534 1.03132C33.2424 0.346473 31.5146 -0.00407327 29.7701 3.57084e-05C27.3228 3.57084e-05 24.935 0.685868 22.86 1.98133C22.3636 2.29122 21.892 2.6316 21.4452 3.00246C20.9984 2.6316 20.5268 2.29122 20.0304 1.98133C17.9554 0.685868 15.5676 3.57084e-05 13.1203 3.57084e-05C11.358 3.57084e-05 9.65034 0.345492 8.03699 1.03132C6.47824 1.69176 5.07338 2.64176 3.86709 3.85086C2.66574 5.05041 1.70607 6.47956 1.04248 8.05729C0.352456 9.69821 0 11.4407 0 13.2341C0 14.9258 0.337564 16.6886 1.00773 18.4819C1.56868 19.9806 2.37287 21.5352 3.40046 23.105C5.0287 25.5892 7.26754 28.1801 10.0475 30.8066C14.6542 35.1604 19.2163 38.1679 19.4099 38.2898L20.5864 39.062C21.1076 39.4024 21.7778 39.4024 22.299 39.062L23.4756 38.2898C23.6692 38.1628 28.2263 35.1604 32.838 30.8066C35.6179 28.1801 37.8568 25.5892 39.485 23.105C40.5126 21.5352 41.3217 19.9806 41.8777 18.4819C42.5479 16.6886 42.8855 14.9258 42.8855 13.2341C42.8904 11.4407 42.538 9.69821 41.8479 8.05729Z" fill="#FFC41E"/>
</svg>
