<svg width="46" height="45" viewBox="0 0 46 45" fill="none" xmlns="http://www.w3.org/2000/svg">
<path fill-rule="evenodd" clip-rule="evenodd" d="M22.1673 2.04615C22.5354 1.58623 23.2067 1.51182 23.6666 1.87994L44.9999 18.9554C45.4599 19.3235 45.5343 19.9948 45.1662 20.4547C44.798 20.9146 44.1268 20.9891 43.6668 20.6209L22.3335 3.54546C21.8736 3.17734 21.7992 2.50607 22.1673 2.04615Z" fill="#242424"/>
<path fill-rule="evenodd" clip-rule="evenodd" d="M23.8327 2.04615C24.2008 2.50607 24.1264 3.17733 23.6664 3.54546L2.33311 20.6209C1.87319 20.9891 1.20193 20.9146 0.8338 20.4547C0.465674 19.9948 0.540088 19.3235 1.00001 18.9554L22.3333 1.87994C22.7933 1.51182 23.4645 1.58623 23.8327 2.04615Z" fill="#242424"/>
<path fill-rule="evenodd" clip-rule="evenodd" d="M8.06691 14.4521C8.65601 14.4521 9.13358 14.9297 9.13358 15.5188V43.2665C9.13358 43.8556 8.65601 44.3331 8.06691 44.3331C7.47781 44.3331 7.00024 43.8556 7.00024 43.2665V15.5188C7.00024 14.9297 7.47781 14.4521 8.06691 14.4521Z" fill="#242424"/>
<path fill-rule="evenodd" clip-rule="evenodd" d="M37.9334 14.4521C38.5225 14.4521 39 14.9297 39 15.5188V43.2665C39 43.8556 38.5225 44.3331 37.9334 44.3331C37.3443 44.3331 36.8667 43.8556 36.8667 43.2665V15.5188C36.8667 14.9297 37.3443 14.4521 37.9334 14.4521Z" fill="#242424"/>
<path fill-rule="evenodd" clip-rule="evenodd" d="M7.00024 43.2666C7.00024 42.6775 7.47781 42.2 8.06691 42.2H37.9336C38.5227 42.2 39.0002 42.6775 39.0002 43.2666C39.0002 43.8557 38.5227 44.3333 37.9336 44.3333H8.06691C7.47781 44.3333 7.00024 43.8557 7.00024 43.2666Z" fill="#242424"/>
<path d="M23.1537 24.9995L28.7185 26.9436V34.8745C28.7185 35.0285 28.6559 35.1763 28.5445 35.2852C28.4332 35.3942 28.2821 35.4554 28.1247 35.4554H25.7494C25.5919 35.4554 25.4409 35.3942 25.3295 35.2852C25.2181 35.1763 25.1556 35.0285 25.1556 34.8745V30.8083H19.2174V34.8745C19.2174 35.0285 19.1549 35.1763 19.0435 35.2852C18.9322 35.3942 18.7811 35.4554 18.6236 35.4554H16.2484C16.0909 35.4554 15.9398 35.3942 15.8285 35.2852C15.7171 35.1763 15.6546 35.0285 15.6546 34.8745V27.1084C14.2754 26.6274 13.2793 25.3502 13.2793 23.8377C13.2793 23.5296 13.4044 23.2341 13.6271 23.0162C13.8499 22.7983 14.1519 22.6759 14.4669 22.6759C14.7819 22.6759 15.084 22.7983 15.3067 23.0162C15.5294 23.2341 15.6546 23.5296 15.6546 23.8377C15.6551 24.1456 15.7805 24.4408 16.0031 24.6586C16.2256 24.8763 16.5274 24.9989 16.8422 24.9995H23.1537ZM32.2814 20.9333V22.0951C32.2814 22.7113 32.0311 23.3023 31.5857 23.738C31.1402 24.1738 30.5361 24.4186 29.9061 24.4186H28.7185V25.7103L23.968 24.0508V18.6098C23.968 18.0924 24.607 17.8332 24.9815 18.1991L25.994 19.1906H27.9844C28.3893 19.1906 28.8658 19.4782 29.0466 19.8329L29.3123 20.3524H31.6875C31.845 20.3524 31.9961 20.4136 32.1074 20.5225C32.2188 20.6315 32.2814 20.7792 32.2814 20.9333ZM28.1247 20.9333C28.1247 20.8184 28.0898 20.7061 28.0246 20.6106C27.9593 20.515 27.8666 20.4406 27.7581 20.3966C27.6496 20.3527 27.5302 20.3412 27.415 20.3636C27.2998 20.386 27.194 20.4413 27.111 20.5225C27.0279 20.6038 26.9714 20.7073 26.9484 20.82C26.9255 20.9326 26.9373 21.0494 26.9822 21.1556C27.0272 21.2617 27.1033 21.3524 27.2009 21.4163C27.2986 21.4801 27.4134 21.5142 27.5308 21.5142C27.6883 21.5142 27.8394 21.453 27.9507 21.344C28.0621 21.2351 28.1247 21.0873 28.1247 20.9333Z" fill="#242424"/>
<path d="M20.2088 4.17153C19.914 3.47264 19.4889 2.83931 18.9573 2.30701C18.4253 1.77311 17.798 1.34883 17.1096 1.05724C16.3958 0.753673 15.6302 0.598292 14.8573 0.600113C13.7729 0.600113 12.7149 0.904111 11.7955 1.47833C11.5755 1.61569 11.3666 1.76656 11.1686 1.93095C10.9707 1.76656 10.7617 1.61569 10.5417 1.47833C9.62233 0.904111 8.56434 0.600113 7.47995 0.600113C6.69911 0.600113 5.94246 0.753238 5.2276 1.05724C4.53694 1.34998 3.91446 1.77107 3.37996 2.30701C2.84766 2.83871 2.42245 3.47219 2.12841 4.17153C1.82267 4.89887 1.6665 5.67125 1.6665 6.46615C1.6665 7.21601 1.81607 7.9974 2.11302 8.79229C2.36157 9.45659 2.7179 10.1456 3.17321 10.8415C3.89466 11.9426 4.88667 13.0911 6.11842 14.2553C8.15962 16.1851 10.181 17.5182 10.2668 17.5722L10.7881 17.9145C11.0191 18.0654 11.316 18.0654 11.5469 17.9145L12.0682 17.5722C12.154 17.5159 14.1732 16.1851 16.2166 14.2553C17.4484 13.0911 18.4404 11.9426 19.1618 10.8415C19.6172 10.1456 19.9757 9.45659 20.222 8.79229C20.519 7.9974 20.6685 7.21601 20.6685 6.46615C20.6707 5.67125 20.5146 4.89887 20.2088 4.17153Z" fill="#FFC41E"/>
</svg>
