<svg width="149" height="146" viewBox="0 0 149 146" fill="none" xmlns="http://www.w3.org/2000/svg">
<path d="M145.914 64.7083L74.918 7.93759" stroke="#242424" stroke-width="5" stroke-linecap="round" stroke-linejoin="round"/>
<path d="M3.92285 64.7083L74.9192 7.93759" stroke="#242424" stroke-width="5" stroke-linecap="round" stroke-linejoin="round"/>
<path d="M25.2207 142.768V50.5157" stroke="#242424" stroke-width="5" stroke-linecap="round"/>
<path d="M124.616 142.768V50.5157" stroke="#242424" stroke-width="5" stroke-linecap="round"/>
<path d="M25.2207 142.768H124.616" stroke="#242424" stroke-width="5" stroke-linecap="round"/>
<path d="M75.4299 82.0343L93.9492 88.498V114.866C93.9492 115.378 93.741 115.869 93.3704 116.231C92.9998 116.593 92.4971 116.797 91.973 116.797H84.0683C83.5442 116.797 83.0415 116.593 82.6709 116.231C82.3003 115.869 82.0921 115.378 82.0921 114.866V101.347H62.3302V114.866C62.3302 115.378 62.122 115.869 61.7514 116.231C61.3808 116.593 60.8782 116.797 60.354 116.797H52.4493C51.9252 116.797 51.4225 116.593 51.0519 116.231C50.6813 115.869 50.4731 115.378 50.4731 114.866V89.046C45.8834 87.4466 42.5684 83.2003 42.5684 78.1718C42.5684 77.1474 42.9848 76.1649 43.726 75.4405C44.4672 74.7162 45.4725 74.3092 46.5207 74.3092C47.569 74.3092 48.5743 74.7162 49.3155 75.4405C50.0567 76.1649 50.4731 77.1474 50.4731 78.1718C50.4751 79.1956 50.8921 80.1769 51.6329 80.9009C52.3737 81.6248 53.3778 82.0324 54.4255 82.0343H75.4299ZM105.806 68.5155V72.378C105.806 74.4268 104.973 76.3917 103.491 77.8404C102.009 79.2891 99.998 80.103 97.9016 80.103H93.9492V84.3977L78.1397 78.8803V60.7904C78.1397 59.0704 80.2666 58.2086 81.5128 59.4253L84.8822 62.7217H91.5061C92.8537 62.7217 94.4395 63.6777 95.041 64.8569L95.9254 66.5842H103.83C104.354 66.5842 104.857 66.7877 105.228 67.1499C105.598 67.512 105.806 68.0033 105.806 68.5155ZM91.973 68.5155C91.973 68.1335 91.8571 67.7601 91.64 67.4425C91.4228 67.1249 91.1142 66.8774 90.7531 66.7312C90.392 66.585 89.9946 66.5468 89.6113 66.6213C89.2279 66.6958 88.8758 66.8798 88.5994 67.1499C88.3231 67.4199 88.1349 67.7641 88.0586 68.1387C87.9824 68.5133 88.0215 68.9016 88.1711 69.2545C88.3206 69.6074 88.5739 69.909 88.8989 70.1212C89.2239 70.3335 89.606 70.4467 89.9968 70.4467C90.5209 70.4467 91.0236 70.2432 91.3942 69.8811C91.7648 69.5189 91.973 69.0277 91.973 68.5155Z" fill="#242424"/>
<path d="M61.708 12.7579C60.7268 10.4344 59.312 8.32874 57.5429 6.55898C55.7724 4.78394 53.6849 3.37333 51.394 2.40388C49.0185 1.39462 46.4706 0.87803 43.8983 0.884086C40.2895 0.884086 36.7686 1.89479 33.7088 3.80389C32.9768 4.26057 32.2814 4.76218 31.6226 5.30871C30.9638 4.76218 30.2684 4.26057 29.5364 3.80389C26.4766 1.89479 22.9557 0.884086 19.3469 0.884086C16.7483 0.884086 14.2302 1.39318 11.8512 2.40388C9.55266 3.37715 7.48109 4.77715 5.70232 6.55898C3.93084 8.32675 2.51574 10.4329 1.53721 12.7579C0.519723 15.1761 0 17.7441 0 20.3869C0 22.8799 0.497763 25.4778 1.48597 28.1206C2.31313 30.3291 3.49898 32.6201 5.01423 34.9334C7.41521 38.5944 10.7165 42.4126 14.8158 46.2832C21.6088 52.6993 28.3359 57.1314 28.6214 57.3111L30.3562 58.4491C31.1248 58.9507 32.113 58.9507 32.8816 58.4491L34.6165 57.3111C34.902 57.1239 41.6218 52.6993 48.4221 46.2832C52.5213 42.4126 55.8227 38.5944 58.2237 34.9334C59.7389 32.6201 60.9321 30.3291 61.7519 28.1206C62.7401 25.4778 63.2379 22.8799 63.2379 20.3869C63.2452 17.7441 62.7255 15.1761 61.708 12.7579Z" fill="#FFC41E"/>
</svg>
