<svg width="64" height="62" viewBox="0 0 64 62" fill="none" xmlns="http://www.w3.org/2000/svg">
<path fill-rule="evenodd" clip-rule="evenodd" d="M31.6755 2.35786C32.0422 1.89492 32.7113 1.81973 33.1699 2.1899L63.3637 26.5616C63.8223 26.9318 63.8968 27.6071 63.5301 28.0701C63.1634 28.533 62.4943 28.6082 62.0357 28.238L31.8419 3.86634C31.3833 3.49617 31.3088 2.8208 31.6755 2.35786Z" fill="#242424"/>
<path fill-rule="evenodd" clip-rule="evenodd" d="M33.3365 2.35786C33.7032 2.8208 33.6287 3.49617 33.1701 3.86634L2.97628 28.238C2.51767 28.6082 1.84861 28.533 1.4819 28.0701C1.11518 27.6071 1.18967 26.9318 1.64828 26.5616L31.8421 2.1899C32.3007 1.81973 32.9698 1.89492 33.3365 2.35786Z" fill="#242424"/>
<path fill-rule="evenodd" clip-rule="evenodd" d="M11.3703 20.2336C11.9575 20.2336 12.4336 20.7142 12.4336 21.3069V60.9109C12.4336 61.5036 11.9575 61.9841 11.3703 61.9841C10.7831 61.9841 10.3071 61.5036 10.3071 60.9109V21.3069C10.3071 20.7142 10.7831 20.2336 11.3703 20.2336Z" fill="#242424"/>
<path fill-rule="evenodd" clip-rule="evenodd" d="M53.6416 20.2336C54.2288 20.2336 54.7048 20.7142 54.7048 21.3069V60.9109C54.7048 61.5036 54.2288 61.9841 53.6416 61.9841C53.0544 61.9841 52.5784 61.5036 52.5784 60.9109V21.3069C52.5784 20.7142 53.0544 20.2336 53.6416 20.2336Z" fill="#242424"/>
<path fill-rule="evenodd" clip-rule="evenodd" d="M10.3071 60.9107C10.3071 60.3179 10.7831 59.8374 11.3703 59.8374H53.6417C54.2289 59.8374 54.7049 60.3179 54.7049 60.9107C54.7049 61.5034 54.2289 61.9839 53.6417 61.9839H11.3703C10.7831 61.9839 10.3071 61.5034 10.3071 60.9107Z" fill="#242424"/>
<path d="M32.7231 34.8378L40.5992 37.6126V48.9323C40.5992 49.1522 40.5106 49.3631 40.353 49.5186C40.1954 49.6741 39.9816 49.7614 39.7587 49.7614H36.3969C36.174 49.7614 35.9603 49.6741 35.8027 49.5186C35.645 49.3631 35.5565 49.1522 35.5565 48.9323V43.1287H27.152V48.9323C27.152 49.1522 27.0635 49.3631 26.9059 49.5186C26.7483 49.6741 26.5345 49.7614 26.3116 49.7614H22.9498C22.7269 49.7614 22.5131 49.6741 22.3555 49.5186C22.1979 49.3631 22.1093 49.1522 22.1093 48.9323V37.8479C20.1574 37.1613 18.7476 35.3383 18.7476 33.1796C18.7476 32.7398 18.9247 32.3181 19.2399 32.0071C19.5551 31.6961 19.9827 31.5214 20.4285 31.5214C20.8743 31.5214 21.3018 31.6961 21.617 32.0071C21.9323 32.3181 22.1093 32.7398 22.1093 33.1796C22.1102 33.6191 22.2875 34.0404 22.6026 34.3512C22.9176 34.662 23.3447 34.837 23.7902 34.8378H32.7231ZM45.6419 29.0341V30.6923C45.6419 31.5719 45.2877 32.4154 44.6572 33.0373C44.0268 33.6593 43.1717 34.0087 42.2801 34.0087H40.5992V35.8524L33.8756 33.4838V25.7178C33.8756 24.9794 34.7801 24.6094 35.3101 25.1317L36.7431 26.5469H39.5602C40.1333 26.5469 40.8077 26.9573 41.0635 27.4635L41.4396 28.205H44.8014C45.0243 28.205 45.2381 28.2924 45.3957 28.4479C45.5533 28.6034 45.6419 28.8143 45.6419 29.0341ZM39.7587 29.0341C39.7587 28.8702 39.7094 28.7099 39.6171 28.5735C39.5247 28.4372 39.3935 28.3309 39.2399 28.2682C39.0863 28.2054 38.9174 28.189 38.7543 28.221C38.5913 28.253 38.4415 28.3319 38.324 28.4479C38.2065 28.5638 38.1264 28.7116 38.094 28.8724C38.0616 29.0332 38.0782 29.1999 38.1418 29.3514C38.2054 29.5029 38.3132 29.6324 38.4514 29.7235C38.5896 29.8146 38.7521 29.8632 38.9183 29.8632C39.1412 29.8632 39.355 29.7759 39.5126 29.6204C39.6702 29.4649 39.7587 29.254 39.7587 29.0341Z" fill="#242424"/>
<path d="M26.8877 5.09747C26.4704 4.09996 25.8687 3.19602 25.1163 2.43626C24.3633 1.67423 23.4756 1.06866 22.5013 0.652471C21.491 0.219197 20.4074 -0.00257696 19.3134 2.2591e-05C17.7787 2.2591e-05 16.2813 0.433916 14.98 1.25349C14.6687 1.44955 14.3729 1.66489 14.0927 1.89951C13.8126 1.66489 13.5168 1.44955 13.2055 1.25349C11.9042 0.433916 10.4068 2.2591e-05 8.87202 2.2591e-05C7.76687 2.2591e-05 6.69595 0.218577 5.68419 0.652471C4.70667 1.07029 3.82565 1.67132 3.06916 2.43626C2.31578 3.19516 1.71395 4.09931 1.2978 5.09747C0.865075 6.1356 0.644043 7.23801 0.644043 8.37257C0.644043 9.44284 0.855735 10.5581 1.27601 11.6927C1.62779 12.6408 2.13212 13.6243 2.77653 14.6174C3.79764 16.1891 5.20165 17.8282 6.945 19.4899C9.83398 22.2443 12.6949 24.147 12.8163 24.2242L13.5542 24.7127C13.881 24.928 14.3013 24.928 14.6282 24.7127L15.366 24.2242C15.4874 24.1438 18.3453 22.2443 21.2373 19.4899C22.9807 17.8282 24.3847 16.1891 25.4058 14.6174C26.0502 13.6243 26.5577 12.6408 26.9063 11.6927C27.3266 10.5581 27.5383 9.44284 27.5383 8.37257C27.5414 7.23801 27.3204 6.1356 26.8877 5.09747Z" fill="#FFC41E"/>
</svg>
