<svg width="62" height="61" viewBox="0 0 62 61" fill="none" xmlns="http://www.w3.org/2000/svg">
<path fill-rule="evenodd" clip-rule="evenodd" d="M29.8549 2.18815C30.3611 1.55576 31.284 1.45344 31.9164 1.95962L61.2498 25.4384C61.8822 25.9446 61.9845 26.8675 61.4783 27.4999C60.9721 28.1323 60.0491 28.2346 59.4168 27.7285L30.0834 4.2497C29.451 3.74353 29.3487 2.82054 29.8549 2.18815Z" fill="#242424"/>
<path fill-rule="evenodd" clip-rule="evenodd" d="M32.145 2.18815C32.6512 2.82054 32.5489 3.74353 31.9165 4.2497L2.58318 27.7285C1.95079 28.2346 1.0278 28.1323 0.521628 27.4999C0.0154547 26.8675 0.117774 25.9446 0.750164 25.4384L30.0835 1.95962C30.7159 1.45344 31.6389 1.55576 32.145 2.18815Z" fill="#242424"/>
<path fill-rule="evenodd" clip-rule="evenodd" d="M10.4667 19.2471C11.2767 19.2471 11.9333 19.9037 11.9333 20.7137V58.8667C11.9333 59.6768 11.2767 60.3334 10.4667 60.3334C9.65665 60.3334 9 59.6768 9 58.8667V20.7137C9 19.9037 9.65665 19.2471 10.4667 19.2471Z" fill="#242424"/>
<path fill-rule="evenodd" clip-rule="evenodd" d="M51.5333 19.2471C52.3433 19.2471 53 19.9037 53 20.7137V58.8667C53 59.6768 52.3433 60.3334 51.5333 60.3334C50.7233 60.3334 50.0667 59.6768 50.0667 58.8667V20.7137C50.0667 19.9037 50.7233 19.2471 51.5333 19.2471Z" fill="#242424"/>
<path fill-rule="evenodd" clip-rule="evenodd" d="M9 58.8666C9 58.0566 9.65665 57.3999 10.4667 57.3999H51.5333C52.3434 57.3999 53 58.0566 53 58.8666C53 59.6766 52.3434 60.3332 51.5333 60.3332H10.4667C9.65665 60.3332 9 59.6766 9 58.8666Z" fill="#242424"/>
<path d="M31.211 33.7488L38.8625 36.422V47.327C38.8625 47.5388 38.7765 47.742 38.6234 47.8918C38.4703 48.0416 38.2626 48.1257 38.046 48.1257H34.7801C34.5635 48.1257 34.3558 48.0416 34.2027 47.8918C34.0496 47.742 33.9636 47.5388 33.9636 47.327V41.736H25.7986V47.327C25.7986 47.5388 25.7126 47.742 25.5595 47.8918C25.4063 48.0416 25.1987 48.1257 24.9821 48.1257H21.7161C21.4996 48.1257 21.2919 48.0416 21.1388 47.8918C20.9857 47.742 20.8996 47.5388 20.8996 47.327V36.6487C19.0033 35.9872 17.6337 34.2311 17.6337 32.1514C17.6337 31.7278 17.8057 31.3214 18.112 31.0219C18.4182 30.7223 18.8336 30.554 19.2667 30.554C19.6998 30.554 20.1151 30.7223 20.4214 31.0219C20.7276 31.3214 20.8996 31.7278 20.8996 32.1514C20.9005 32.5748 21.0728 32.9807 21.3788 33.2801C21.6849 33.5795 22.0998 33.7481 22.5326 33.7488H31.211ZM43.7615 28.1578V29.7553C43.7615 30.6026 43.4174 31.4152 42.8049 32.0144C42.1924 32.6135 41.3617 32.9501 40.4955 32.9501H38.8625V34.7263L32.3306 32.4444V24.963C32.3306 24.2516 33.2093 23.8952 33.7242 24.3984L35.1164 25.7617H37.8531C38.4099 25.7617 39.0651 26.1571 39.3136 26.6448L39.679 27.3591H42.945C43.1616 27.3591 43.3692 27.4433 43.5224 27.5931C43.6755 27.7429 43.7615 27.946 43.7615 28.1578ZM38.046 28.1578C38.046 27.9999 37.9982 27.8454 37.9084 27.7141C37.8187 27.5828 37.6912 27.4804 37.542 27.4199C37.3928 27.3595 37.2286 27.3437 37.0703 27.3745C36.9119 27.4053 36.7664 27.4814 36.6522 27.5931C36.538 27.7048 36.4602 27.8471 36.4287 28.002C36.3972 28.157 36.4134 28.3176 36.4752 28.4635C36.537 28.6094 36.6417 28.7342 36.7759 28.8219C36.9102 28.9097 37.0681 28.9566 37.2295 28.9566C37.4461 28.9566 37.6538 28.8724 37.8069 28.7226C37.96 28.5728 38.046 28.3697 38.046 28.1578Z" fill="#242424"/>
<path d="M27.1623 5.11067C26.7569 4.1497 26.1724 3.27887 25.4414 2.54695C24.7099 1.81284 23.8475 1.22946 22.9009 0.828517C21.9195 0.411118 20.8668 0.197469 19.804 0.199973C18.3129 0.199973 16.8582 0.61797 15.594 1.40752C15.2916 1.59639 15.0042 1.80384 14.732 2.02987C14.4598 1.80384 14.1725 1.59639 13.8701 1.40752C12.6059 0.61797 11.1511 0.199973 9.66012 0.199973C8.58646 0.199973 7.54606 0.41052 6.56313 0.828517C5.61347 1.23103 4.75756 1.81004 4.02263 2.54695C3.29072 3.27805 2.70605 4.14908 2.30175 5.11067C1.88136 6.11076 1.66663 7.17278 1.66663 8.26577C1.66663 9.29683 1.87229 10.3712 2.28058 11.4642C2.62234 12.3776 3.11229 13.3251 3.73834 14.2818C4.73034 15.7959 6.09435 17.375 7.78801 18.9758C10.5947 21.6293 13.3741 23.4623 13.492 23.5366L14.2088 24.0072C14.5264 24.2147 14.9347 24.2147 15.2522 24.0072L15.969 23.5366C16.087 23.4592 18.8634 21.6293 21.673 18.9758C23.3667 17.375 24.7307 15.7959 25.7227 14.2818C26.3488 13.3251 26.8417 12.3776 27.1805 11.4642C27.5888 10.3712 27.7944 9.29683 27.7944 8.26577C27.7975 7.17278 27.5827 6.11076 27.1623 5.11067Z" fill="#FFC41E"/>
</svg>
