<svg width="45" height="44" viewBox="0 0 45 44" fill="none" xmlns="http://www.w3.org/2000/svg">
<path d="M17.0991 11.2077L25.6043 14.1472V26.1385C25.6043 26.3714 25.5086 26.5948 25.3384 26.7595C25.1682 26.9242 24.9374 27.0167 24.6967 27.0167H21.0663C20.8256 27.0167 20.5948 26.9242 20.4246 26.7595C20.2544 26.5948 20.1588 26.3714 20.1588 26.1385V19.9905H11.0829V26.1385C11.0829 26.3714 10.9873 26.5948 10.8171 26.7595C10.6469 26.9242 10.416 27.0167 10.1753 27.0167H6.545C6.30429 27.0167 6.07345 26.9242 5.90324 26.7595C5.73304 26.5948 5.63742 26.3714 5.63742 26.1385V14.3964C3.52955 13.6691 2.00708 11.738 2.00708 9.45113C2.00708 8.98526 2.19832 8.53847 2.53873 8.20905C2.87914 7.87963 3.34084 7.69456 3.82225 7.69456C4.30366 7.69456 4.76536 7.87963 5.10577 8.20905C5.44617 8.53847 5.63742 8.98526 5.63742 9.45113C5.63831 9.91673 5.82984 10.363 6.17006 10.6922C6.51027 11.0215 6.97145 11.2068 7.45258 11.2077H17.0991ZM31.0498 5.05972V6.81628C31.0498 7.74802 30.6673 8.6416 29.9865 9.30044C29.3056 9.95928 28.3822 10.3294 27.4194 10.3294H25.6043V12.2825L18.3436 9.77335V1.5466C18.3436 0.764379 19.3204 0.372446 19.8927 0.925763L21.4401 2.42488H24.4823C25.1011 2.42488 25.8295 2.85963 26.1057 3.39593L26.5118 4.18144H30.1422C30.3829 4.18144 30.6137 4.27397 30.7839 4.43868C30.9541 4.60339 31.0498 4.82679 31.0498 5.05972ZM24.6967 5.05972C24.6967 4.88601 24.6434 4.71621 24.5437 4.57178C24.444 4.42734 24.3022 4.31477 24.1364 4.2483C23.9706 4.18182 23.7881 4.16443 23.612 4.19832C23.436 4.23221 23.2743 4.31585 23.1473 4.43868C23.0204 4.56151 22.934 4.71801 22.8989 4.88838C22.8639 5.05875 22.8819 5.23534 22.9506 5.39583C23.0193 5.55631 23.1356 5.69348 23.2849 5.78999C23.4341 5.88649 23.6096 5.938 23.7891 5.938C24.0298 5.938 24.2606 5.84547 24.4308 5.68076C24.6011 5.51605 24.6967 5.29266 24.6967 5.05972Z" fill="#242424"/>
<path d="M9.32191 16.4167C7.47378 16.4167 5.76675 17.3336 4.73893 18.8612L0.891885 24.5667C0.439137 25.2394 0.198367 26.0306 0.200219 26.8395V35.9323C0.197668 36.5416 0.400519 37.1342 0.776508 37.616C1.1525 38.0977 1.68003 38.4408 2.27522 38.5909L5.86358 39.4926C6.12166 40.7261 6.79947 41.8341 7.78331 42.6305C8.76714 43.4269 9.99712 43.8634 11.2669 43.8667C13.8288 43.8667 15.9674 42.1086 16.5844 39.7492H29.466C30.083 42.1086 32.2216 43.8667 34.7835 43.8667C37.3455 43.8667 39.4841 42.1086 40.1011 39.7492H41.7002C43.2136 39.7492 44.4669 38.5058 44.4669 37.0042V31.9864C44.4655 30.763 44.0522 29.5752 43.2925 28.6116C42.5328 27.6479 41.4704 26.9638 40.274 26.668L32.7943 24.7808L27.391 18.3904C26.8741 17.7733 26.2267 17.2766 25.4947 16.9355C24.7627 16.5944 23.964 16.4173 23.1552 16.4167H9.32191ZM9.32191 19.1617H15.4169V24.6517H4.1773L7.03112 20.4052V20.3627C7.28175 19.9892 7.62243 19.6837 8.02224 19.474C8.42204 19.2643 8.86831 19.1569 9.32053 19.1617H9.32191ZM18.1835 19.1617H23.1552C23.9756 19.1617 24.7488 19.5213 25.2731 20.1486L29.0773 24.6517H18.1835V19.1617ZM2.96688 27.3967H31.844L39.6252 29.3265C40.2223 29.4735 40.7519 29.816 41.1285 30.2987C41.505 30.7814 41.7065 31.376 41.7002 31.9864V37.0042H40.1011C39.4841 34.6449 37.3455 32.8867 34.7835 32.8867C32.2216 32.8867 30.083 34.6449 29.466 37.0042H16.5844C15.9674 34.6449 13.8288 32.8867 11.2669 32.8867C8.81423 32.8867 6.75445 34.4953 6.0365 36.7037L2.96688 35.9337V27.3967ZM11.2669 35.6317C12.8121 35.6317 14.0335 36.8437 14.0335 38.3767C14.0335 39.9098 12.8121 41.1217 11.2669 41.1217C9.7217 41.1217 8.50021 39.9098 8.50021 38.3767C8.50021 36.8437 9.7217 35.6317 11.2669 35.6317ZM34.7835 35.6317C36.3287 35.6317 37.5502 36.8437 37.5502 38.3767C37.5502 39.9098 36.3287 41.1217 34.7835 41.1217C33.2383 41.1217 32.0169 39.9098 32.0169 38.3767C32.0169 36.8437 33.2383 35.6317 34.7835 35.6317Z" fill="#FFC41E"/>
</svg>
