<svg width="69" height="54" viewBox="0 0 69 54" fill="none" xmlns="http://www.w3.org/2000/svg">
<path fill-rule="evenodd" clip-rule="evenodd" d="M10.913 10.5536H0.733276V21.4884H10.913V31.6421H21.8755V21.4884H32.0548V10.5536L21.8755 10.5536V0.399902H10.913V10.5536ZM13.8463 3.33324V13.4869L3.66661 13.4869V18.555H13.8463V28.7088H18.9421V18.555H29.1214V13.4869L18.9421 13.4869V3.33324H13.8463Z" fill="#FFC41E"/>
<path d="M32.8128 28.2354L46.6209 33.0136V52.5055C46.6209 52.8841 46.4657 53.2473 46.1894 53.515C45.913 53.7827 45.5382 53.9332 45.1475 53.9332H39.2536C38.8628 53.9332 38.4881 53.7827 38.2117 53.515C37.9354 53.2473 37.7802 52.8841 37.7802 52.5055V42.5119H23.0456V52.5055C23.0456 52.8841 22.8904 53.2473 22.614 53.515C22.3377 53.7827 21.9629 53.9332 21.5721 53.9332H15.6783C15.2875 53.9332 14.9128 53.7827 14.6364 53.515C14.3601 53.2473 14.2049 52.8841 14.2049 52.5055V33.4187C10.7828 32.2364 8.31104 29.0974 8.31104 25.3801C8.31104 24.6229 8.62151 23.8966 9.17417 23.3611C9.72682 22.8257 10.4764 22.5248 11.2579 22.5248C12.0395 22.5248 12.7891 22.8257 13.3417 23.3611C13.8944 23.8966 14.2049 24.6229 14.2049 25.3801C14.2063 26.137 14.5173 26.8624 15.0696 27.3976C15.6219 27.9327 16.3707 28.234 17.1518 28.2354H32.8128ZM55.4617 18.2419V21.0972C55.4617 22.6117 54.8407 24.0642 53.7354 25.1352C52.6301 26.2061 51.131 26.8078 49.5678 26.8078H46.6209V29.9825L34.8333 25.9039V12.5313C34.8333 11.2598 36.4191 10.6227 37.3483 11.5221L39.8605 13.9589H44.7994C45.8041 13.9589 46.9865 14.6656 47.435 15.5374L48.0944 16.8142H53.9882C54.379 16.8142 54.7538 16.9646 55.0301 17.2324C55.3064 17.5001 55.4617 17.8632 55.4617 18.2419ZM45.1475 18.2419C45.1475 17.9595 45.061 17.6835 44.8991 17.4487C44.7372 17.2139 44.5071 17.031 44.2379 16.9229C43.9686 16.8148 43.6724 16.7866 43.3865 16.8417C43.1007 16.8967 42.8382 17.0327 42.6321 17.2324C42.426 17.432 42.2857 17.6864 42.2289 17.9634C42.172 18.2403 42.2012 18.5273 42.3127 18.7882C42.4242 19.0491 42.6131 19.2721 42.8554 19.4289C43.0977 19.5858 43.3826 19.6695 43.674 19.6695C44.0648 19.6695 44.4396 19.5191 44.7159 19.2514C44.9922 18.9836 45.1475 18.6205 45.1475 18.2419Z" fill="#242424"/>
<path d="M68.9334 45.115C68.9334 50.0281 64.8877 53.9334 59.798 53.9334H51.9676C46.8778 53.9334 42.8322 50.0281 42.8322 45.115V41.3357H68.9334V45.115Z" fill="#FFC41E"/>
</svg>
