<svg width="52" height="51" viewBox="0 0 52 51" fill="none" xmlns="http://www.w3.org/2000/svg">
<path d="M19.9759 12.8677L29.9004 16.2833V30.2172C29.9004 30.4879 29.7889 30.7475 29.5903 30.9389C29.3917 31.1303 29.1223 31.2378 28.8414 31.2378H24.6052C24.3243 31.2378 24.055 31.1303 23.8564 30.9389C23.6577 30.7475 23.5462 30.4879 23.5462 30.2172V23.0733H12.9557V30.2172C12.9557 30.4879 12.8441 30.7475 12.6455 30.9389C12.4469 31.1303 12.1775 31.2378 11.8967 31.2378H7.66047C7.37959 31.2378 7.11022 31.1303 6.91161 30.9389C6.713 30.7475 6.60142 30.4879 6.60142 30.2172V16.5729C4.14179 15.7278 2.36523 13.4838 2.36523 10.8265C2.36523 10.2852 2.58839 9.76602 2.98561 9.38323C3.38283 9.00045 3.92157 8.7854 4.48333 8.7854C5.04508 8.7854 5.58383 9.00045 5.98105 9.38323C6.37827 9.76602 6.60142 10.2852 6.60142 10.8265C6.60247 11.3676 6.82596 11.8861 7.22296 12.2687C7.61995 12.6513 8.15808 12.8666 8.71951 12.8677H19.9759ZM36.2547 5.72372V7.76484C36.2547 8.84752 35.8084 9.88586 35.014 10.6514C34.2195 11.417 33.1421 11.8471 32.0185 11.8471H29.9004V14.1166L21.4281 11.2009V1.64147C21.4281 0.732527 22.5679 0.277101 23.2357 0.920055L25.0414 2.66203H28.5912C29.3133 2.66203 30.1632 3.16721 30.4856 3.79039L30.9595 4.70315H35.1957C35.4766 4.70315 35.7459 4.81068 35.9445 5.00207C36.1432 5.19346 36.2547 5.45305 36.2547 5.72372ZM28.8414 5.72372C28.8414 5.52187 28.7793 5.32455 28.6629 5.15672C28.5466 4.98889 28.3811 4.85808 28.1876 4.78084C27.9941 4.70359 27.7812 4.68338 27.5757 4.72276C27.3703 4.76214 27.1816 4.85934 27.0335 5.00207C26.8854 5.1448 26.7845 5.32664 26.7437 5.52461C26.7028 5.72258 26.7238 5.92778 26.8039 6.11427C26.8841 6.30075 27.0198 6.46014 27.194 6.57228C27.3681 6.68442 27.5729 6.74428 27.7824 6.74428C28.0632 6.74428 28.3326 6.63675 28.5312 6.44536C28.7298 6.25397 28.8414 5.99439 28.8414 5.72372Z" fill="#242424"/>
<path d="M10.9008 18.9205C8.74428 18.9205 6.75237 19.9859 5.55302 21.761L1.06396 28.3907C0.535654 29.1725 0.254703 30.0918 0.256864 31.0318V41.5976C0.253887 42.3056 0.490591 42.9942 0.929327 43.554C1.36806 44.1138 1.98364 44.5125 2.67815 44.6868L6.86536 45.7347C7.16651 47.168 7.95744 48.4554 9.10546 49.3809C10.2535 50.3064 11.6887 50.8136 13.1704 50.8174C16.1599 50.8174 18.6554 48.7744 19.3753 46.0329H34.4067C35.1266 48.7744 37.6222 50.8174 40.6116 50.8174C43.6011 50.8174 46.0967 48.7744 46.8166 46.0329H48.6826C50.4485 46.0329 51.911 44.588 51.911 42.8432V37.0125C51.9094 35.5909 51.4271 34.2106 50.5407 33.0909C49.6542 31.9712 48.4145 31.1763 47.0184 30.8324L38.2904 28.6395L31.9854 21.2139C31.3822 20.4968 30.6268 19.9197 29.7726 19.5233C28.9184 19.127 27.9864 18.9212 27.0427 18.9205H10.9008ZM10.9008 22.1102H18.013V28.4896H4.89766L8.22774 23.5552V23.5057C8.5202 23.0717 8.91774 22.7168 9.38426 22.4731C9.85079 22.2294 10.3715 22.1046 10.8992 22.1102H10.9008ZM21.2413 22.1102H27.0427C28 22.1102 28.9023 22.5281 29.5141 23.2569L33.9531 28.4896H21.2413V22.1102ZM3.48525 31.6793H37.1815L46.2613 33.9216C46.958 34.0925 47.5761 34.4905 48.0155 35.0514C48.4549 35.6123 48.6899 36.3032 48.6826 37.0125V42.8432H46.8166C46.0967 40.1017 43.6011 38.0587 40.6116 38.0587C37.6222 38.0587 35.1266 40.1017 34.4067 42.8432H19.3753C18.6554 40.1017 16.1599 38.0587 13.1704 38.0587C10.3084 38.0587 7.9049 39.9278 7.06714 42.4939L3.48525 41.5992V31.6793ZM13.1704 41.2484C14.9734 41.2484 16.3988 42.6566 16.3988 44.4381C16.3988 46.2195 14.9734 47.6277 13.1704 47.6277C11.3673 47.6277 9.94201 46.2195 9.94201 44.4381C9.94201 42.6566 11.3673 41.2484 13.1704 41.2484ZM40.6116 41.2484C42.4147 41.2484 43.84 42.6566 43.84 44.4381C43.84 46.2195 42.4147 47.6277 40.6116 47.6277C38.8086 47.6277 37.3833 46.2195 37.3833 44.4381C37.3833 42.6566 38.8086 41.2484 40.6116 41.2484Z" fill="#FFC41E"/>
</svg>
