<svg width="83" height="81" viewBox="0 0 83 81" fill="none" xmlns="http://www.w3.org/2000/svg">
<path d="M31.9885 19.7882L47.8142 25.2533V47.5475C47.8142 47.9806 47.6363 48.3959 47.3196 48.7021C47.0029 49.0084 46.5734 49.1804 46.1255 49.1804H39.3705C38.9226 49.1804 38.4931 49.0084 38.1764 48.7021C37.8597 48.3959 37.6817 47.9806 37.6817 47.5475V36.1172H20.7942V47.5475C20.7942 47.9806 20.6163 48.3959 20.2996 48.7021C19.9829 49.0084 19.5534 49.1804 19.1055 49.1804H12.3505C11.9026 49.1804 11.4731 49.0084 11.1564 48.7021C10.8397 48.3959 10.6617 47.9806 10.6617 47.5475V25.7167C6.73962 24.3644 3.90674 20.7741 3.90674 16.5224C3.90674 15.6563 4.26258 14.8256 4.89599 14.2131C5.52939 13.6007 6.38847 13.2566 7.28424 13.2566C8.18001 13.2566 9.03909 13.6007 9.67249 14.2131C10.3059 14.8256 10.6617 15.6563 10.6617 16.5224C10.6634 17.3881 11.0198 18.2178 11.6528 18.8299C12.2859 19.442 13.144 19.7866 14.0392 19.7882H31.9885ZM57.9467 8.35791V11.6237C57.9467 13.356 57.2351 15.0173 55.9682 16.2422C54.7014 17.4672 52.9833 18.1553 51.1917 18.1553H47.8142V21.7865L34.3042 17.1215V1.82631C34.3042 0.372006 36.1218 -0.356676 37.1867 0.672051L40.066 3.45921H45.7265C46.878 3.45921 48.2333 4.26749 48.7473 5.26458L49.503 6.72501H56.258C56.7059 6.72501 57.1354 6.89705 57.4521 7.20327C57.7688 7.5095 57.9467 7.92484 57.9467 8.35791ZM46.1255 8.35791C46.1255 8.03495 46.0264 7.71925 45.8409 7.45072C45.6553 7.18219 45.3916 6.9729 45.083 6.84931C44.7744 6.72571 44.4349 6.69338 44.1073 6.75638C43.7797 6.81939 43.4788 6.97491 43.2426 7.20327C43.0064 7.43164 42.8456 7.72259 42.7804 8.03935C42.7153 8.3561 42.7487 8.68442 42.8765 8.98279C43.0044 9.28117 43.2208 9.53619 43.4985 9.71562C43.7762 9.89504 44.1027 9.99081 44.4367 9.99081C44.8846 9.99081 45.3142 9.81877 45.6309 9.51254C45.9476 9.20631 46.1255 8.79098 46.1255 8.35791Z" fill="#242424"/>
<path d="M17.5177 29.4728C14.0788 29.4728 10.9025 31.1774 8.99007 34.0175L1.83183 44.6251C0.989401 45.8759 0.541398 47.3469 0.544844 48.8508V65.7562C0.540098 66.889 0.917544 67.9908 1.61715 68.8864C2.31676 69.782 3.29835 70.42 4.40581 70.699L11.0827 72.3755C11.5629 74.6688 12.8241 76.7287 14.6548 78.2094C16.4854 79.6902 18.774 80.5017 21.1367 80.5079C25.9037 80.5079 29.8831 77.2391 31.0311 72.8526H55C56.148 77.2391 60.1273 80.5079 64.8944 80.5079C69.6614 80.5079 73.6407 77.2391 74.7887 72.8526H77.7643C80.5802 72.8526 82.9122 70.5407 82.9122 67.7491V58.4199C82.9098 56.1454 82.1407 53.937 80.7271 52.1454C79.3136 50.3539 77.3367 49.082 75.1105 48.5319L61.193 45.0232L51.139 33.1423C50.1772 31.9949 48.9726 31.0715 47.6105 30.4373C46.2484 29.8032 44.7623 29.4739 43.2575 29.4728H17.5177ZM17.5177 34.5763H28.8586V44.7834H7.94504L13.2552 36.8882V36.8091C13.7215 36.1147 14.3554 35.5468 15.0993 35.1569C15.8433 34.767 16.6736 34.5674 17.5151 34.5763H17.5177ZM34.0066 34.5763H43.2575C44.7838 34.5763 46.2227 35.2449 47.1982 36.4111L54.2767 44.7834H34.0066V34.5763ZM5.69281 49.8869H59.4247L73.9033 53.4746C75.0143 53.7479 75.9998 54.3848 76.7005 55.2822C77.4011 56.1796 77.7759 57.2851 77.7643 58.4199V67.7491H74.7887C73.6407 63.3627 69.6614 60.0939 64.8944 60.0939C60.1273 60.0939 56.148 63.3627 55 67.7491H31.0311C29.8831 63.3627 25.9037 60.0939 21.1367 60.0939C16.573 60.0939 12.7404 63.0845 11.4045 67.1903L5.69281 65.7588V49.8869ZM21.1367 65.1974C24.0118 65.1974 26.2847 67.4506 26.2847 70.3009C26.2847 73.1512 24.0118 75.4044 21.1367 75.4044C18.2616 75.4044 15.9887 73.1512 15.9887 70.3009C15.9887 67.4506 18.2616 65.1974 21.1367 65.1974ZM64.8944 65.1974C67.7695 65.1974 70.0423 67.4506 70.0423 70.3009C70.0423 73.1512 67.7695 75.4044 64.8944 75.4044C62.0192 75.4044 59.7464 73.1512 59.7464 70.3009C59.7464 67.4506 62.0192 65.1974 64.8944 65.1974Z" fill="#FFC41E"/>
</svg>
