<svg width="45" height="44" viewBox="0 0 45 44" fill="none" xmlns="http://www.w3.org/2000/svg">
<path d="M17.2226 10.7051L25.6719 13.624V25.5311C25.6719 25.7624 25.5769 25.9842 25.4078 26.1478C25.2387 26.3113 25.0094 26.4032 24.7703 26.4032H21.1638C20.9246 26.4032 20.6953 26.3113 20.5262 26.1478C20.3571 25.9842 20.2622 25.7624 20.2622 25.5311V19.4263H11.2459V25.5311C11.2459 25.7624 11.151 25.9842 10.9819 26.1478C10.8128 26.3113 10.5834 26.4032 10.3443 26.4032H6.73784C6.49872 26.4032 6.26939 26.3113 6.1003 26.1478C5.93121 25.9842 5.83622 25.7624 5.83622 25.5311V13.8714C3.74221 13.1492 2.22974 11.2316 2.22974 8.96086C2.22974 8.49826 2.41972 8.05461 2.75789 7.7275C3.09607 7.40039 3.55473 7.21662 4.03298 7.21662C4.51123 7.21662 4.96989 7.40039 5.30806 7.7275C5.64624 8.05461 5.83622 8.49826 5.83622 8.96086C5.83711 9.42319 6.02738 9.86634 6.36536 10.1933C6.70334 10.5202 7.16149 10.7042 7.63946 10.7051H17.2226ZM31.0816 4.60027V6.34451C31.0816 7.26971 30.7016 8.15701 30.0253 8.81123C29.3489 9.46544 28.4316 9.83297 27.4751 9.83297H25.6719V11.7723L18.4589 9.28082V1.1118C18.4589 0.335074 19.4293 -0.054108 19.9979 0.495326L21.5351 1.98392H24.5573C25.172 1.98392 25.8956 2.41562 26.17 2.94816L26.5735 3.72815H30.18C30.4191 3.72815 30.6484 3.82004 30.8175 3.98359C30.9866 4.14715 31.0816 4.36897 31.0816 4.60027ZM24.7703 4.60027C24.7703 4.42778 24.7174 4.25917 24.6183 4.11575C24.5192 3.97233 24.3784 3.86055 24.2137 3.79454C24.0489 3.72853 23.8676 3.71126 23.6927 3.74491C23.5178 3.77856 23.3572 3.86162 23.2311 3.98359C23.105 4.10556 23.0191 4.26096 22.9843 4.43013C22.9496 4.5993 22.9674 4.77466 23.0356 4.93402C23.1039 5.09338 23.2195 5.22958 23.3677 5.32541C23.516 5.42124 23.6903 5.47239 23.8686 5.47239C24.1078 5.47239 24.3371 5.38051 24.5062 5.21695C24.6753 5.0534 24.7703 4.83157 24.7703 4.60027Z" fill="#242424"/>
<path d="M9.4966 15.8776C7.66061 15.8776 5.96479 16.788 4.94373 18.3048L1.12196 23.9703C0.672186 24.6383 0.432998 25.4239 0.434838 26.2272V35.2562C0.432304 35.8612 0.633822 36.4496 1.00734 36.928C1.38086 37.4063 1.90493 37.7471 2.4962 37.8961L6.06099 38.7915C6.31737 40.0163 6.99074 41.1165 7.9681 41.9073C8.94547 42.6982 10.1674 43.1316 11.4288 43.1349C13.9739 43.1349 16.0985 41.3891 16.7114 39.0463H29.5083C30.1213 41.3891 32.2458 43.1349 34.7909 43.1349C37.336 43.1349 39.4606 41.3891 40.0735 39.0463H41.6622C43.1656 39.0463 44.4106 37.8116 44.4106 36.3206V31.3379C44.4093 30.1231 43.9987 28.9436 43.244 27.9868C42.4893 27.0299 41.4339 26.3506 40.2453 26.0568L32.8148 24.1829L27.447 17.8374C26.9335 17.2246 26.2903 16.7314 25.5631 16.3927C24.8359 16.054 24.0424 15.8781 23.239 15.8776H9.4966ZM9.4966 18.6033H15.5515V24.0548H4.38579L7.22085 19.8381V19.7958C7.46984 19.4249 7.80828 19.1216 8.20546 18.9134C8.60264 18.7051 9.04598 18.5985 9.49523 18.6033H9.4966ZM18.3 18.6033H23.239C24.054 18.6033 24.8222 18.9604 25.343 19.5832L29.1222 24.0548H18.3V18.6033ZM3.18333 26.7805H31.8707L39.6008 28.6967C40.194 28.8427 40.7201 29.1828 41.0942 29.6621C41.4683 30.1414 41.6684 30.7319 41.6622 31.3379V36.3206H40.0735C39.4606 33.9778 37.336 32.232 34.7909 32.232C32.2458 32.232 30.1213 33.9778 29.5083 36.3206H16.7114C16.0985 33.9778 13.9739 32.232 11.4288 32.232C8.99225 32.232 6.946 33.8293 6.23277 36.0221L3.18333 35.2575V26.7805ZM11.4288 34.9577C12.9638 34.9577 14.1773 36.1611 14.1773 37.6834C14.1773 39.2058 12.9638 40.4092 11.4288 40.4092C9.89376 40.4092 8.6803 39.2058 8.6803 37.6834C8.6803 36.1611 9.89376 34.9577 11.4288 34.9577ZM34.7909 34.9577C36.326 34.9577 37.5394 36.1611 37.5394 37.6834C37.5394 39.2058 36.326 40.4092 34.7909 40.4092C33.2559 40.4092 32.0424 39.2058 32.0424 37.6834C32.0424 36.1611 33.2559 34.9577 34.7909 34.9577Z" fill="#FFC41E"/>
</svg>
