<svg width="30" height="41" viewBox="0 0 30 41" fill="none" xmlns="http://www.w3.org/2000/svg">
<path fill-rule="evenodd" clip-rule="evenodd" d="M13.5312 1.46032C13.0592 1.46032 12.6043 1.65225 12.267 1.99772C11.9294 2.34357 11.7377 2.81506 11.7377 3.30905V5.93944C11.7377 5.94165 11.7377 5.94385 11.7377 5.94605V18.8163C11.7377 19.2196 11.4135 19.5465 11.0135 19.5465C10.6136 19.5465 10.2894 19.2196 10.2894 18.8163V18.7858C10.2894 18.7847 10.2894 18.7835 10.2894 18.7824V5.94083C10.288 5.46052 10.0928 4.99583 9.73944 4.64957C9.38405 4.30136 8.89773 4.10215 8.38644 4.10215C7.87515 4.10215 7.38883 4.30136 7.03345 4.64957C6.67877 4.99708 6.48348 5.46388 6.48348 5.94605V10.9858L6.48356 11.0095V20.0187L6.48348 20.0299V20.1033C6.48348 20.5066 6.15927 20.8335 5.75934 20.8335C5.35941 20.8335 5.0352 20.5066 5.0352 20.1033V10.9918C5.03066 10.506 4.83986 10.043 4.50644 9.70209C4.16929 9.35739 3.71418 9.16562 3.24178 9.16562C2.76938 9.16562 2.31427 9.35739 1.97712 9.70209C1.63964 10.0471 1.44828 10.5172 1.44828 11.0095V25.1668C1.44828 25.5701 1.12407 25.897 0.724138 25.897C0.324207 25.897 0 25.5701 0 25.1668V11.0095C0 10.1364 0.339137 9.2971 0.945954 8.67668C1.55311 8.05593 2.37874 7.70531 3.24178 7.70531C3.88543 7.70531 4.50828 7.90032 5.0352 8.25698V5.94605C5.0352 5.06285 5.39348 4.22021 6.02415 3.60227C6.65412 2.98502 7.50423 2.64183 8.38644 2.64183C9.06941 2.64183 9.73315 2.84752 10.2904 3.22681C10.3109 2.38254 10.6473 1.57518 11.2349 0.973282C11.8419 0.351473 12.6677 0 13.5312 0C14.3947 0 15.2204 0.351473 15.8275 0.973282C16.4341 1.5947 16.773 2.43512 16.773 3.30905V4.54457C17.3303 4.16713 17.9939 3.96276 18.6762 3.96276C19.5571 3.96276 20.4067 4.30342 21.037 4.91739C21.6681 5.53217 22.0274 6.37148 22.0274 7.25215V25.1668C22.0274 25.5701 21.7032 25.897 21.3033 25.897C20.9034 25.897 20.5791 25.5701 20.5791 25.1668V7.25215C20.5791 6.77533 20.3849 6.31273 20.0307 5.96762C19.6756 5.62168 19.1888 5.42308 18.6762 5.42308C18.1636 5.42308 17.6768 5.62168 17.3217 5.96762C16.9674 6.31273 16.7732 6.77533 16.7732 7.25215V18.8487C16.7732 19.2519 16.449 19.5788 16.0491 19.5788C15.6491 19.5788 15.3249 19.2519 15.3249 18.8487V18.802L15.3247 18.7824V3.30905C15.3247 2.81506 15.133 2.34357 14.7954 1.99772C14.4581 1.65225 14.0031 1.46032 13.5312 1.46032Z" fill="black"/>
<path fill-rule="evenodd" clip-rule="evenodd" d="M28.1041 16.5259C27.3701 16.105 26.5274 15.98 25.7459 16.1351C25.6691 16.1504 25.5928 16.1683 25.5173 16.189M27.3881 17.7953C26.9185 17.526 26.3753 17.4674 25.8965 17.5984C25.4453 17.7218 25.06 18.0099 24.8324 18.4462C24.6891 18.721 23.9761 20.4499 23.273 22.1793C22.9276 23.0288 22.5924 23.8588 22.3435 24.4766C22.2191 24.7854 22.1163 25.0411 22.0446 25.2196L21.9324 25.4989C21.9324 25.4989 21.9323 25.4992 21.261 25.2255C20.5896 24.9518 20.5897 24.9517 20.5897 24.9517L20.7023 24.6713C20.7741 24.4924 20.8771 24.2363 21.0018 23.927C21.251 23.3084 21.5868 22.4768 21.933 21.6254C22.613 19.9528 23.3652 18.1221 23.5505 17.7666C23.9495 17.0016 24.6067 16.4878 25.3448 16.2413C25.4019 16.2223 25.4594 16.2048 25.5173 16.189M28.1041 16.5259C28.6557 16.8422 29.0729 17.2736 29.3411 17.7948C29.832 18.7488 29.7672 19.8784 29.3778 20.9436C29.2053 21.4155 28.1487 24.329 27.1345 27.1266C26.6276 28.5249 26.1315 29.8937 25.7621 30.9129L25.1501 32.6015C25.1501 32.6015 25.15 32.6016 24.4699 32.351L25.1501 32.6015C25.1462 32.6121 25.1421 32.6227 25.1378 32.6331C24.2933 34.6664 23.1006 36.5809 21.1503 37.9786C19.1969 39.3785 16.5584 40.2067 12.9179 40.2067C9.22251 40.2067 5.96699 38.9603 3.64071 36.4101C1.31975 33.8657 0 30.1076 0 25.2255C0 24.8222 0.324207 24.4953 0.724138 24.4953C1.12407 24.4953 1.44828 24.8222 1.44828 25.2255C1.44828 29.8495 2.69563 33.2169 4.70666 35.4215C6.71237 37.6203 9.55373 38.7464 12.9179 38.7464C16.3369 38.7464 18.6605 37.9714 20.3113 36.7883C21.9607 35.6062 23.013 33.9637 23.7955 32.0844L24.4018 30.4116C24.7712 29.3924 25.2673 28.0236 25.7743 26.6252C26.7878 23.8294 27.8455 20.9129 28.0189 20.4385C28.3214 19.6111 28.2973 18.9371 28.0556 18.4674C27.9249 18.2133 27.7137 17.982 27.3881 17.7953M20.9895 25.9024C20.6188 25.7513 20.4398 25.3256 20.5897 24.9517L21.261 25.2255L21.9324 25.4989C21.7825 25.8728 21.3603 26.0536 20.9895 25.9024Z" fill="black"/>
<path fill-rule="evenodd" clip-rule="evenodd" d="M14.3104 26.4703C14.3791 26.4806 14.4484 26.4858 14.5178 26.4858C15.0266 26.4858 15.5211 26.215 15.911 25.723C16.258 25.2852 16.4991 24.6957 16.5909 24.0624C16.8078 22.556 16.1469 21.2545 15.0863 21.097C15.0176 21.0867 14.9483 21.0815 14.8789 21.0815C14.3707 21.0822 13.8753 21.3527 13.486 21.8436C13.1387 22.2812 12.8962 22.8713 12.8058 23.5056C12.5889 25.012 13.2498 26.3135 14.3104 26.4703ZM10.3578 26.4858C9.84928 26.4858 9.35452 26.215 8.96461 25.7231C8.6173 25.2852 8.37483 24.6957 8.2844 24.0631C8.06749 22.556 8.72837 21.2546 9.78899 21.0977C9.85765 21.0874 9.92698 21.0822 9.9964 21.0822C10.5046 21.0822 11 21.3527 11.3893 21.8437C11.7366 22.2812 11.979 22.8713 12.0698 23.505C12.2867 25.012 11.6258 26.3135 10.5652 26.4703C10.4965 26.4807 10.4272 26.4858 10.3578 26.4858ZM20.1177 25.5221C19.9358 25.0875 19.6337 24.7741 19.2438 24.6163L19.2386 24.6143C19.0611 24.5444 18.8722 24.5087 18.6816 24.5089H18.6606C17.7681 24.5224 16.8568 25.2852 16.3935 26.4071C16.0538 27.2275 16.0148 28.1099 16.2893 28.7675C16.4709 29.2025 16.7736 29.5158 17.1652 29.6736L17.1694 29.6753C17.3469 29.7451 17.5358 29.7809 17.7264 29.7807C18.6275 29.7807 19.5482 29.0179 20.02 27.8812C20.3556 27.0618 20.3926 26.1801 20.1177 25.5221ZM16.5514 30.361C16.0367 30.0499 15.5501 29.7557 15.2323 29.2272C14.3555 27.7643 13.826 26.8813 12.4377 26.8813C11.0494 26.8813 10.5186 27.7643 9.63985 29.2272C9.3217 29.7558 8.83484 30.0503 8.31905 30.3623L8.31743 30.3633L8.31737 30.3633C7.72532 30.7211 7.11362 31.0908 6.84954 31.8183C6.74687 32.0806 6.69515 32.3602 6.69718 32.642C6.69718 33.8265 7.61461 34.7903 8.74175 34.7903C9.32334 34.7903 9.94228 34.5876 10.5973 34.3731C11.227 34.1669 11.8781 33.9537 12.441 33.9537C13.0039 33.9537 13.6533 34.1669 14.2808 34.3731L14.2984 34.3789C14.9455 34.59 15.5557 34.789 16.1337 34.789C17.2592 34.789 18.175 33.8252 18.175 32.6407C18.1759 32.3586 18.1231 32.079 18.0193 31.817C17.7553 31.0889 17.1434 30.7189 16.5517 30.3612L16.5517 30.3611L16.5514 30.361ZM7.71062 29.6736L7.70603 29.6753C7.52888 29.7451 7.34027 29.7809 7.15 29.7807C6.24993 29.7807 5.32954 29.0176 4.86001 27.8822C4.52089 27.0618 4.48222 26.1804 4.7568 25.5214C4.93799 25.0868 5.24042 24.7725 5.63033 24.616L5.63492 24.6143C5.81237 24.5444 6.00133 24.5086 6.19193 24.5089C7.092 24.5089 8.01239 25.272 8.48192 26.4074C8.82104 27.2278 8.8597 28.1092 8.58513 28.7682C8.40394 29.2028 8.10151 29.5158 7.71062 29.6736Z" fill="#FFC41E"/>
<path fill-rule="evenodd" clip-rule="evenodd" d="M26.6201 16.4187C26.5107 16.3691 26.3778 16.3985 26.3003 16.4972C26.2676 16.5389 26.2492 16.5874 26.2444 16.6365C26.2363 16.6546 26.2299 16.6728 26.2252 16.6908C26.2058 16.7647 26.2135 16.8318 26.2203 16.8703C26.2412 16.9877 26.3161 17.0576 26.373 17.0931C26.416 17.1199 26.4667 17.1369 26.4721 17.1387C26.4764 17.1403 26.4811 17.142 26.4854 17.1435C26.4926 17.1553 26.5005 17.1667 26.5091 17.1778C26.529 17.203 26.5505 17.2233 26.5715 17.2396C26.5724 17.2762 26.5798 17.3141 26.5956 17.3518C26.6301 17.4344 26.6907 17.4814 26.7273 17.5046C26.7859 17.5417 26.8493 17.5592 26.8876 17.5674C26.8935 17.5722 26.9011 17.5792 26.9157 17.5925C26.919 17.5955 26.9312 17.5805 26.9268 17.6025C26.9281 17.6038 26.9296 17.6051 26.9312 17.6066C26.9673 17.6395 26.9039 17.5797 27.0264 17.6066C27.1244 17.6724 27.0264 17.6369 27.1244 17.6724C27.2117 17.704 27.1958 17.6528 27.3371 17.7636C27.3549 17.7776 27.3619 17.8066 27.4331 17.8196C27.5889 17.8482 27.6458 17.8186 27.6825 17.7774C27.7031 17.7542 27.7179 17.7318 27.7268 17.7175C27.7341 17.7059 27.7429 17.6904 27.7442 17.6881C27.7772 17.6318 27.7955 17.5784 27.8075 17.5396C27.8135 17.5201 27.8174 17.5068 27.8204 17.4963C27.8248 17.4812 27.8275 17.4717 27.8328 17.4573C27.8497 17.4112 27.8772 17.365 27.9012 17.3385C27.9048 17.3346 27.9089 17.3306 27.9164 17.3245C27.9206 17.3211 27.9255 17.3172 27.9325 17.3118L27.9438 17.3032L27.9573 17.2929C28.0278 17.2386 28.0778 17.1693 28.104 17.1328C28.1592 17.0557 28.1752 16.9684 28.1811 16.9289C28.1817 16.9279 28.1823 16.9268 28.1831 16.9256C28.1866 16.9214 28.1975 16.9082 28.2066 16.8954C28.2199 16.8767 28.2373 16.8489 28.2506 16.8122C28.2642 16.7747 28.2707 16.7358 28.2707 16.6967C28.2707 16.549 28.0938 16.5433 27.9164 16.4269C27.7986 16.4269 27.7859 16.5057 27.7505 16.6118C27.746 16.618 27.7412 16.625 27.7363 16.6326C27.7089 16.6755 27.6677 16.7466 27.6542 16.8417L27.654 16.8429C27.6495 16.8489 27.6454 16.8539 27.6416 16.8584C27.635 16.8662 27.6318 16.8689 27.6318 16.8689C27.6287 16.8713 27.6253 16.8739 27.6215 16.8767C27.5944 16.8972 27.5493 16.9312 27.5065 16.9784C27.4392 17.0523 27.3858 17.1427 27.3493 17.2285C27.334 17.2242 27.3173 17.2207 27.2994 17.2186C27.2956 17.2154 27.291 17.2113 27.2854 17.2063C27.2834 17.2045 27.281 17.2023 27.2784 17.1999C27.2644 17.187 27.2419 17.1663 27.2165 17.1461C27.2194 17.1127 27.2177 17.0651 27.1958 17.0134C27.1821 16.981 27.1633 16.9534 27.1414 16.9306L27.1438 16.9287C27.2021 16.8817 27.2493 16.8028 27.2457 16.7055C27.2427 16.6251 27.206 16.5698 27.1874 16.5457C27.1496 16.4969 27.1043 16.471 27.0825 16.4598C27.0551 16.4457 27.0226 16.4336 26.987 16.4269C26.8955 16.4097 26.8084 16.4115 26.7482 16.4128C26.7437 16.4129 26.7387 16.413 26.7334 16.4131C26.7047 16.4136 26.6652 16.4143 26.6201 16.4187Z" fill="black"/>
<path fill-rule="evenodd" clip-rule="evenodd" d="M25.4634 16.2762C25.523 16.2164 25.6815 16.1553 25.8079 16.1216C25.9134 16.1619 26.0233 16.1912 26.1486 16.2246M25.4634 16.2762C25.4109 16.4143 25.48 16.5688 25.6178 16.6214L25.4634 16.2762ZM26.2094 16.2397C26.2449 16.2043 26.2836 16.1826 26.3133 16.1692L26.3154 16.168L26.3166 16.1674C26.3225 16.1642 26.3337 16.1582 26.3455 16.1523C26.3571 16.1466 26.3781 16.1366 26.4031 16.1285C26.4157 16.1244 26.4355 16.1187 26.4598 16.1155C26.4816 16.1127 26.5254 16.1092 26.5771 16.1244C26.608 16.1335 26.6324 16.1459 26.6488 16.1553C26.6653 16.1648 26.6786 16.1742 26.6866 16.1799L26.697 16.1876L26.7001 16.1899C26.7096 16.1955 26.7202 16.2014 26.735 16.2095C26.7473 16.2163 26.7632 16.2252 26.7797 16.2349C26.8195 16.2075 26.8589 16.196 26.8788 16.1918C26.9219 16.1827 26.9569 16.1865 26.9685 16.1878C26.9844 16.1897 26.9976 16.1926 27.0056 16.1946C27.0334 16.2014 27.0601 16.2119 27.0724 16.2168C27.0963 16.2264 27.1254 16.2394 27.1417 16.2474C27.1448 16.2459 27.1479 16.2444 27.1511 16.243C27.1788 16.2306 27.2109 16.2206 27.2468 16.2164C27.2831 16.2122 27.3144 16.2151 27.3385 16.2193C27.3541 16.2221 27.3688 16.2261 27.3749 16.2278C27.4555 16.242 27.5468 16.2625 27.6518 16.3362C27.6737 16.3516 27.6948 16.3673 27.7155 16.3838C27.7927 16.3869 27.8491 16.4219 27.881 16.4494C27.8889 16.4562 27.8959 16.463 27.9021 16.4697C27.9775 16.517 28.0277 16.6009 28.0277 16.6966C28.0277 16.7201 28.0247 16.7428 28.019 16.7645C28.0368 16.8169 28.0422 16.8712 28.0373 16.9254C28.0368 16.9312 28.0359 16.9409 28.0342 16.9531C28.0671 16.9885 28.0868 17.0245 28.0949 17.0394L28.1039 17.056C28.1051 17.0577 28.1066 17.0598 28.1084 17.0622C28.1365 17.1007 28.2234 17.2197 28.214 17.3815C28.2053 17.5294 28.1088 17.6188 28.0413 17.6599C27.9737 17.701 27.8935 17.7221 27.8177 17.7205C27.7196 17.7183 27.6214 17.6834 27.5778 17.6679C27.5721 17.6658 27.5674 17.6641 27.5637 17.6629C27.5224 17.649 27.4814 17.6347 27.4406 17.6201V17.5358C27.3998 17.5372 27.2987 17.6209 27.2643 17.6204C27.2149 17.4801 27.3087 17.5358 27.229 17.6201L27.1865 17.5266L27.2176 17.5358L27.2149 17.5347C27.1014 17.5035 26.9964 17.4616 26.9017 17.4209C26.892 17.4167 26.8804 17.4122 26.8617 17.4049C26.8449 17.3984 26.8227 17.3898 26.8003 17.3802C26.759 17.3625 26.6931 17.3318 26.635 17.2811C26.6291 17.276 26.6146 17.2631 26.5995 17.244C26.5919 17.2345 26.5785 17.2165 26.5666 17.1912C26.5558 17.1685 26.5355 17.1176 26.542 17.0504C26.5497 16.9702 26.5923 16.9021 26.6512 16.8593C26.6792 16.8389 26.7069 16.8271 26.7295 16.8201C26.7186 16.8141 26.707 16.8079 26.6951 16.8014C26.6824 16.7945 26.6692 16.7873 26.6557 16.78C26.641 16.8149 26.6187 16.8508 26.5855 16.8828C26.5335 16.9331 26.4752 16.9542 26.4327 16.9631C26.3937 16.9712 26.3597 16.9708 26.3452 16.9705C26.3385 16.9704 26.3314 16.9701 26.3274 16.97L26.3257 16.9699L26.3247 16.9699C26.3222 16.9701 26.3178 16.9703 26.3106 16.9708C26.2967 16.9716 26.2729 16.9728 26.2468 16.9718C26.2274 16.971 26.1761 16.9684 26.122 16.9458C26.0931 16.9338 26.0442 16.9082 26.0037 16.8558C25.9732 16.8164 25.9547 16.7711 25.9479 16.7246C25.8426 16.6962 25.7286 16.6637 25.6178 16.6214M26.2094 16.2397L26.2082 16.2395C26.2066 16.2392 26.2051 16.2389 26.2038 16.2387C26.1959 16.2371 26.193 16.2365 26.193 16.2365M26.6382 16.3777C26.6372 16.3758 26.6376 16.3762 26.6386 16.3786L26.6382 16.3777Z" fill="black"/>
<path fill-rule="evenodd" clip-rule="evenodd" d="M27.6645 17.0799C27.6963 16.9357 27.8388 16.8446 27.9828 16.8765C28.0121 16.8829 28.0363 16.8924 28.0543 16.9007C28.1862 16.9169 28.2883 17.0296 28.2883 17.1661C28.2883 17.2764 28.2217 17.3711 28.1266 17.412C28.1027 17.4239 28.0816 17.4298 28.0679 17.433C28.0498 17.4372 28.0346 17.4387 28.0249 17.4393C28.0061 17.4405 27.9912 17.4395 27.9847 17.4389C27.9769 17.4383 27.9704 17.4375 27.9664 17.4369C27.9276 17.4313 27.8963 17.4197 27.8745 17.4098C27.8574 17.4021 27.8426 17.3938 27.8348 17.3893C27.7102 17.3445 27.6352 17.2129 27.6645 17.0799ZM28.214 17.0011C28.2121 16.9989 28.2146 17.0018 28.2175 17.0056L28.214 17.0011Z" fill="black"/>
<path fill-rule="evenodd" clip-rule="evenodd" d="M27.7153 16.9723C27.8063 16.8562 27.9742 16.836 28.0901 16.9273C28.0958 16.9317 28.1031 16.937 28.1135 16.944C28.2359 17.0263 28.2686 17.1925 28.1864 17.3151C28.1043 17.4378 27.9384 17.4705 27.816 17.3882C27.7995 17.3771 27.7803 17.3636 27.7602 17.3479C27.6443 17.2566 27.6242 17.0885 27.7153 16.9723Z" fill="black"/>
<path fill-rule="evenodd" clip-rule="evenodd" d="M25.6305 16.7238C25.6079 16.724 25.5831 16.7243 25.5555 16.7243C25.4081 16.7243 25.2886 16.6045 25.2886 16.4568C25.2886 16.3091 25.4081 16.1894 25.5555 16.1894C25.5693 16.1894 25.5849 16.1892 25.6019 16.1889C25.6881 16.1878 25.811 16.1861 25.9263 16.2091C25.999 16.2236 26.0746 16.2293 26.1587 16.2293H26.2954C26.2889 16.2293 26.3287 16.2284 26.3562 16.2302C26.3723 16.2313 26.3988 16.2339 26.4286 16.2418C26.4534 16.2484 26.5126 16.2666 26.5652 16.3197C26.6691 16.4244 26.6686 16.5938 26.564 16.6979C26.4919 16.7696 26.3893 16.7917 26.2984 16.7642L26.2954 16.7642H26.1587C26.0507 16.7642 25.9385 16.7569 25.8221 16.7337C25.7668 16.7227 25.7128 16.7231 25.6305 16.7238Z" fill="black"/>
</svg>
