<svg width="49" height="64" viewBox="0 0 49 64" fill="none" xmlns="http://www.w3.org/2000/svg">
<path fill-rule="evenodd" clip-rule="evenodd" d="M6.18792 15.2375C5.52588 15.2375 4.88677 15.504 4.41234 15.9851C3.93723 16.4668 3.66673 17.1245 3.66673 17.8145V40.0542C3.66673 40.8642 3.01008 41.5209 2.20007 41.5209C1.39005 41.5209 0.733398 40.8642 0.733398 40.0542V17.8145C0.733398 16.3596 1.30319 14.9602 2.32382 13.9253C3.34512 12.8898 4.73467 12.3042 6.18792 12.3042C7.64117 12.3042 9.03072 12.8898 10.052 13.9253C11.0726 14.9602 11.6424 16.3596 11.6424 17.8145V31.967C11.6424 32.777 10.9858 33.4337 10.1758 33.4337C9.36576 33.4337 8.70911 32.777 8.70911 31.967V17.8145C8.70911 17.1245 8.43861 16.4668 7.9635 15.9851C7.48907 15.504 6.84996 15.2375 6.18792 15.2375Z" fill="black"/>
<path fill-rule="evenodd" clip-rule="evenodd" d="M14.3369 7.28343C13.6089 7.28343 12.9189 7.56485 12.4166 8.05296C11.9157 8.53968 11.6423 9.19071 11.6423 9.86035V32.1001C11.6423 32.9101 10.9857 33.5668 10.1757 33.5668C9.36563 33.5668 8.70898 32.9101 8.70898 32.1001V9.86035C8.70898 8.38515 9.31245 6.97917 10.3723 5.94925C11.4308 4.92072 12.8576 4.3501 14.3369 4.3501C15.8161 4.3501 17.243 4.92072 18.3014 5.94925C19.3613 6.97917 19.9648 8.38515 19.9648 9.86035V30.0783C19.9648 30.8883 19.3082 31.545 18.4981 31.545C17.6881 31.545 17.0315 30.8883 17.0315 30.0783V9.86035C17.0315 9.19071 16.7581 8.53968 16.2572 8.05296C15.7549 7.56485 15.0649 7.28343 14.3369 7.28343Z" fill="black"/>
<path fill-rule="evenodd" clip-rule="evenodd" d="M30.6352 9.35814C29.9046 9.35814 29.2136 9.63903 28.7119 10.1238C28.2118 10.6069 27.9407 11.2511 27.9407 11.9118V30.1288C27.9407 30.9388 27.284 31.5955 26.474 31.5955C25.664 31.5955 25.0073 30.9388 25.0073 30.1288V11.9118C25.0073 10.4399 25.613 9.039 26.6737 8.0142C27.7327 6.99105 29.1586 6.4248 30.6352 6.4248C32.1119 6.4248 33.5377 6.99105 34.5967 8.0142C35.6575 9.039 36.2631 10.4399 36.2631 11.9118V40.054C36.2631 40.864 35.6065 41.5206 34.7965 41.5206C33.9865 41.5206 33.3298 40.864 33.3298 40.054V11.9118C33.3298 11.2511 33.0586 10.6069 32.5586 10.1238C32.0568 9.63903 31.3659 9.35814 30.6352 9.35814Z" fill="black"/>
<path fill-rule="evenodd" clip-rule="evenodd" d="M22.486 3.13328C21.8249 3.13328 21.1861 3.39987 20.7114 3.88207C20.236 4.36505 19.9648 5.02496 19.9648 5.71781V30.025C19.9648 30.835 19.3082 31.4916 18.4982 31.4916C17.6881 31.4916 17.0315 30.835 17.0315 30.025V5.71781C17.0315 4.26177 17.6006 2.86081 18.6209 1.8243C19.642 0.787003 21.0319 0.199951 22.486 0.199951C23.9402 0.199951 25.33 0.787003 26.3511 1.8243C27.3714 2.86081 27.9405 4.26177 27.9405 5.71781V30.025C27.9405 30.835 27.2839 31.4916 26.4739 31.4916C25.6639 31.4916 25.0072 30.835 25.0072 30.025V5.71781C25.0072 5.02496 24.7361 4.36505 24.2606 3.88207C23.786 3.39987 23.1472 3.13328 22.486 3.13328Z" fill="black"/>
<path fill-rule="evenodd" clip-rule="evenodd" d="M38.0734 28.2804C39.5764 25.4216 43.131 24.7257 45.7269 26.2023C47.0548 26.9574 47.9017 28.0999 48.2365 29.4584C48.5616 30.777 48.3804 32.1892 47.8872 33.5282C47.887 33.5289 47.8867 33.5296 47.8864 33.5304L41.1899 51.8435C41.1822 51.8647 41.174 51.8856 41.1653 51.9064C39.8141 55.1328 37.8942 58.1986 34.7396 60.4408C31.5787 62.6874 27.3298 64.0001 21.5145 64.0001C15.5881 64.0001 10.34 62.0158 6.58454 57.9327C2.83982 53.8613 0.733398 47.8721 0.733398 40.1463C0.733398 39.3363 1.39005 38.6796 2.20007 38.6796C3.01008 38.6796 3.66673 39.3363 3.66673 40.1463C3.66673 47.3537 5.62651 52.558 8.74351 55.9469C11.8497 59.3241 16.2589 61.0667 21.5145 61.0667C26.8813 61.0667 30.4923 59.8608 33.0402 58.0498C35.5856 56.2407 37.2211 53.721 38.4467 50.8041L45.1328 32.5195L45.1341 32.5159C45.4866 31.5595 45.5363 30.76 45.3885 30.1605C45.2504 29.6002 44.9199 29.1178 44.277 28.7522L44.2767 28.7521C42.9477 27.996 41.3479 28.4313 40.6975 29.5943L36.0843 40.7086C35.7738 41.4567 34.9156 41.8115 34.1674 41.5009C33.4193 41.1904 33.0646 40.3322 33.3751 39.5841L38.0169 28.4007C38.0339 28.3598 38.0527 28.3196 38.0734 28.2804Z" fill="black"/>
<path fill-rule="evenodd" clip-rule="evenodd" d="M23.7204 42.102C23.8292 42.1181 23.939 42.1263 24.0489 42.1263C24.8549 42.1263 25.6381 41.7008 26.2557 40.9281C26.8053 40.2402 27.1873 39.3142 27.3326 38.3194C27.6762 35.9529 26.6294 33.9085 24.9494 33.661C24.8406 33.6449 24.7308 33.6367 24.6209 33.6367C23.8159 33.6378 23.0312 34.0627 22.4146 34.8339C21.8645 35.5213 21.4804 36.4483 21.3372 37.4447C20.9936 39.8111 22.0404 41.8556 23.7204 42.102ZM17.4595 42.1263C16.654 42.1263 15.8703 41.7009 15.2527 40.9281C14.7026 40.2402 14.3185 39.3142 14.1753 38.3205C13.8317 35.953 14.8785 33.9085 16.5585 33.6621C16.6673 33.6459 16.7771 33.6378 16.887 33.6378C17.692 33.6378 18.4767 34.0627 19.0933 34.8339C19.6434 35.5213 20.0275 36.4483 20.1712 37.4436C20.5148 39.8111 19.468 41.8556 17.788 42.102C17.6792 42.1182 17.5694 42.1263 17.4595 42.1263ZM32.9186 40.6123C32.6306 39.9296 32.1521 39.4374 31.5344 39.1895L31.5261 39.1864C31.245 39.0766 30.9458 39.0204 30.6439 39.0207H30.6106C29.1969 39.042 27.7536 40.2402 27.0197 42.0026C26.4815 43.2914 26.4198 44.6775 26.8547 45.7106C27.1422 46.3938 27.6217 46.8861 28.2419 47.134L28.2487 47.1366C28.5298 47.2463 28.8291 47.3025 29.131 47.3022C30.5582 47.3022 32.0166 46.104 32.7639 44.3183C33.2954 43.031 33.354 41.646 32.9186 40.6123ZM27.27 48.2137C26.4546 47.7251 25.6839 47.2629 25.1805 46.4326C23.7917 44.1345 22.953 42.7474 20.754 42.7474C18.555 42.7474 17.7142 44.1345 16.3223 46.4326C15.8183 47.263 15.0472 47.7257 14.2302 48.2158L14.2276 48.2173L14.2275 48.2174C13.2897 48.7794 12.3208 49.3602 11.9025 50.503C11.7399 50.915 11.658 51.3542 11.6612 51.797C11.6612 53.6577 13.1144 55.1717 14.8997 55.1717C15.8209 55.1717 16.8013 54.8534 17.8388 54.5164C18.8363 54.1924 19.8675 53.8575 20.7592 53.8575C21.6508 53.8575 22.6795 54.1924 23.6733 54.5164L23.7013 54.5255C24.7263 54.857 25.6928 55.1696 26.6082 55.1696C28.391 55.1696 29.8416 53.6556 29.8416 51.7949C29.8431 51.3518 29.7594 50.9126 29.5951 50.5009C29.1768 49.3572 28.2076 48.776 27.2704 48.2139L27.27 48.2137ZM13.2664 47.134L13.2592 47.1366C12.9786 47.2463 12.6798 47.3025 12.3784 47.3022C10.9528 47.3022 9.49491 46.1035 8.75119 44.3198C8.21403 43.031 8.15278 41.6465 8.5877 40.6113C8.87471 39.9286 9.35374 39.4348 9.97134 39.1889L9.97861 39.1864C10.2597 39.0765 10.559 39.0203 10.8609 39.0207C12.2866 39.0207 13.7444 40.2195 14.4882 42.0031C15.0253 43.2919 15.0866 44.6765 14.6516 45.7117C14.3646 46.3944 13.8856 46.8861 13.2664 47.134Z" fill="#FFC41E"/>
</svg>
