<svg width="37" height="47" viewBox="0 0 37 47" fill="none" xmlns="http://www.w3.org/2000/svg">
<path fill-rule="evenodd" clip-rule="evenodd" d="M4.9069 11.5364C4.41853 11.5364 3.94709 11.7302 3.59712 12.0801C3.24665 12.4304 3.04711 12.9087 3.04711 13.4105V29.5849C3.04711 30.174 2.56273 30.6516 1.96521 30.6516C1.36769 30.6516 0.883301 30.174 0.883301 29.5849V13.4105C0.883301 12.3524 1.30362 11.3347 2.05649 10.5821C2.80987 9.82894 3.83489 9.40308 4.9069 9.40308C5.9789 9.40308 7.00392 9.82894 7.7573 10.5821C8.51017 11.3347 8.93049 12.3524 8.93049 13.4105V23.7033C8.93049 24.2924 8.44611 24.77 7.84859 24.77C7.25107 24.77 6.76668 24.2924 6.76668 23.7033V13.4105C6.76668 12.9087 6.56714 12.4304 6.21667 12.0801C5.8667 11.7302 5.39526 11.5364 4.9069 11.5364Z" fill="black"/>
<path fill-rule="evenodd" clip-rule="evenodd" d="M10.9183 5.7515C10.3813 5.7515 9.87232 5.95616 9.50179 6.31115C9.13231 6.66513 8.93066 7.13861 8.93066 7.62562V23.8C8.93066 24.3891 8.44627 24.8666 7.84875 24.8666C7.25123 24.8666 6.76685 24.3891 6.76685 23.8V7.62562C6.76685 6.55275 7.212 5.53022 7.99384 4.78118C8.77462 4.03316 9.82715 3.61816 10.9183 3.61816C12.0095 3.61816 13.0621 4.03316 13.8428 4.78118C14.6247 5.53022 15.0698 6.55275 15.0698 7.62562V22.3296C15.0698 22.9187 14.5855 23.3963 13.9879 23.3963C13.3904 23.3963 12.906 22.9187 12.906 22.3296V7.62562C12.906 7.13861 12.7044 6.66513 12.3349 6.31115C11.9644 5.95616 11.4554 5.7515 10.9183 5.7515Z" fill="black"/>
<path fill-rule="evenodd" clip-rule="evenodd" d="M22.9408 7.26053C22.4018 7.26053 21.8921 7.46481 21.522 7.81737C21.1531 8.16872 20.9531 8.63726 20.9531 9.11773V22.3665C20.9531 22.9556 20.4687 23.4332 19.8712 23.4332C19.2737 23.4332 18.7893 22.9556 18.7893 22.3665V9.11773C18.7893 8.04728 19.2361 7.02843 20.0185 6.28312C20.7997 5.53901 21.8516 5.1272 22.9408 5.1272C24.03 5.1272 25.0819 5.53901 25.8631 6.28312C26.6455 7.02843 27.0923 8.04728 27.0923 9.11773V29.5848C27.0923 30.1739 26.6079 30.6514 26.0104 30.6514C25.4129 30.6514 24.9285 30.1739 24.9285 29.5848V9.11773C24.9285 8.63726 24.7285 8.16872 24.3596 7.81737C23.9895 7.46481 23.4798 7.26053 22.9408 7.26053Z" fill="black"/>
<path fill-rule="evenodd" clip-rule="evenodd" d="M16.9294 2.73319C16.4417 2.73319 15.9704 2.92707 15.6203 3.27776C15.2696 3.62902 15.0696 4.10895 15.0696 4.61284V22.2908C15.0696 22.8799 14.5852 23.3574 13.9877 23.3574C13.3901 23.3574 12.9058 22.8799 12.9058 22.2908V4.61284C12.9058 3.55391 13.3256 2.53502 14.0782 1.7812C14.8315 1.0268 15.8567 0.599854 16.9294 0.599854C18.002 0.599854 19.0273 1.0268 19.7805 1.7812C20.5331 2.53502 20.953 3.55391 20.953 4.61284V22.2908C20.953 22.8799 20.4686 23.3574 19.871 23.3574C19.2735 23.3574 18.7891 22.8799 18.7891 22.2908V4.61284C18.7891 4.10895 18.5891 3.62902 18.2384 3.27776C17.8883 2.92707 17.4171 2.73319 16.9294 2.73319Z" fill="black"/>
<path fill-rule="evenodd" clip-rule="evenodd" d="M28.4276 21.0222C29.5363 18.9431 32.1584 18.4369 34.0733 19.5108C35.0529 20.06 35.6776 20.8909 35.9246 21.8789C36.1644 22.8379 36.0307 23.865 35.6669 24.8387C35.6667 24.8393 35.6665 24.8398 35.6663 24.8404L30.7265 38.159C30.7208 38.1744 30.7148 38.1896 30.7084 38.2047C29.7117 40.5512 28.2954 42.7809 25.9684 44.4115C23.6367 46.0455 20.5025 47.0001 16.2128 47.0001C11.841 47.0001 7.96976 45.557 5.19947 42.5875C2.43713 39.6265 0.883301 35.2707 0.883301 29.6519C0.883301 29.0628 1.36769 28.5853 1.96521 28.5853C2.56273 28.5853 3.04711 29.0628 3.04711 29.6519C3.04711 34.8937 4.49277 38.6786 6.79206 41.1433C9.08341 43.5994 12.3359 44.8668 16.2128 44.8668C20.1716 44.8668 22.8353 43.9898 24.7148 42.6727C26.5925 41.3569 27.7989 39.5244 28.703 37.403L33.6351 24.1051L33.636 24.1025C33.8961 23.407 33.9327 22.8255 33.8237 22.3895C33.7218 21.982 33.478 21.6312 33.0038 21.3653L33.0036 21.3652C32.0232 20.8154 30.8431 21.1319 30.3633 21.9777L26.9603 30.0608C26.7313 30.6049 26.0982 30.8629 25.5463 30.6371C24.9945 30.4113 24.7328 29.7871 24.9618 29.243L28.3859 21.1097C28.3985 21.0799 28.4124 21.0507 28.4276 21.0222Z" fill="black"/>
<path fill-rule="evenodd" clip-rule="evenodd" d="M17.8403 31.0743C17.9206 31.086 18.0016 31.092 18.0827 31.092C18.6772 31.092 19.255 30.7825 19.7105 30.2205C20.116 29.7202 20.3977 29.0468 20.5049 28.3233C20.7584 26.6023 19.9862 25.1154 18.7469 24.9354C18.6667 24.9236 18.5857 24.9177 18.5046 24.9177C17.9108 24.9185 17.3319 25.2275 16.8771 25.7884C16.4713 26.2883 16.188 26.9625 16.0823 27.6871C15.8289 29.4082 16.6011 30.8951 17.8403 31.0743ZM13.2219 31.092C12.6277 31.092 12.0496 30.7826 11.594 30.2205C11.1882 29.7203 10.9049 29.0468 10.7993 28.3241C10.5458 26.6023 11.318 25.1154 12.5573 24.9362C12.6375 24.9244 12.7185 24.9185 12.7996 24.9185C13.3934 24.9185 13.9723 25.2276 14.4271 25.7884C14.8329 26.2883 15.1162 26.9625 15.2223 27.6864C15.4757 29.4082 14.7035 30.8951 13.4642 31.0743C13.384 31.0861 13.303 31.092 13.2219 31.092ZM24.6255 29.9909C24.413 29.4944 24.0601 29.1364 23.6045 28.9561L23.5983 28.9538C23.391 28.874 23.1702 28.8331 22.9475 28.8334H22.923C21.8801 28.8488 20.8155 29.7202 20.2741 31.002C19.8771 31.9393 19.8316 32.9474 20.1524 33.6987C20.3645 34.1956 20.7182 34.5536 21.1757 34.7339L21.1807 34.7358C21.3881 34.8156 21.6088 34.8565 21.8315 34.8563C22.8843 34.8563 23.9601 33.9848 24.5114 32.6861C24.9035 31.75 24.9467 30.7426 24.6255 29.9909ZM20.4587 35.5191C19.8573 35.1638 19.2888 34.8276 18.9174 34.2238C17.8929 32.5525 17.2742 31.5437 15.6521 31.5437C14.03 31.5437 13.4098 32.5525 12.383 34.2238C12.0113 34.8278 11.4424 35.1642 10.8398 35.5207L10.8379 35.5218L10.8378 35.5218C10.146 35.9306 9.4313 36.353 9.12274 37.1841C9.00278 37.4837 8.94235 37.8032 8.94472 38.1252C8.94472 39.4785 10.0167 40.5795 11.3337 40.5795C12.0132 40.5795 12.7364 40.348 13.5017 40.103C14.2375 39.8673 14.9982 39.6238 15.656 39.6238C16.3137 39.6238 17.0725 39.8673 17.8056 40.103L17.8263 40.1095C18.5824 40.3507 19.2953 40.578 19.9706 40.578C21.2857 40.578 22.3557 39.4769 22.3557 38.1237C22.3568 37.8014 22.2951 37.482 22.1739 37.1826C21.8653 36.3508 21.1504 35.9281 20.4591 35.5193L20.4587 35.5191ZM10.1289 34.7339L10.1235 34.7358C9.91651 34.8156 9.69613 34.8564 9.47381 34.8563C8.42214 34.8563 7.34673 33.9845 6.79812 32.6873C6.40188 31.75 6.3567 30.743 6.67752 29.9901C6.88924 29.4936 7.2426 29.1345 7.69818 28.9557L7.70354 28.9538C7.91089 28.8739 8.13167 28.8331 8.35438 28.8334C9.40605 28.8334 10.4815 29.7052 11.0301 31.0024C11.4263 31.9397 11.4715 32.9466 11.1507 33.6995C10.939 34.196 10.5856 34.5536 10.1289 34.7339Z" fill="#FFC41E"/>
</svg>
