<svg width="82" height="111" viewBox="0 0 82 111" fill="none" xmlns="http://www.w3.org/2000/svg">
<path d="M2 68.9351V30.1564C2 28.2864 2.7326 26.4931 4.03663 25.1708C5.34066 23.8485 7.10931 23.1057 8.95349 23.1057V23.1057C10.7977 23.1057 12.5663 23.8485 13.8703 25.1708C15.1744 26.4931 15.907 28.2864 15.907 30.1564V54.8337" stroke="black" stroke-width="4" stroke-linecap="round" stroke-linejoin="round"/>
<path d="M15.9072 55.0657V16.287C15.9072 14.417 16.6717 12.6237 18.0324 11.3014C19.3931 9.97916 21.2387 9.23633 23.163 9.23633C25.0874 9.23633 26.9329 9.97916 28.2937 11.3014C29.6544 12.6237 30.4189 14.417 30.4189 16.287V51.5404" stroke="black" stroke-width="4" stroke-linecap="round" stroke-linejoin="round"/>
<path d="M44.3262 51.629V19.8646C44.3262 18.0054 45.0906 16.2223 46.4514 14.9077C47.8121 13.5931 49.6576 12.8545 51.582 12.8545V12.8545C53.5063 12.8545 55.3519 13.5931 56.7126 14.9077C58.0733 16.2223 58.8378 18.0054 58.8378 19.8646V68.9352" stroke="black" stroke-width="4" stroke-linecap="round" stroke-linejoin="round"/>
<path d="M30.418 51.4475V9.06392C30.418 7.19045 31.1506 5.39372 32.4546 4.06898C33.7586 2.74423 35.5273 2 37.3715 2C39.2156 2 40.9843 2.74423 42.2883 4.06898C43.5923 5.39372 44.3249 7.19045 44.3249 9.06392V51.4475" stroke="black" stroke-width="4" stroke-linecap="round" stroke-linejoin="round"/>
<path d="M2 69.096C2 95.1345 16.1802 108.132 35.678 108.132C55.1758 108.132 63.0879 99.3486 67.5834 88.6138L79.2622 56.6756C80.7378 52.6722 80.0687 48.9594 76.6322 47.0054C73.1935 45.0492 68.6758 46.0561 66.8146 49.5959L58.7208 69.096" stroke="black" stroke-width="4" stroke-linecap="round" stroke-linejoin="round"/>
<path fill-rule="evenodd" clip-rule="evenodd" d="M39.5244 72.5057C39.7141 72.5339 39.9055 72.5481 40.0973 72.5481C41.5027 72.5481 42.8683 71.8062 43.9451 70.4588C44.9035 69.2593 45.5695 67.6447 45.8229 65.9101C46.422 61.7838 44.5967 58.2189 41.6674 57.7875C41.4777 57.7593 41.2863 57.7451 41.0945 57.7451C39.691 57.7469 38.3227 58.4879 37.2476 59.8326C36.2883 61.0312 35.6187 62.6476 35.3689 64.3849C34.7698 68.5112 36.5951 72.0761 39.5244 72.5057ZM28.6078 72.5482C27.2033 72.5482 25.8368 71.8063 24.7599 70.4589C23.8007 69.2594 23.131 67.6448 22.8812 65.912C22.2822 61.7839 24.1074 58.219 27.0368 57.7894C27.2264 57.7612 27.4179 57.747 27.6096 57.747C29.0132 57.747 30.3815 58.488 31.4566 59.8327C32.4158 61.0313 33.0855 62.6476 33.3362 64.3832C33.9352 68.5113 32.11 72.0762 29.1806 72.5058C28.991 72.534 28.7995 72.5482 28.6078 72.5482ZM55.5635 69.9083C55.0612 68.7179 54.2268 67.8596 53.15 67.4273L53.1355 67.4219C52.6453 67.2304 52.1235 67.1324 51.597 67.1331H51.5391C49.074 67.1701 46.5574 69.2594 45.2778 72.3324C44.3393 74.5797 44.2316 76.9966 44.99 78.798C45.4913 79.9893 46.3275 80.8476 47.4089 81.2799L47.4207 81.2844C47.9109 81.4757 48.4327 81.5737 48.9591 81.5732C51.4477 81.5732 53.9907 79.4839 55.2938 76.3703C56.2205 74.1257 56.3227 71.7106 55.5635 69.9083ZM45.7138 83.1626C44.2922 82.3107 42.9483 81.5047 42.0705 80.0571C39.6488 76.05 38.1864 73.6312 34.3521 73.6312C30.5179 73.6312 29.0518 76.05 26.6247 80.0571C25.746 81.505 24.4014 82.3117 22.9768 83.1663L22.9768 83.1663L22.9723 83.169L22.9722 83.1691C21.337 84.1492 19.6475 85.1618 18.9182 87.1544C18.6346 87.8728 18.4918 88.6387 18.4974 89.4107C18.4974 92.6552 21.0312 95.2951 24.1443 95.2951C25.7506 95.2951 27.46 94.74 29.269 94.1525C31.0083 93.5875 32.8065 93.0036 34.3612 93.0036C35.9159 93.0036 37.7095 93.5875 39.4425 94.1525L39.4913 94.1683L39.4913 94.1683C41.2786 94.7464 42.9637 95.2915 44.56 95.2915C47.6685 95.2915 50.1979 92.6516 50.1979 89.4071C50.2005 88.6345 50.0545 87.8686 49.768 87.1508C49.0388 85.1566 47.3487 84.1431 45.7146 83.1631L45.7138 83.1626ZM21.2965 81.2799L21.2838 81.2844C20.7945 81.4757 20.2736 81.5736 19.7481 81.5732C17.2622 81.5732 14.7202 79.483 13.4234 76.373C12.4867 74.1257 12.3799 71.7115 13.1383 69.9065C13.6387 68.7161 14.474 67.8551 15.5509 67.4264L15.5636 67.4219C16.0537 67.2303 16.5756 67.1323 17.102 67.1331C19.5879 67.1331 22.1299 69.2233 23.4267 72.3333C24.3633 74.5806 24.4701 76.9948 23.7118 78.7998C23.2113 79.9902 22.3761 80.8476 21.2965 81.2799Z" fill="#FFC41E"/>
</svg>
